%TF.GenerationSoftware,KiCad,Pcbnew,(5.1.6)-1*%
%TF.CreationDate,2020-12-06T15:26:43+11:00*%
%TF.ProjectId,mc13clkioout,6d633133-636c-46b6-996f-6f75742e6b69,rev?*%
%TF.SameCoordinates,Original*%
%TF.FileFunction,Legend,Bot*%
%TF.FilePolarity,Positive*%
%FSLAX46Y46*%
G04 Gerber Fmt 4.6, Leading zero omitted, Abs format (unit mm)*
G04 Created by KiCad (PCBNEW (5.1.6)-1) date 2020-12-06 15:26:43*
%MOMM*%
%LPD*%
G01*
G04 APERTURE LIST*
%ADD10C,0.120000*%
G04 APERTURE END LIST*
D10*
%TO.C,J1*%
X147634000Y-135064000D02*
X145034000Y-135064000D01*
X145034000Y-135064000D02*
X145034000Y-143694000D01*
X145034000Y-143694000D02*
X147634000Y-143694000D01*
X147634000Y-143694000D02*
X147634000Y-135064000D01*
X146684000Y-134634000D02*
X146684000Y-135064000D01*
X145924000Y-134634000D02*
X145924000Y-135064000D01*
X146684000Y-132094000D02*
X146684000Y-132574000D01*
X145924000Y-132094000D02*
X145924000Y-132574000D01*
X147454000Y-135064000D02*
X147454000Y-143694000D01*
X147334000Y-135064000D02*
X147334000Y-143694000D01*
X147214000Y-135064000D02*
X147214000Y-143694000D01*
X147094000Y-135064000D02*
X147094000Y-143694000D01*
X146974000Y-135064000D02*
X146974000Y-143694000D01*
X146854000Y-135064000D02*
X146854000Y-143694000D01*
X146734000Y-135064000D02*
X146734000Y-143694000D01*
X146614000Y-135064000D02*
X146614000Y-143694000D01*
X146494000Y-135064000D02*
X146494000Y-143694000D01*
X146374000Y-135064000D02*
X146374000Y-143694000D01*
X146254000Y-135064000D02*
X146254000Y-143694000D01*
X146134000Y-135064000D02*
X146134000Y-143694000D01*
X146014000Y-135064000D02*
X146014000Y-143694000D01*
X145894000Y-135064000D02*
X145894000Y-143694000D01*
X145774000Y-135064000D02*
X145774000Y-143694000D01*
X145654000Y-135064000D02*
X145654000Y-143694000D01*
X145534000Y-135064000D02*
X145534000Y-143694000D01*
X145414000Y-135064000D02*
X145414000Y-143694000D01*
X145294000Y-135064000D02*
X145294000Y-143694000D01*
X145174000Y-135064000D02*
X145174000Y-143694000D01*
X145054000Y-135064000D02*
X145054000Y-143694000D01*
X144934000Y-135064000D02*
X144934000Y-143694000D01*
X145034000Y-135064000D02*
X142494000Y-135064000D01*
X142494000Y-135064000D02*
X142494000Y-143694000D01*
X142494000Y-143694000D02*
X145034000Y-143694000D01*
X145034000Y-143694000D02*
X145034000Y-135064000D01*
X144144000Y-134634000D02*
X144144000Y-135064000D01*
X143384000Y-134634000D02*
X143384000Y-135064000D01*
X144144000Y-132094000D02*
X144144000Y-132574000D01*
X143384000Y-132094000D02*
X143384000Y-132574000D01*
X142494000Y-135064000D02*
X139954000Y-135064000D01*
X139954000Y-135064000D02*
X139954000Y-143694000D01*
X139954000Y-143694000D02*
X142494000Y-143694000D01*
X142494000Y-143694000D02*
X142494000Y-135064000D01*
X141604000Y-134634000D02*
X141604000Y-135064000D01*
X140844000Y-134634000D02*
X140844000Y-135064000D01*
X141604000Y-132094000D02*
X141604000Y-132574000D01*
X140844000Y-132094000D02*
X140844000Y-132574000D01*
X139954000Y-135064000D02*
X137414000Y-135064000D01*
X137414000Y-135064000D02*
X137414000Y-143694000D01*
X137414000Y-143694000D02*
X139954000Y-143694000D01*
X139954000Y-143694000D02*
X139954000Y-135064000D01*
X139064000Y-134634000D02*
X139064000Y-135064000D01*
X138304000Y-134634000D02*
X138304000Y-135064000D01*
X139064000Y-132094000D02*
X139064000Y-132574000D01*
X138304000Y-132094000D02*
X138304000Y-132574000D01*
X137414000Y-135064000D02*
X134874000Y-135064000D01*
X134874000Y-135064000D02*
X134874000Y-143694000D01*
X134874000Y-143694000D02*
X137414000Y-143694000D01*
X137414000Y-143694000D02*
X137414000Y-135064000D01*
X136524000Y-134634000D02*
X136524000Y-135064000D01*
X135764000Y-134634000D02*
X135764000Y-135064000D01*
X136524000Y-132094000D02*
X136524000Y-132574000D01*
X135764000Y-132094000D02*
X135764000Y-132574000D01*
X134874000Y-135064000D02*
X132334000Y-135064000D01*
X132334000Y-135064000D02*
X132334000Y-143694000D01*
X132334000Y-143694000D02*
X134874000Y-143694000D01*
X134874000Y-143694000D02*
X134874000Y-135064000D01*
X133984000Y-134634000D02*
X133984000Y-135064000D01*
X133224000Y-134634000D02*
X133224000Y-135064000D01*
X133984000Y-132094000D02*
X133984000Y-132574000D01*
X133224000Y-132094000D02*
X133224000Y-132574000D01*
X132334000Y-135064000D02*
X129794000Y-135064000D01*
X129794000Y-135064000D02*
X129794000Y-143694000D01*
X129794000Y-143694000D02*
X132334000Y-143694000D01*
X132334000Y-143694000D02*
X132334000Y-135064000D01*
X131444000Y-134634000D02*
X131444000Y-135064000D01*
X130684000Y-134634000D02*
X130684000Y-135064000D01*
X131444000Y-132094000D02*
X131444000Y-132574000D01*
X130684000Y-132094000D02*
X130684000Y-132574000D01*
X129794000Y-135064000D02*
X127254000Y-135064000D01*
X127254000Y-135064000D02*
X127254000Y-143694000D01*
X127254000Y-143694000D02*
X129794000Y-143694000D01*
X129794000Y-143694000D02*
X129794000Y-135064000D01*
X128904000Y-134634000D02*
X128904000Y-135064000D01*
X128144000Y-134634000D02*
X128144000Y-135064000D01*
X128904000Y-132094000D02*
X128904000Y-132574000D01*
X128144000Y-132094000D02*
X128144000Y-132574000D01*
X127254000Y-135064000D02*
X124714000Y-135064000D01*
X124714000Y-135064000D02*
X124714000Y-143694000D01*
X124714000Y-143694000D02*
X127254000Y-143694000D01*
X127254000Y-143694000D02*
X127254000Y-135064000D01*
X126364000Y-134634000D02*
X126364000Y-135064000D01*
X125604000Y-134634000D02*
X125604000Y-135064000D01*
X126364000Y-132094000D02*
X126364000Y-132574000D01*
X125604000Y-132094000D02*
X125604000Y-132574000D01*
X124714000Y-135064000D02*
X122114000Y-135064000D01*
X122114000Y-135064000D02*
X122114000Y-143694000D01*
X122114000Y-143694000D02*
X124714000Y-143694000D01*
X124714000Y-143694000D02*
X124714000Y-135064000D01*
X123824000Y-134634000D02*
X123824000Y-135064000D01*
X123064000Y-134634000D02*
X123064000Y-135064000D01*
X123824000Y-132094000D02*
X123824000Y-132574000D01*
X123064000Y-132094000D02*
X123064000Y-132574000D01*
X147574000Y-131064000D02*
X147574000Y-129794000D01*
X147574000Y-129794000D02*
X146304000Y-129794000D01*
%TD*%
M02*
