M48
; DRILL file {KiCad (5.1.6)-1} date 12/06/20 15:26:47
; FORMAT={-:-/ absolute / metric / decimal}
; #@! TF.CreationDate,2020-12-06T15:26:47+11:00
; #@! TF.GenerationSoftware,Kicad,Pcbnew,(5.1.6)-1
; #@! TF.FileFunction,Plated,1,2,PTH
FMAT,2
METRIC
T1C0.400
T2C0.500
T3C1.000
T4C1.200
T5C3.000
%
G90
G05
T1
X116.078Y-104.648
X117.602Y-114.3
X120.904Y-104.648
X122.428Y-114.3
X123.19Y-128.27
X125.73Y-104.648
X127.254Y-114.3
X130.556Y-104.648
X132.08Y-114.3
X135.382Y-104.648
X136.906Y-114.3
X140.208Y-104.648
X140.97Y-98.044
X141.732Y-114.3
X145.034Y-104.648
X146.558Y-114.3
X149.86Y-104.648
X151.384Y-114.3
T2
X147.61Y-96.266
X148.269Y-94.675
X148.269Y-97.857
X149.86Y-94.016
X149.86Y-98.516
X151.451Y-94.675
X151.451Y-97.857
X152.11Y-96.266
X117.638Y-96.266
X118.297Y-94.675
X118.297Y-97.857
X119.888Y-94.016
X119.888Y-98.516
X121.479Y-94.675
X121.479Y-97.857
X122.138Y-96.266
T3
X119.634Y-131.064
X119.634Y-133.604
X123.444Y-131.064
X123.444Y-133.604
X125.984Y-131.064
X125.984Y-133.604
X128.524Y-131.064
X128.524Y-133.604
X131.064Y-131.064
X131.064Y-133.604
X133.604Y-131.064
X133.604Y-133.604
X136.144Y-131.064
X136.144Y-133.604
X138.684Y-131.064
X138.684Y-133.604
X141.224Y-131.064
X141.224Y-133.604
X143.764Y-131.064
X143.764Y-133.604
X146.304Y-131.064
X146.304Y-133.604
T4
X132.588Y-98.044
X136.398Y-98.044
T5
X149.86Y-96.266
X119.888Y-96.266
T0
M30
