%TF.GenerationSoftware,KiCad,Pcbnew,(5.1.6)-1*%
%TF.CreationDate,2020-12-06T15:26:43+11:00*%
%TF.ProjectId,mc13clkioout,6d633133-636c-46b6-996f-6f75742e6b69,rev?*%
%TF.SameCoordinates,Original*%
%TF.FileFunction,Soldermask,Bot*%
%TF.FilePolarity,Negative*%
%FSLAX46Y46*%
G04 Gerber Fmt 4.6, Leading zero omitted, Abs format (unit mm)*
G04 Created by KiCad (PCBNEW (5.1.6)-1) date 2020-12-06 15:26:43*
%MOMM*%
%LPD*%
G01*
G04 APERTURE LIST*
%ADD10C,0.150000*%
%ADD11R,1.800000X1.800000*%
%ADD12O,1.800000X1.800000*%
%ADD13C,6.100000*%
%ADD14C,0.900000*%
%ADD15R,1.900000X3.700000*%
%ADD16O,1.900000X3.700000*%
G04 APERTURE END LIST*
D10*
X153421571Y-102433380D02*
X153421571Y-101433380D01*
X152993000Y-102433380D02*
X152993000Y-101909571D01*
X153040619Y-101814333D01*
X153135857Y-101766714D01*
X153278714Y-101766714D01*
X153373952Y-101814333D01*
X153421571Y-101861952D01*
X152659666Y-101766714D02*
X152278714Y-101766714D01*
X152516809Y-101433380D02*
X152516809Y-102290523D01*
X152469190Y-102385761D01*
X152373952Y-102433380D01*
X152278714Y-102433380D01*
X152088238Y-101766714D02*
X151707285Y-101766714D01*
X151945380Y-101433380D02*
X151945380Y-102290523D01*
X151897761Y-102385761D01*
X151802523Y-102433380D01*
X151707285Y-102433380D01*
X151373952Y-101766714D02*
X151373952Y-102766714D01*
X151373952Y-101814333D02*
X151278714Y-101766714D01*
X151088238Y-101766714D01*
X150993000Y-101814333D01*
X150945380Y-101861952D01*
X150897761Y-101957190D01*
X150897761Y-102242904D01*
X150945380Y-102338142D01*
X150993000Y-102385761D01*
X151088238Y-102433380D01*
X151278714Y-102433380D01*
X151373952Y-102385761D01*
X150516809Y-102385761D02*
X150421571Y-102433380D01*
X150231095Y-102433380D01*
X150135857Y-102385761D01*
X150088238Y-102290523D01*
X150088238Y-102242904D01*
X150135857Y-102147666D01*
X150231095Y-102100047D01*
X150373952Y-102100047D01*
X150469190Y-102052428D01*
X150516809Y-101957190D01*
X150516809Y-101909571D01*
X150469190Y-101814333D01*
X150373952Y-101766714D01*
X150231095Y-101766714D01*
X150135857Y-101814333D01*
X149659666Y-102338142D02*
X149612047Y-102385761D01*
X149659666Y-102433380D01*
X149707285Y-102385761D01*
X149659666Y-102338142D01*
X149659666Y-102433380D01*
X149659666Y-101814333D02*
X149612047Y-101861952D01*
X149659666Y-101909571D01*
X149707285Y-101861952D01*
X149659666Y-101814333D01*
X149659666Y-101909571D01*
X148469190Y-101385761D02*
X149326333Y-102671476D01*
X147421571Y-101385761D02*
X148278714Y-102671476D01*
X147088238Y-101766714D02*
X147088238Y-102766714D01*
X147088238Y-101814333D02*
X146993000Y-101766714D01*
X146802523Y-101766714D01*
X146707285Y-101814333D01*
X146659666Y-101861952D01*
X146612047Y-101957190D01*
X146612047Y-102242904D01*
X146659666Y-102338142D01*
X146707285Y-102385761D01*
X146802523Y-102433380D01*
X146993000Y-102433380D01*
X147088238Y-102385761D01*
X145754904Y-102385761D02*
X145850142Y-102433380D01*
X146040619Y-102433380D01*
X146135857Y-102385761D01*
X146183476Y-102338142D01*
X146231095Y-102242904D01*
X146231095Y-101957190D01*
X146183476Y-101861952D01*
X146135857Y-101814333D01*
X146040619Y-101766714D01*
X145850142Y-101766714D01*
X145754904Y-101814333D01*
X145326333Y-102433380D02*
X145326333Y-101433380D01*
X145326333Y-101814333D02*
X145231095Y-101766714D01*
X145040619Y-101766714D01*
X144945380Y-101814333D01*
X144897761Y-101861952D01*
X144850142Y-101957190D01*
X144850142Y-102242904D01*
X144897761Y-102338142D01*
X144945380Y-102385761D01*
X145040619Y-102433380D01*
X145231095Y-102433380D01*
X145326333Y-102385761D01*
X144421571Y-102338142D02*
X144373952Y-102385761D01*
X144421571Y-102433380D01*
X144469190Y-102385761D01*
X144421571Y-102338142D01*
X144421571Y-102433380D01*
X143945380Y-102433380D02*
X143945380Y-101433380D01*
X143516809Y-102433380D02*
X143516809Y-101909571D01*
X143564428Y-101814333D01*
X143659666Y-101766714D01*
X143802523Y-101766714D01*
X143897761Y-101814333D01*
X143945380Y-101861952D01*
X142659666Y-102385761D02*
X142754904Y-102433380D01*
X142945380Y-102433380D01*
X143040619Y-102385761D01*
X143088238Y-102290523D01*
X143088238Y-101909571D01*
X143040619Y-101814333D01*
X142945380Y-101766714D01*
X142754904Y-101766714D01*
X142659666Y-101814333D01*
X142612047Y-101909571D01*
X142612047Y-102004809D01*
X143088238Y-102100047D01*
X141754904Y-101766714D02*
X141754904Y-102576238D01*
X141802523Y-102671476D01*
X141850142Y-102719095D01*
X141945380Y-102766714D01*
X142088238Y-102766714D01*
X142183476Y-102719095D01*
X141754904Y-102385761D02*
X141850142Y-102433380D01*
X142040619Y-102433380D01*
X142135857Y-102385761D01*
X142183476Y-102338142D01*
X142231095Y-102242904D01*
X142231095Y-101957190D01*
X142183476Y-101861952D01*
X142135857Y-101814333D01*
X142040619Y-101766714D01*
X141850142Y-101766714D01*
X141754904Y-101814333D01*
X140850142Y-102433380D02*
X140850142Y-101909571D01*
X140897761Y-101814333D01*
X140993000Y-101766714D01*
X141183476Y-101766714D01*
X141278714Y-101814333D01*
X140850142Y-102385761D02*
X140945380Y-102433380D01*
X141183476Y-102433380D01*
X141278714Y-102385761D01*
X141326333Y-102290523D01*
X141326333Y-102195285D01*
X141278714Y-102100047D01*
X141183476Y-102052428D01*
X140945380Y-102052428D01*
X140850142Y-102004809D01*
X140373952Y-102433380D02*
X140373952Y-101766714D01*
X140373952Y-101957190D02*
X140326333Y-101861952D01*
X140278714Y-101814333D01*
X140183476Y-101766714D01*
X140088238Y-101766714D01*
X139802523Y-102385761D02*
X139707285Y-102433380D01*
X139516809Y-102433380D01*
X139421571Y-102385761D01*
X139373952Y-102290523D01*
X139373952Y-102242904D01*
X139421571Y-102147666D01*
X139516809Y-102100047D01*
X139659666Y-102100047D01*
X139754904Y-102052428D01*
X139802523Y-101957190D01*
X139802523Y-101909571D01*
X139754904Y-101814333D01*
X139659666Y-101766714D01*
X139516809Y-101766714D01*
X139421571Y-101814333D01*
X138945380Y-102338142D02*
X138897761Y-102385761D01*
X138945380Y-102433380D01*
X138993000Y-102385761D01*
X138945380Y-102338142D01*
X138945380Y-102433380D01*
X138040619Y-102385761D02*
X138135857Y-102433380D01*
X138326333Y-102433380D01*
X138421571Y-102385761D01*
X138469190Y-102338142D01*
X138516809Y-102242904D01*
X138516809Y-101957190D01*
X138469190Y-101861952D01*
X138421571Y-101814333D01*
X138326333Y-101766714D01*
X138135857Y-101766714D01*
X138040619Y-101814333D01*
X137469190Y-102433380D02*
X137564428Y-102385761D01*
X137612047Y-102338142D01*
X137659666Y-102242904D01*
X137659666Y-101957190D01*
X137612047Y-101861952D01*
X137564428Y-101814333D01*
X137469190Y-101766714D01*
X137326333Y-101766714D01*
X137231095Y-101814333D01*
X137183476Y-101861952D01*
X137135857Y-101957190D01*
X137135857Y-102242904D01*
X137183476Y-102338142D01*
X137231095Y-102385761D01*
X137326333Y-102433380D01*
X137469190Y-102433380D01*
X136707285Y-102433380D02*
X136707285Y-101766714D01*
X136707285Y-101861952D02*
X136659666Y-101814333D01*
X136564428Y-101766714D01*
X136421571Y-101766714D01*
X136326333Y-101814333D01*
X136278714Y-101909571D01*
X136278714Y-102433380D01*
X136278714Y-101909571D02*
X136231095Y-101814333D01*
X136135857Y-101766714D01*
X135993000Y-101766714D01*
X135897761Y-101814333D01*
X135850142Y-101909571D01*
X135850142Y-102433380D01*
X134659666Y-101385761D02*
X135516809Y-102671476D01*
X134326333Y-101766714D02*
X134326333Y-102766714D01*
X134326333Y-101814333D02*
X134231095Y-101766714D01*
X134040619Y-101766714D01*
X133945380Y-101814333D01*
X133897761Y-101861952D01*
X133850142Y-101957190D01*
X133850142Y-102242904D01*
X133897761Y-102338142D01*
X133945380Y-102385761D01*
X134040619Y-102433380D01*
X134231095Y-102433380D01*
X134326333Y-102385761D01*
X132993000Y-102385761D02*
X133088238Y-102433380D01*
X133278714Y-102433380D01*
X133373952Y-102385761D01*
X133421571Y-102338142D01*
X133469190Y-102242904D01*
X133469190Y-101957190D01*
X133421571Y-101861952D01*
X133373952Y-101814333D01*
X133278714Y-101766714D01*
X133088238Y-101766714D01*
X132993000Y-101814333D01*
X132564428Y-102433380D02*
X132564428Y-101433380D01*
X132564428Y-101814333D02*
X132469190Y-101766714D01*
X132278714Y-101766714D01*
X132183476Y-101814333D01*
X132135857Y-101861952D01*
X132088238Y-101957190D01*
X132088238Y-102242904D01*
X132135857Y-102338142D01*
X132183476Y-102385761D01*
X132278714Y-102433380D01*
X132469190Y-102433380D01*
X132564428Y-102385761D01*
X131516809Y-102338142D02*
X131469190Y-102385761D01*
X131516809Y-102433380D01*
X131564428Y-102385761D01*
X131516809Y-102338142D01*
X131516809Y-102433380D01*
X131707285Y-101481000D02*
X131612047Y-101433380D01*
X131373952Y-101433380D01*
X131278714Y-101481000D01*
X131231095Y-101576238D01*
X131231095Y-101671476D01*
X131278714Y-101766714D01*
X131326333Y-101814333D01*
X131421571Y-101861952D01*
X131469190Y-101909571D01*
X131516809Y-102004809D01*
X131516809Y-102052428D01*
X130850142Y-102385761D02*
X130754904Y-102433380D01*
X130564428Y-102433380D01*
X130469190Y-102385761D01*
X130421571Y-102290523D01*
X130421571Y-102242904D01*
X130469190Y-102147666D01*
X130564428Y-102100047D01*
X130707285Y-102100047D01*
X130802523Y-102052428D01*
X130850142Y-101957190D01*
X130850142Y-101909571D01*
X130802523Y-101814333D01*
X130707285Y-101766714D01*
X130564428Y-101766714D01*
X130469190Y-101814333D01*
X129993000Y-102433380D02*
X129993000Y-101433380D01*
X129897761Y-102052428D02*
X129612047Y-102433380D01*
X129612047Y-101766714D02*
X129993000Y-102147666D01*
X128754904Y-101766714D02*
X128754904Y-102433380D01*
X129183476Y-101766714D02*
X129183476Y-102290523D01*
X129135857Y-102385761D01*
X129040619Y-102433380D01*
X128897761Y-102433380D01*
X128802523Y-102385761D01*
X128754904Y-102338142D01*
X128278714Y-101909571D02*
X127516809Y-101909571D01*
X127516809Y-102195285D02*
X128278714Y-102195285D01*
X126897761Y-101861952D02*
X126993000Y-101814333D01*
X127040619Y-101766714D01*
X127088238Y-101671476D01*
X127088238Y-101623857D01*
X127040619Y-101528619D01*
X126993000Y-101481000D01*
X126897761Y-101433380D01*
X126707285Y-101433380D01*
X126612047Y-101481000D01*
X126564428Y-101528619D01*
X126516809Y-101623857D01*
X126516809Y-101671476D01*
X126564428Y-101766714D01*
X126612047Y-101814333D01*
X126707285Y-101861952D01*
X126897761Y-101861952D01*
X126993000Y-101909571D01*
X127040619Y-101957190D01*
X127088238Y-102052428D01*
X127088238Y-102242904D01*
X127040619Y-102338142D01*
X126993000Y-102385761D01*
X126897761Y-102433380D01*
X126707285Y-102433380D01*
X126612047Y-102385761D01*
X126564428Y-102338142D01*
X126516809Y-102242904D01*
X126516809Y-102052428D01*
X126564428Y-101957190D01*
X126612047Y-101909571D01*
X126707285Y-101861952D01*
X126088238Y-101766714D02*
X126088238Y-102766714D01*
X126088238Y-101814333D02*
X125993000Y-101766714D01*
X125802523Y-101766714D01*
X125707285Y-101814333D01*
X125659666Y-101861952D01*
X125612047Y-101957190D01*
X125612047Y-102242904D01*
X125659666Y-102338142D01*
X125707285Y-102385761D01*
X125802523Y-102433380D01*
X125993000Y-102433380D01*
X126088238Y-102385761D01*
X125040619Y-102433380D02*
X125135857Y-102385761D01*
X125183476Y-102338142D01*
X125231095Y-102242904D01*
X125231095Y-101957190D01*
X125183476Y-101861952D01*
X125135857Y-101814333D01*
X125040619Y-101766714D01*
X124897761Y-101766714D01*
X124802523Y-101814333D01*
X124754904Y-101861952D01*
X124707285Y-101957190D01*
X124707285Y-102242904D01*
X124754904Y-102338142D01*
X124802523Y-102385761D01*
X124897761Y-102433380D01*
X125040619Y-102433380D01*
X124278714Y-102433380D02*
X124278714Y-101766714D01*
X124278714Y-101957190D02*
X124231095Y-101861952D01*
X124183476Y-101814333D01*
X124088238Y-101766714D01*
X123993000Y-101766714D01*
X123802523Y-101766714D02*
X123421571Y-101766714D01*
X123659666Y-101433380D02*
X123659666Y-102290523D01*
X123612047Y-102385761D01*
X123516809Y-102433380D01*
X123421571Y-102433380D01*
X123088238Y-102433380D02*
X123088238Y-101766714D01*
X123088238Y-101861952D02*
X123040619Y-101814333D01*
X122945380Y-101766714D01*
X122802523Y-101766714D01*
X122707285Y-101814333D01*
X122659666Y-101909571D01*
X122659666Y-102433380D01*
X122659666Y-101909571D02*
X122612047Y-101814333D01*
X122516809Y-101766714D01*
X122373952Y-101766714D01*
X122278714Y-101814333D01*
X122231095Y-101909571D01*
X122231095Y-102433380D01*
X121612047Y-102433380D02*
X121707285Y-102385761D01*
X121754904Y-102338142D01*
X121802523Y-102242904D01*
X121802523Y-101957190D01*
X121754904Y-101861952D01*
X121707285Y-101814333D01*
X121612047Y-101766714D01*
X121469190Y-101766714D01*
X121373952Y-101814333D01*
X121326333Y-101861952D01*
X121278714Y-101957190D01*
X121278714Y-102242904D01*
X121326333Y-102338142D01*
X121373952Y-102385761D01*
X121469190Y-102433380D01*
X121612047Y-102433380D01*
X120897761Y-102385761D02*
X120802523Y-102433380D01*
X120612047Y-102433380D01*
X120516809Y-102385761D01*
X120469190Y-102290523D01*
X120469190Y-102242904D01*
X120516809Y-102147666D01*
X120612047Y-102100047D01*
X120754904Y-102100047D01*
X120850142Y-102052428D01*
X120897761Y-101957190D01*
X120897761Y-101909571D01*
X120850142Y-101814333D01*
X120754904Y-101766714D01*
X120612047Y-101766714D01*
X120516809Y-101814333D01*
X120183476Y-101766714D02*
X119802523Y-101766714D01*
X120040619Y-102433380D02*
X120040619Y-101576238D01*
X119993000Y-101481000D01*
X119897761Y-101433380D01*
X119802523Y-101433380D01*
X119088238Y-102385761D02*
X119183476Y-102433380D01*
X119373952Y-102433380D01*
X119469190Y-102385761D01*
X119516809Y-102290523D01*
X119516809Y-101909571D01*
X119469190Y-101814333D01*
X119373952Y-101766714D01*
X119183476Y-101766714D01*
X119088238Y-101814333D01*
X119040619Y-101909571D01*
X119040619Y-102004809D01*
X119516809Y-102100047D01*
X118754904Y-101766714D02*
X118373952Y-101766714D01*
X118612047Y-101433380D02*
X118612047Y-102290523D01*
X118564428Y-102385761D01*
X118469190Y-102433380D01*
X118373952Y-102433380D01*
X118183476Y-101766714D02*
X117802523Y-101766714D01*
X118040619Y-101433380D02*
X118040619Y-102290523D01*
X117993000Y-102385761D01*
X117897761Y-102433380D01*
X117802523Y-102433380D01*
X117326333Y-102433380D02*
X117421571Y-102385761D01*
X117469190Y-102338142D01*
X117516809Y-102242904D01*
X117516809Y-101957190D01*
X117469190Y-101861952D01*
X117421571Y-101814333D01*
X117326333Y-101766714D01*
X117183476Y-101766714D01*
X117088238Y-101814333D01*
X117040619Y-101861952D01*
X116993000Y-101957190D01*
X116993000Y-102242904D01*
X117040619Y-102338142D01*
X117088238Y-102385761D01*
X117183476Y-102433380D01*
X117326333Y-102433380D01*
X116135857Y-101766714D02*
X116135857Y-102433380D01*
X116564428Y-101766714D02*
X116564428Y-102290523D01*
X116516809Y-102385761D01*
X116421571Y-102433380D01*
X116278714Y-102433380D01*
X116183476Y-102385761D01*
X116135857Y-102338142D01*
X115802523Y-101766714D02*
X115421571Y-101766714D01*
X115659666Y-101433380D02*
X115659666Y-102290523D01*
X115612047Y-102385761D01*
X115516809Y-102433380D01*
X115421571Y-102433380D01*
D11*
%TO.C,J1*%
X146304000Y-131064000D03*
D12*
X146304000Y-133604000D03*
X143764000Y-131064000D03*
X143764000Y-133604000D03*
X141224000Y-131064000D03*
X141224000Y-133604000D03*
X138684000Y-131064000D03*
X138684000Y-133604000D03*
X136144000Y-131064000D03*
X136144000Y-133604000D03*
X133604000Y-131064000D03*
X133604000Y-133604000D03*
X131064000Y-131064000D03*
X131064000Y-133604000D03*
X128524000Y-131064000D03*
X128524000Y-133604000D03*
X125984000Y-131064000D03*
X125984000Y-133604000D03*
X123444000Y-131064000D03*
X123444000Y-133604000D03*
%TD*%
D13*
%TO.C,H2*%
X149860000Y-96266000D03*
D14*
X152110000Y-96266000D03*
X151450990Y-97856990D03*
X149860000Y-98516000D03*
X148269010Y-97856990D03*
X147610000Y-96266000D03*
X148269010Y-94675010D03*
X149860000Y-94016000D03*
X151450990Y-94675010D03*
%TD*%
D13*
%TO.C,H1*%
X119888000Y-96266000D03*
D14*
X122138000Y-96266000D03*
X121478990Y-97856990D03*
X119888000Y-98516000D03*
X118297010Y-97856990D03*
X117638000Y-96266000D03*
X118297010Y-94675010D03*
X119888000Y-94016000D03*
X121478990Y-94675010D03*
%TD*%
D11*
%TO.C,J3*%
X119634000Y-133604000D03*
D12*
X119634000Y-131064000D03*
%TD*%
D15*
%TO.C,J2*%
X136398000Y-98044000D03*
D16*
X132588000Y-98044000D03*
%TD*%
M02*
