%TF.GenerationSoftware,KiCad,Pcbnew,(5.1.6)-1*%
%TF.CreationDate,2020-12-06T15:26:43+11:00*%
%TF.ProjectId,mc13clkioout,6d633133-636c-46b6-996f-6f75742e6b69,rev?*%
%TF.SameCoordinates,Original*%
%TF.FileFunction,Legend,Top*%
%TF.FilePolarity,Positive*%
%FSLAX46Y46*%
G04 Gerber Fmt 4.6, Leading zero omitted, Abs format (unit mm)*
G04 Created by KiCad (PCBNEW (5.1.6)-1) date 2020-12-06 15:26:43*
%MOMM*%
%LPD*%
G01*
G04 APERTURE LIST*
%ADD10C,0.150000*%
%ADD11C,0.120000*%
G04 APERTURE END LIST*
D10*
X125151619Y-126880952D02*
X125056380Y-126833333D01*
X125008761Y-126785714D01*
X124961142Y-126690476D01*
X124961142Y-126642857D01*
X125008761Y-126547619D01*
X125056380Y-126500000D01*
X125151619Y-126452380D01*
X125342095Y-126452380D01*
X125437333Y-126500000D01*
X125484952Y-126547619D01*
X125532571Y-126642857D01*
X125532571Y-126690476D01*
X125484952Y-126785714D01*
X125437333Y-126833333D01*
X125342095Y-126880952D01*
X125151619Y-126880952D01*
X125056380Y-126928571D01*
X125008761Y-126976190D01*
X124961142Y-127071428D01*
X124961142Y-127261904D01*
X125008761Y-127357142D01*
X125056380Y-127404761D01*
X125151619Y-127452380D01*
X125342095Y-127452380D01*
X125437333Y-127404761D01*
X125484952Y-127357142D01*
X125532571Y-127261904D01*
X125532571Y-127071428D01*
X125484952Y-126976190D01*
X125437333Y-126928571D01*
X125342095Y-126880952D01*
X126723047Y-127452380D02*
X126723047Y-126452380D01*
X127104000Y-126452380D01*
X127199238Y-126500000D01*
X127246857Y-126547619D01*
X127294476Y-126642857D01*
X127294476Y-126785714D01*
X127246857Y-126880952D01*
X127199238Y-126928571D01*
X127104000Y-126976190D01*
X126723047Y-126976190D01*
X127865904Y-127452380D02*
X127770666Y-127404761D01*
X127723047Y-127357142D01*
X127675428Y-127261904D01*
X127675428Y-126976190D01*
X127723047Y-126880952D01*
X127770666Y-126833333D01*
X127865904Y-126785714D01*
X128008761Y-126785714D01*
X128104000Y-126833333D01*
X128151619Y-126880952D01*
X128199238Y-126976190D01*
X128199238Y-127261904D01*
X128151619Y-127357142D01*
X128104000Y-127404761D01*
X128008761Y-127452380D01*
X127865904Y-127452380D01*
X128627809Y-127452380D02*
X128627809Y-126785714D01*
X128627809Y-126976190D02*
X128675428Y-126880952D01*
X128723047Y-126833333D01*
X128818285Y-126785714D01*
X128913523Y-126785714D01*
X129104000Y-126785714D02*
X129484952Y-126785714D01*
X129246857Y-126452380D02*
X129246857Y-127309523D01*
X129294476Y-127404761D01*
X129389714Y-127452380D01*
X129484952Y-127452380D01*
X130580190Y-127452380D02*
X130580190Y-126452380D01*
X130913523Y-127166666D01*
X131246857Y-126452380D01*
X131246857Y-127452380D01*
X131913523Y-126452380D02*
X132104000Y-126452380D01*
X132199238Y-126500000D01*
X132294476Y-126595238D01*
X132342095Y-126785714D01*
X132342095Y-127119047D01*
X132294476Y-127309523D01*
X132199238Y-127404761D01*
X132104000Y-127452380D01*
X131913523Y-127452380D01*
X131818285Y-127404761D01*
X131723047Y-127309523D01*
X131675428Y-127119047D01*
X131675428Y-126785714D01*
X131723047Y-126595238D01*
X131818285Y-126500000D01*
X131913523Y-126452380D01*
X132723047Y-127404761D02*
X132865904Y-127452380D01*
X133104000Y-127452380D01*
X133199238Y-127404761D01*
X133246857Y-127357142D01*
X133294476Y-127261904D01*
X133294476Y-127166666D01*
X133246857Y-127071428D01*
X133199238Y-127023809D01*
X133104000Y-126976190D01*
X132913523Y-126928571D01*
X132818285Y-126880952D01*
X132770666Y-126833333D01*
X132723047Y-126738095D01*
X132723047Y-126642857D01*
X132770666Y-126547619D01*
X132818285Y-126500000D01*
X132913523Y-126452380D01*
X133151619Y-126452380D01*
X133294476Y-126500000D01*
X134056380Y-126928571D02*
X133723047Y-126928571D01*
X133723047Y-127452380D02*
X133723047Y-126452380D01*
X134199238Y-126452380D01*
X134580190Y-126928571D02*
X134913523Y-126928571D01*
X135056380Y-127452380D02*
X134580190Y-127452380D01*
X134580190Y-126452380D01*
X135056380Y-126452380D01*
X135342095Y-126452380D02*
X135913523Y-126452380D01*
X135627809Y-127452380D02*
X135627809Y-126452380D01*
X136104000Y-126452380D02*
X136675428Y-126452380D01*
X136389714Y-127452380D02*
X136389714Y-126452380D01*
X137961142Y-126452380D02*
X138151619Y-126452380D01*
X138246857Y-126500000D01*
X138342095Y-126595238D01*
X138389714Y-126785714D01*
X138389714Y-127119047D01*
X138342095Y-127309523D01*
X138246857Y-127404761D01*
X138151619Y-127452380D01*
X137961142Y-127452380D01*
X137865904Y-127404761D01*
X137770666Y-127309523D01*
X137723047Y-127119047D01*
X137723047Y-126785714D01*
X137770666Y-126595238D01*
X137865904Y-126500000D01*
X137961142Y-126452380D01*
X139246857Y-126785714D02*
X139246857Y-127452380D01*
X138818285Y-126785714D02*
X138818285Y-127309523D01*
X138865904Y-127404761D01*
X138961142Y-127452380D01*
X139104000Y-127452380D01*
X139199238Y-127404761D01*
X139246857Y-127357142D01*
X139580190Y-126785714D02*
X139961142Y-126785714D01*
X139723047Y-126452380D02*
X139723047Y-127309523D01*
X139770666Y-127404761D01*
X139865904Y-127452380D01*
X139961142Y-127452380D01*
X140294476Y-126785714D02*
X140294476Y-127785714D01*
X140294476Y-126833333D02*
X140389714Y-126785714D01*
X140580190Y-126785714D01*
X140675428Y-126833333D01*
X140723047Y-126880952D01*
X140770666Y-126976190D01*
X140770666Y-127261904D01*
X140723047Y-127357142D01*
X140675428Y-127404761D01*
X140580190Y-127452380D01*
X140389714Y-127452380D01*
X140294476Y-127404761D01*
X141627809Y-126785714D02*
X141627809Y-127452380D01*
X141199238Y-126785714D02*
X141199238Y-127309523D01*
X141246857Y-127404761D01*
X141342095Y-127452380D01*
X141484952Y-127452380D01*
X141580190Y-127404761D01*
X141627809Y-127357142D01*
X141961142Y-126785714D02*
X142342095Y-126785714D01*
X142104000Y-126452380D02*
X142104000Y-127309523D01*
X142151619Y-127404761D01*
X142246857Y-127452380D01*
X142342095Y-127452380D01*
D11*
%TO.C,Q7*%
X120848000Y-109472000D02*
X121778000Y-109472000D01*
X124008000Y-109472000D02*
X123078000Y-109472000D01*
X124008000Y-109472000D02*
X124008000Y-107312000D01*
X120848000Y-109472000D02*
X120848000Y-108012000D01*
%TO.C,D15*%
X115452000Y-117850000D02*
X119752000Y-117850000D01*
X119752000Y-117850000D02*
X119752000Y-112150000D01*
X115452000Y-117850000D02*
X115452000Y-112150000D01*
%TO.C,D13*%
X120278000Y-117850000D02*
X124578000Y-117850000D01*
X124578000Y-117850000D02*
X124578000Y-112150000D01*
X120278000Y-117850000D02*
X120278000Y-112150000D01*
%TO.C,D11*%
X125104000Y-117850000D02*
X129404000Y-117850000D01*
X129404000Y-117850000D02*
X129404000Y-112150000D01*
X125104000Y-117850000D02*
X125104000Y-112150000D01*
%TO.C,D9*%
X129930000Y-117850000D02*
X134230000Y-117850000D01*
X134230000Y-117850000D02*
X134230000Y-112150000D01*
X129930000Y-117850000D02*
X129930000Y-112150000D01*
%TO.C,D7*%
X134756000Y-117850000D02*
X139056000Y-117850000D01*
X139056000Y-117850000D02*
X139056000Y-112150000D01*
X134756000Y-117850000D02*
X134756000Y-112150000D01*
%TO.C,D5*%
X139582000Y-117850000D02*
X143882000Y-117850000D01*
X143882000Y-117850000D02*
X143882000Y-112150000D01*
X139582000Y-117850000D02*
X139582000Y-112150000D01*
%TO.C,D3*%
X144408000Y-117850000D02*
X148708000Y-117850000D01*
X148708000Y-117850000D02*
X148708000Y-112150000D01*
X144408000Y-117850000D02*
X144408000Y-112150000D01*
%TO.C,D1*%
X149234000Y-117850000D02*
X153534000Y-117850000D01*
X153534000Y-117850000D02*
X153534000Y-112150000D01*
X149234000Y-117850000D02*
X149234000Y-112150000D01*
%TO.C,R25*%
X140290000Y-96524000D02*
X140290000Y-95524000D01*
X141650000Y-95524000D02*
X141650000Y-96524000D01*
%TO.C,R24*%
X117102000Y-119716000D02*
X118102000Y-119716000D01*
X118102000Y-121076000D02*
X117102000Y-121076000D01*
%TO.C,R23*%
X118610000Y-106852000D02*
X117610000Y-106852000D01*
X117610000Y-105492000D02*
X118610000Y-105492000D01*
%TO.C,R22*%
X117610000Y-103968000D02*
X118610000Y-103968000D01*
X118610000Y-105328000D02*
X117610000Y-105328000D01*
%TO.C,R21*%
X121928000Y-119716000D02*
X122928000Y-119716000D01*
X122928000Y-121076000D02*
X121928000Y-121076000D01*
%TO.C,R20*%
X123436000Y-106852000D02*
X122436000Y-106852000D01*
X122436000Y-105492000D02*
X123436000Y-105492000D01*
%TO.C,R19*%
X122436000Y-103968000D02*
X123436000Y-103968000D01*
X123436000Y-105328000D02*
X122436000Y-105328000D01*
%TO.C,R18*%
X126754000Y-119716000D02*
X127754000Y-119716000D01*
X127754000Y-121076000D02*
X126754000Y-121076000D01*
%TO.C,R17*%
X128262000Y-106852000D02*
X127262000Y-106852000D01*
X127262000Y-105492000D02*
X128262000Y-105492000D01*
%TO.C,R16*%
X127262000Y-103968000D02*
X128262000Y-103968000D01*
X128262000Y-105328000D02*
X127262000Y-105328000D01*
%TO.C,R15*%
X131580000Y-119716000D02*
X132580000Y-119716000D01*
X132580000Y-121076000D02*
X131580000Y-121076000D01*
%TO.C,R14*%
X133088000Y-106852000D02*
X132088000Y-106852000D01*
X132088000Y-105492000D02*
X133088000Y-105492000D01*
%TO.C,R13*%
X132088000Y-103968000D02*
X133088000Y-103968000D01*
X133088000Y-105328000D02*
X132088000Y-105328000D01*
%TO.C,R12*%
X136406000Y-119716000D02*
X137406000Y-119716000D01*
X137406000Y-121076000D02*
X136406000Y-121076000D01*
%TO.C,R11*%
X137914000Y-106852000D02*
X136914000Y-106852000D01*
X136914000Y-105492000D02*
X137914000Y-105492000D01*
%TO.C,R10*%
X136914000Y-103968000D02*
X137914000Y-103968000D01*
X137914000Y-105328000D02*
X136914000Y-105328000D01*
%TO.C,R9*%
X141232000Y-119716000D02*
X142232000Y-119716000D01*
X142232000Y-121076000D02*
X141232000Y-121076000D01*
%TO.C,R8*%
X142740000Y-106852000D02*
X141740000Y-106852000D01*
X141740000Y-105492000D02*
X142740000Y-105492000D01*
%TO.C,R7*%
X141740000Y-103968000D02*
X142740000Y-103968000D01*
X142740000Y-105328000D02*
X141740000Y-105328000D01*
%TO.C,R6*%
X146058000Y-119716000D02*
X147058000Y-119716000D01*
X147058000Y-121076000D02*
X146058000Y-121076000D01*
%TO.C,R5*%
X147566000Y-106852000D02*
X146566000Y-106852000D01*
X146566000Y-105492000D02*
X147566000Y-105492000D01*
%TO.C,R4*%
X146566000Y-103968000D02*
X147566000Y-103968000D01*
X147566000Y-105328000D02*
X146566000Y-105328000D01*
%TO.C,R3*%
X150884000Y-119716000D02*
X151884000Y-119716000D01*
X151884000Y-121076000D02*
X150884000Y-121076000D01*
%TO.C,R2*%
X152392000Y-106852000D02*
X151392000Y-106852000D01*
X151392000Y-105492000D02*
X152392000Y-105492000D01*
%TO.C,R1*%
X151392000Y-103968000D02*
X152392000Y-103968000D01*
X152392000Y-105328000D02*
X151392000Y-105328000D01*
%TO.C,Q8*%
X116022000Y-109472000D02*
X116952000Y-109472000D01*
X119182000Y-109472000D02*
X118252000Y-109472000D01*
X119182000Y-109472000D02*
X119182000Y-107312000D01*
X116022000Y-109472000D02*
X116022000Y-108012000D01*
%TO.C,Q6*%
X125674000Y-109472000D02*
X126604000Y-109472000D01*
X128834000Y-109472000D02*
X127904000Y-109472000D01*
X128834000Y-109472000D02*
X128834000Y-107312000D01*
X125674000Y-109472000D02*
X125674000Y-108012000D01*
%TO.C,Q5*%
X130500000Y-109472000D02*
X131430000Y-109472000D01*
X133660000Y-109472000D02*
X132730000Y-109472000D01*
X133660000Y-109472000D02*
X133660000Y-107312000D01*
X130500000Y-109472000D02*
X130500000Y-108012000D01*
%TO.C,Q4*%
X135326000Y-109472000D02*
X136256000Y-109472000D01*
X138486000Y-109472000D02*
X137556000Y-109472000D01*
X138486000Y-109472000D02*
X138486000Y-107312000D01*
X135326000Y-109472000D02*
X135326000Y-108012000D01*
%TO.C,Q3*%
X140152000Y-109472000D02*
X141082000Y-109472000D01*
X143312000Y-109472000D02*
X142382000Y-109472000D01*
X143312000Y-109472000D02*
X143312000Y-107312000D01*
X140152000Y-109472000D02*
X140152000Y-108012000D01*
%TO.C,Q2*%
X144978000Y-109472000D02*
X145908000Y-109472000D01*
X148138000Y-109472000D02*
X147208000Y-109472000D01*
X148138000Y-109472000D02*
X148138000Y-107312000D01*
X144978000Y-109472000D02*
X144978000Y-108012000D01*
%TO.C,Q1*%
X149804000Y-109488000D02*
X150734000Y-109488000D01*
X152964000Y-109488000D02*
X152034000Y-109488000D01*
X152964000Y-109488000D02*
X152964000Y-107328000D01*
X149804000Y-109488000D02*
X149804000Y-108028000D01*
%TO.C,J3*%
X120964000Y-129734000D02*
X118304000Y-129734000D01*
X120964000Y-132334000D02*
X120964000Y-129734000D01*
X118304000Y-132334000D02*
X118304000Y-129734000D01*
X120964000Y-132334000D02*
X118304000Y-132334000D01*
X120964000Y-133604000D02*
X120964000Y-134934000D01*
X120964000Y-134934000D02*
X119634000Y-134934000D01*
%TO.C,J2*%
X139078000Y-99324000D02*
X139078000Y-89964000D01*
X139078000Y-89964000D02*
X129908000Y-89964000D01*
X129908000Y-89964000D02*
X129908000Y-99324000D01*
X139078000Y-99324000D02*
X137448000Y-99324000D01*
X129908000Y-99324000D02*
X131538000Y-99324000D01*
X135348000Y-99324000D02*
X133638000Y-99324000D01*
X139078000Y-93244000D02*
X129908000Y-93244000D01*
X136098000Y-100644000D02*
X136398000Y-100044000D01*
X136398000Y-100044000D02*
X136698000Y-100644000D01*
X136698000Y-100644000D02*
X136098000Y-100644000D01*
%TO.C,D17*%
X141470000Y-91664000D02*
X140470000Y-91664000D01*
X140470000Y-91664000D02*
X140470000Y-93764000D01*
X141470000Y-91664000D02*
X141470000Y-93764000D01*
%TO.C,D16*%
X118902000Y-119372000D02*
X118902000Y-118372000D01*
X118902000Y-118372000D02*
X116802000Y-118372000D01*
X118902000Y-119372000D02*
X116802000Y-119372000D01*
%TO.C,D14*%
X123728000Y-119372000D02*
X123728000Y-118372000D01*
X123728000Y-118372000D02*
X121628000Y-118372000D01*
X123728000Y-119372000D02*
X121628000Y-119372000D01*
%TO.C,D12*%
X128554000Y-119372000D02*
X128554000Y-118372000D01*
X128554000Y-118372000D02*
X126454000Y-118372000D01*
X128554000Y-119372000D02*
X126454000Y-119372000D01*
%TO.C,D10*%
X133380000Y-119372000D02*
X133380000Y-118372000D01*
X133380000Y-118372000D02*
X131280000Y-118372000D01*
X133380000Y-119372000D02*
X131280000Y-119372000D01*
%TO.C,D8*%
X138206000Y-119372000D02*
X138206000Y-118372000D01*
X138206000Y-118372000D02*
X136106000Y-118372000D01*
X138206000Y-119372000D02*
X136106000Y-119372000D01*
%TO.C,D6*%
X143032000Y-119372000D02*
X143032000Y-118372000D01*
X143032000Y-118372000D02*
X140932000Y-118372000D01*
X143032000Y-119372000D02*
X140932000Y-119372000D01*
%TO.C,D4*%
X147858000Y-119372000D02*
X147858000Y-118372000D01*
X147858000Y-118372000D02*
X145758000Y-118372000D01*
X147858000Y-119372000D02*
X145758000Y-119372000D01*
%TO.C,D2*%
X152646000Y-119372000D02*
X152646000Y-118372000D01*
X152646000Y-118372000D02*
X150546000Y-118372000D01*
X152646000Y-119372000D02*
X150546000Y-119372000D01*
%TO.C,J1*%
D10*
X145970666Y-127976380D02*
X145970666Y-128690666D01*
X145923047Y-128833523D01*
X145827809Y-128928761D01*
X145684952Y-128976380D01*
X145589714Y-128976380D01*
X146970666Y-128976380D02*
X146399238Y-128976380D01*
X146684952Y-128976380D02*
X146684952Y-127976380D01*
X146589714Y-128119238D01*
X146494476Y-128214476D01*
X146399238Y-128262095D01*
%TO.C,H2*%
X149098095Y-92718380D02*
X149098095Y-91718380D01*
X149098095Y-92194571D02*
X149669523Y-92194571D01*
X149669523Y-92718380D02*
X149669523Y-91718380D01*
X150098095Y-91813619D02*
X150145714Y-91766000D01*
X150240952Y-91718380D01*
X150479047Y-91718380D01*
X150574285Y-91766000D01*
X150621904Y-91813619D01*
X150669523Y-91908857D01*
X150669523Y-92004095D01*
X150621904Y-92146952D01*
X150050476Y-92718380D01*
X150669523Y-92718380D01*
%TO.C,H1*%
X119126095Y-92718380D02*
X119126095Y-91718380D01*
X119126095Y-92194571D02*
X119697523Y-92194571D01*
X119697523Y-92718380D02*
X119697523Y-91718380D01*
X120697523Y-92718380D02*
X120126095Y-92718380D01*
X120411809Y-92718380D02*
X120411809Y-91718380D01*
X120316571Y-91861238D01*
X120221333Y-91956476D01*
X120126095Y-92004095D01*
%TO.C,Q7*%
X125475619Y-107791238D02*
X125428000Y-107886476D01*
X125332761Y-107981714D01*
X125189904Y-108124571D01*
X125142285Y-108219809D01*
X125142285Y-108315047D01*
X125380380Y-108267428D02*
X125332761Y-108362666D01*
X125237523Y-108457904D01*
X125047047Y-108505523D01*
X124713714Y-108505523D01*
X124523238Y-108457904D01*
X124428000Y-108362666D01*
X124380380Y-108267428D01*
X124380380Y-108076952D01*
X124428000Y-107981714D01*
X124523238Y-107886476D01*
X124713714Y-107838857D01*
X125047047Y-107838857D01*
X125237523Y-107886476D01*
X125332761Y-107981714D01*
X125380380Y-108076952D01*
X125380380Y-108267428D01*
X124380380Y-107505523D02*
X124380380Y-106838857D01*
X125380380Y-107267428D01*
%TO.C,D15*%
X120594380Y-112212285D02*
X119594380Y-112212285D01*
X119594380Y-111974190D01*
X119642000Y-111831333D01*
X119737238Y-111736095D01*
X119832476Y-111688476D01*
X120022952Y-111640857D01*
X120165809Y-111640857D01*
X120356285Y-111688476D01*
X120451523Y-111736095D01*
X120546761Y-111831333D01*
X120594380Y-111974190D01*
X120594380Y-112212285D01*
X120594380Y-110688476D02*
X120594380Y-111259904D01*
X120594380Y-110974190D02*
X119594380Y-110974190D01*
X119737238Y-111069428D01*
X119832476Y-111164666D01*
X119880095Y-111259904D01*
X119594380Y-109783714D02*
X119594380Y-110259904D01*
X120070571Y-110307523D01*
X120022952Y-110259904D01*
X119975333Y-110164666D01*
X119975333Y-109926571D01*
X120022952Y-109831333D01*
X120070571Y-109783714D01*
X120165809Y-109736095D01*
X120403904Y-109736095D01*
X120499142Y-109783714D01*
X120546761Y-109831333D01*
X120594380Y-109926571D01*
X120594380Y-110164666D01*
X120546761Y-110259904D01*
X120499142Y-110307523D01*
%TO.C,D13*%
X125166380Y-112212285D02*
X124166380Y-112212285D01*
X124166380Y-111974190D01*
X124214000Y-111831333D01*
X124309238Y-111736095D01*
X124404476Y-111688476D01*
X124594952Y-111640857D01*
X124737809Y-111640857D01*
X124928285Y-111688476D01*
X125023523Y-111736095D01*
X125118761Y-111831333D01*
X125166380Y-111974190D01*
X125166380Y-112212285D01*
X125166380Y-110688476D02*
X125166380Y-111259904D01*
X125166380Y-110974190D02*
X124166380Y-110974190D01*
X124309238Y-111069428D01*
X124404476Y-111164666D01*
X124452095Y-111259904D01*
X124166380Y-110355142D02*
X124166380Y-109736095D01*
X124547333Y-110069428D01*
X124547333Y-109926571D01*
X124594952Y-109831333D01*
X124642571Y-109783714D01*
X124737809Y-109736095D01*
X124975904Y-109736095D01*
X125071142Y-109783714D01*
X125118761Y-109831333D01*
X125166380Y-109926571D01*
X125166380Y-110212285D01*
X125118761Y-110307523D01*
X125071142Y-110355142D01*
%TO.C,D11*%
X129738380Y-112212285D02*
X128738380Y-112212285D01*
X128738380Y-111974190D01*
X128786000Y-111831333D01*
X128881238Y-111736095D01*
X128976476Y-111688476D01*
X129166952Y-111640857D01*
X129309809Y-111640857D01*
X129500285Y-111688476D01*
X129595523Y-111736095D01*
X129690761Y-111831333D01*
X129738380Y-111974190D01*
X129738380Y-112212285D01*
X129738380Y-110688476D02*
X129738380Y-111259904D01*
X129738380Y-110974190D02*
X128738380Y-110974190D01*
X128881238Y-111069428D01*
X128976476Y-111164666D01*
X129024095Y-111259904D01*
X129738380Y-109736095D02*
X129738380Y-110307523D01*
X129738380Y-110021809D02*
X128738380Y-110021809D01*
X128881238Y-110117047D01*
X128976476Y-110212285D01*
X129024095Y-110307523D01*
%TO.C,D9*%
X134564380Y-111736095D02*
X133564380Y-111736095D01*
X133564380Y-111498000D01*
X133612000Y-111355142D01*
X133707238Y-111259904D01*
X133802476Y-111212285D01*
X133992952Y-111164666D01*
X134135809Y-111164666D01*
X134326285Y-111212285D01*
X134421523Y-111259904D01*
X134516761Y-111355142D01*
X134564380Y-111498000D01*
X134564380Y-111736095D01*
X134564380Y-110688476D02*
X134564380Y-110498000D01*
X134516761Y-110402761D01*
X134469142Y-110355142D01*
X134326285Y-110259904D01*
X134135809Y-110212285D01*
X133754857Y-110212285D01*
X133659619Y-110259904D01*
X133612000Y-110307523D01*
X133564380Y-110402761D01*
X133564380Y-110593238D01*
X133612000Y-110688476D01*
X133659619Y-110736095D01*
X133754857Y-110783714D01*
X133992952Y-110783714D01*
X134088190Y-110736095D01*
X134135809Y-110688476D01*
X134183428Y-110593238D01*
X134183428Y-110402761D01*
X134135809Y-110307523D01*
X134088190Y-110259904D01*
X133992952Y-110212285D01*
%TO.C,D7*%
X139390380Y-111736095D02*
X138390380Y-111736095D01*
X138390380Y-111498000D01*
X138438000Y-111355142D01*
X138533238Y-111259904D01*
X138628476Y-111212285D01*
X138818952Y-111164666D01*
X138961809Y-111164666D01*
X139152285Y-111212285D01*
X139247523Y-111259904D01*
X139342761Y-111355142D01*
X139390380Y-111498000D01*
X139390380Y-111736095D01*
X138390380Y-110831333D02*
X138390380Y-110164666D01*
X139390380Y-110593238D01*
%TO.C,D5*%
X144470380Y-111736095D02*
X143470380Y-111736095D01*
X143470380Y-111498000D01*
X143518000Y-111355142D01*
X143613238Y-111259904D01*
X143708476Y-111212285D01*
X143898952Y-111164666D01*
X144041809Y-111164666D01*
X144232285Y-111212285D01*
X144327523Y-111259904D01*
X144422761Y-111355142D01*
X144470380Y-111498000D01*
X144470380Y-111736095D01*
X143470380Y-110259904D02*
X143470380Y-110736095D01*
X143946571Y-110783714D01*
X143898952Y-110736095D01*
X143851333Y-110640857D01*
X143851333Y-110402761D01*
X143898952Y-110307523D01*
X143946571Y-110259904D01*
X144041809Y-110212285D01*
X144279904Y-110212285D01*
X144375142Y-110259904D01*
X144422761Y-110307523D01*
X144470380Y-110402761D01*
X144470380Y-110640857D01*
X144422761Y-110736095D01*
X144375142Y-110783714D01*
%TO.C,D3*%
X148788380Y-111736095D02*
X147788380Y-111736095D01*
X147788380Y-111498000D01*
X147836000Y-111355142D01*
X147931238Y-111259904D01*
X148026476Y-111212285D01*
X148216952Y-111164666D01*
X148359809Y-111164666D01*
X148550285Y-111212285D01*
X148645523Y-111259904D01*
X148740761Y-111355142D01*
X148788380Y-111498000D01*
X148788380Y-111736095D01*
X147788380Y-110831333D02*
X147788380Y-110212285D01*
X148169333Y-110545619D01*
X148169333Y-110402761D01*
X148216952Y-110307523D01*
X148264571Y-110259904D01*
X148359809Y-110212285D01*
X148597904Y-110212285D01*
X148693142Y-110259904D01*
X148740761Y-110307523D01*
X148788380Y-110402761D01*
X148788380Y-110688476D01*
X148740761Y-110783714D01*
X148693142Y-110831333D01*
%TO.C,D1*%
X153868380Y-111736095D02*
X152868380Y-111736095D01*
X152868380Y-111498000D01*
X152916000Y-111355142D01*
X153011238Y-111259904D01*
X153106476Y-111212285D01*
X153296952Y-111164666D01*
X153439809Y-111164666D01*
X153630285Y-111212285D01*
X153725523Y-111259904D01*
X153820761Y-111355142D01*
X153868380Y-111498000D01*
X153868380Y-111736095D01*
X153868380Y-110212285D02*
X153868380Y-110783714D01*
X153868380Y-110498000D02*
X152868380Y-110498000D01*
X153011238Y-110593238D01*
X153106476Y-110688476D01*
X153154095Y-110783714D01*
%TO.C,R25*%
X143200380Y-96666857D02*
X142724190Y-97000190D01*
X143200380Y-97238285D02*
X142200380Y-97238285D01*
X142200380Y-96857333D01*
X142248000Y-96762095D01*
X142295619Y-96714476D01*
X142390857Y-96666857D01*
X142533714Y-96666857D01*
X142628952Y-96714476D01*
X142676571Y-96762095D01*
X142724190Y-96857333D01*
X142724190Y-97238285D01*
X142295619Y-96285904D02*
X142248000Y-96238285D01*
X142200380Y-96143047D01*
X142200380Y-95904952D01*
X142248000Y-95809714D01*
X142295619Y-95762095D01*
X142390857Y-95714476D01*
X142486095Y-95714476D01*
X142628952Y-95762095D01*
X143200380Y-96333523D01*
X143200380Y-95714476D01*
X142200380Y-94809714D02*
X142200380Y-95285904D01*
X142676571Y-95333523D01*
X142628952Y-95285904D01*
X142581333Y-95190666D01*
X142581333Y-94952571D01*
X142628952Y-94857333D01*
X142676571Y-94809714D01*
X142771809Y-94762095D01*
X143009904Y-94762095D01*
X143105142Y-94809714D01*
X143152761Y-94857333D01*
X143200380Y-94952571D01*
X143200380Y-95190666D01*
X143152761Y-95285904D01*
X143105142Y-95333523D01*
%TO.C,R24*%
X116959142Y-123896380D02*
X116625809Y-123420190D01*
X116387714Y-123896380D02*
X116387714Y-122896380D01*
X116768666Y-122896380D01*
X116863904Y-122944000D01*
X116911523Y-122991619D01*
X116959142Y-123086857D01*
X116959142Y-123229714D01*
X116911523Y-123324952D01*
X116863904Y-123372571D01*
X116768666Y-123420190D01*
X116387714Y-123420190D01*
X117340095Y-122991619D02*
X117387714Y-122944000D01*
X117482952Y-122896380D01*
X117721047Y-122896380D01*
X117816285Y-122944000D01*
X117863904Y-122991619D01*
X117911523Y-123086857D01*
X117911523Y-123182095D01*
X117863904Y-123324952D01*
X117292476Y-123896380D01*
X117911523Y-123896380D01*
X118768666Y-123229714D02*
X118768666Y-123896380D01*
X118530571Y-122848761D02*
X118292476Y-123563047D01*
X118911523Y-123563047D01*
%TO.C,R23*%
X117467142Y-102052380D02*
X117133809Y-101576190D01*
X116895714Y-102052380D02*
X116895714Y-101052380D01*
X117276666Y-101052380D01*
X117371904Y-101100000D01*
X117419523Y-101147619D01*
X117467142Y-101242857D01*
X117467142Y-101385714D01*
X117419523Y-101480952D01*
X117371904Y-101528571D01*
X117276666Y-101576190D01*
X116895714Y-101576190D01*
X117848095Y-101147619D02*
X117895714Y-101100000D01*
X117990952Y-101052380D01*
X118229047Y-101052380D01*
X118324285Y-101100000D01*
X118371904Y-101147619D01*
X118419523Y-101242857D01*
X118419523Y-101338095D01*
X118371904Y-101480952D01*
X117800476Y-102052380D01*
X118419523Y-102052380D01*
X118752857Y-101052380D02*
X119371904Y-101052380D01*
X119038571Y-101433333D01*
X119181428Y-101433333D01*
X119276666Y-101480952D01*
X119324285Y-101528571D01*
X119371904Y-101623809D01*
X119371904Y-101861904D01*
X119324285Y-101957142D01*
X119276666Y-102004761D01*
X119181428Y-102052380D01*
X118895714Y-102052380D01*
X118800476Y-102004761D01*
X118752857Y-101957142D01*
%TO.C,R22*%
X117467142Y-103576380D02*
X117133809Y-103100190D01*
X116895714Y-103576380D02*
X116895714Y-102576380D01*
X117276666Y-102576380D01*
X117371904Y-102624000D01*
X117419523Y-102671619D01*
X117467142Y-102766857D01*
X117467142Y-102909714D01*
X117419523Y-103004952D01*
X117371904Y-103052571D01*
X117276666Y-103100190D01*
X116895714Y-103100190D01*
X117848095Y-102671619D02*
X117895714Y-102624000D01*
X117990952Y-102576380D01*
X118229047Y-102576380D01*
X118324285Y-102624000D01*
X118371904Y-102671619D01*
X118419523Y-102766857D01*
X118419523Y-102862095D01*
X118371904Y-103004952D01*
X117800476Y-103576380D01*
X118419523Y-103576380D01*
X118800476Y-102671619D02*
X118848095Y-102624000D01*
X118943333Y-102576380D01*
X119181428Y-102576380D01*
X119276666Y-102624000D01*
X119324285Y-102671619D01*
X119371904Y-102766857D01*
X119371904Y-102862095D01*
X119324285Y-103004952D01*
X118752857Y-103576380D01*
X119371904Y-103576380D01*
%TO.C,R21*%
X121785142Y-123896380D02*
X121451809Y-123420190D01*
X121213714Y-123896380D02*
X121213714Y-122896380D01*
X121594666Y-122896380D01*
X121689904Y-122944000D01*
X121737523Y-122991619D01*
X121785142Y-123086857D01*
X121785142Y-123229714D01*
X121737523Y-123324952D01*
X121689904Y-123372571D01*
X121594666Y-123420190D01*
X121213714Y-123420190D01*
X122166095Y-122991619D02*
X122213714Y-122944000D01*
X122308952Y-122896380D01*
X122547047Y-122896380D01*
X122642285Y-122944000D01*
X122689904Y-122991619D01*
X122737523Y-123086857D01*
X122737523Y-123182095D01*
X122689904Y-123324952D01*
X122118476Y-123896380D01*
X122737523Y-123896380D01*
X123689904Y-123896380D02*
X123118476Y-123896380D01*
X123404190Y-123896380D02*
X123404190Y-122896380D01*
X123308952Y-123039238D01*
X123213714Y-123134476D01*
X123118476Y-123182095D01*
%TO.C,R20*%
X122293142Y-102052380D02*
X121959809Y-101576190D01*
X121721714Y-102052380D02*
X121721714Y-101052380D01*
X122102666Y-101052380D01*
X122197904Y-101100000D01*
X122245523Y-101147619D01*
X122293142Y-101242857D01*
X122293142Y-101385714D01*
X122245523Y-101480952D01*
X122197904Y-101528571D01*
X122102666Y-101576190D01*
X121721714Y-101576190D01*
X122674095Y-101147619D02*
X122721714Y-101100000D01*
X122816952Y-101052380D01*
X123055047Y-101052380D01*
X123150285Y-101100000D01*
X123197904Y-101147619D01*
X123245523Y-101242857D01*
X123245523Y-101338095D01*
X123197904Y-101480952D01*
X122626476Y-102052380D01*
X123245523Y-102052380D01*
X123864571Y-101052380D02*
X123959809Y-101052380D01*
X124055047Y-101100000D01*
X124102666Y-101147619D01*
X124150285Y-101242857D01*
X124197904Y-101433333D01*
X124197904Y-101671428D01*
X124150285Y-101861904D01*
X124102666Y-101957142D01*
X124055047Y-102004761D01*
X123959809Y-102052380D01*
X123864571Y-102052380D01*
X123769333Y-102004761D01*
X123721714Y-101957142D01*
X123674095Y-101861904D01*
X123626476Y-101671428D01*
X123626476Y-101433333D01*
X123674095Y-101242857D01*
X123721714Y-101147619D01*
X123769333Y-101100000D01*
X123864571Y-101052380D01*
%TO.C,R19*%
X122293142Y-103576380D02*
X121959809Y-103100190D01*
X121721714Y-103576380D02*
X121721714Y-102576380D01*
X122102666Y-102576380D01*
X122197904Y-102624000D01*
X122245523Y-102671619D01*
X122293142Y-102766857D01*
X122293142Y-102909714D01*
X122245523Y-103004952D01*
X122197904Y-103052571D01*
X122102666Y-103100190D01*
X121721714Y-103100190D01*
X123245523Y-103576380D02*
X122674095Y-103576380D01*
X122959809Y-103576380D02*
X122959809Y-102576380D01*
X122864571Y-102719238D01*
X122769333Y-102814476D01*
X122674095Y-102862095D01*
X123721714Y-103576380D02*
X123912190Y-103576380D01*
X124007428Y-103528761D01*
X124055047Y-103481142D01*
X124150285Y-103338285D01*
X124197904Y-103147809D01*
X124197904Y-102766857D01*
X124150285Y-102671619D01*
X124102666Y-102624000D01*
X124007428Y-102576380D01*
X123816952Y-102576380D01*
X123721714Y-102624000D01*
X123674095Y-102671619D01*
X123626476Y-102766857D01*
X123626476Y-103004952D01*
X123674095Y-103100190D01*
X123721714Y-103147809D01*
X123816952Y-103195428D01*
X124007428Y-103195428D01*
X124102666Y-103147809D01*
X124150285Y-103100190D01*
X124197904Y-103004952D01*
%TO.C,R18*%
X126611142Y-123896380D02*
X126277809Y-123420190D01*
X126039714Y-123896380D02*
X126039714Y-122896380D01*
X126420666Y-122896380D01*
X126515904Y-122944000D01*
X126563523Y-122991619D01*
X126611142Y-123086857D01*
X126611142Y-123229714D01*
X126563523Y-123324952D01*
X126515904Y-123372571D01*
X126420666Y-123420190D01*
X126039714Y-123420190D01*
X127563523Y-123896380D02*
X126992095Y-123896380D01*
X127277809Y-123896380D02*
X127277809Y-122896380D01*
X127182571Y-123039238D01*
X127087333Y-123134476D01*
X126992095Y-123182095D01*
X128134952Y-123324952D02*
X128039714Y-123277333D01*
X127992095Y-123229714D01*
X127944476Y-123134476D01*
X127944476Y-123086857D01*
X127992095Y-122991619D01*
X128039714Y-122944000D01*
X128134952Y-122896380D01*
X128325428Y-122896380D01*
X128420666Y-122944000D01*
X128468285Y-122991619D01*
X128515904Y-123086857D01*
X128515904Y-123134476D01*
X128468285Y-123229714D01*
X128420666Y-123277333D01*
X128325428Y-123324952D01*
X128134952Y-123324952D01*
X128039714Y-123372571D01*
X127992095Y-123420190D01*
X127944476Y-123515428D01*
X127944476Y-123705904D01*
X127992095Y-123801142D01*
X128039714Y-123848761D01*
X128134952Y-123896380D01*
X128325428Y-123896380D01*
X128420666Y-123848761D01*
X128468285Y-123801142D01*
X128515904Y-123705904D01*
X128515904Y-123515428D01*
X128468285Y-123420190D01*
X128420666Y-123372571D01*
X128325428Y-123324952D01*
%TO.C,R17*%
X127119142Y-102052380D02*
X126785809Y-101576190D01*
X126547714Y-102052380D02*
X126547714Y-101052380D01*
X126928666Y-101052380D01*
X127023904Y-101100000D01*
X127071523Y-101147619D01*
X127119142Y-101242857D01*
X127119142Y-101385714D01*
X127071523Y-101480952D01*
X127023904Y-101528571D01*
X126928666Y-101576190D01*
X126547714Y-101576190D01*
X128071523Y-102052380D02*
X127500095Y-102052380D01*
X127785809Y-102052380D02*
X127785809Y-101052380D01*
X127690571Y-101195238D01*
X127595333Y-101290476D01*
X127500095Y-101338095D01*
X128404857Y-101052380D02*
X129071523Y-101052380D01*
X128642952Y-102052380D01*
%TO.C,R16*%
X127119142Y-103576380D02*
X126785809Y-103100190D01*
X126547714Y-103576380D02*
X126547714Y-102576380D01*
X126928666Y-102576380D01*
X127023904Y-102624000D01*
X127071523Y-102671619D01*
X127119142Y-102766857D01*
X127119142Y-102909714D01*
X127071523Y-103004952D01*
X127023904Y-103052571D01*
X126928666Y-103100190D01*
X126547714Y-103100190D01*
X128071523Y-103576380D02*
X127500095Y-103576380D01*
X127785809Y-103576380D02*
X127785809Y-102576380D01*
X127690571Y-102719238D01*
X127595333Y-102814476D01*
X127500095Y-102862095D01*
X128928666Y-102576380D02*
X128738190Y-102576380D01*
X128642952Y-102624000D01*
X128595333Y-102671619D01*
X128500095Y-102814476D01*
X128452476Y-103004952D01*
X128452476Y-103385904D01*
X128500095Y-103481142D01*
X128547714Y-103528761D01*
X128642952Y-103576380D01*
X128833428Y-103576380D01*
X128928666Y-103528761D01*
X128976285Y-103481142D01*
X129023904Y-103385904D01*
X129023904Y-103147809D01*
X128976285Y-103052571D01*
X128928666Y-103004952D01*
X128833428Y-102957333D01*
X128642952Y-102957333D01*
X128547714Y-103004952D01*
X128500095Y-103052571D01*
X128452476Y-103147809D01*
%TO.C,R15*%
X131437142Y-123896380D02*
X131103809Y-123420190D01*
X130865714Y-123896380D02*
X130865714Y-122896380D01*
X131246666Y-122896380D01*
X131341904Y-122944000D01*
X131389523Y-122991619D01*
X131437142Y-123086857D01*
X131437142Y-123229714D01*
X131389523Y-123324952D01*
X131341904Y-123372571D01*
X131246666Y-123420190D01*
X130865714Y-123420190D01*
X132389523Y-123896380D02*
X131818095Y-123896380D01*
X132103809Y-123896380D02*
X132103809Y-122896380D01*
X132008571Y-123039238D01*
X131913333Y-123134476D01*
X131818095Y-123182095D01*
X133294285Y-122896380D02*
X132818095Y-122896380D01*
X132770476Y-123372571D01*
X132818095Y-123324952D01*
X132913333Y-123277333D01*
X133151428Y-123277333D01*
X133246666Y-123324952D01*
X133294285Y-123372571D01*
X133341904Y-123467809D01*
X133341904Y-123705904D01*
X133294285Y-123801142D01*
X133246666Y-123848761D01*
X133151428Y-123896380D01*
X132913333Y-123896380D01*
X132818095Y-123848761D01*
X132770476Y-123801142D01*
%TO.C,R14*%
X131945142Y-102052380D02*
X131611809Y-101576190D01*
X131373714Y-102052380D02*
X131373714Y-101052380D01*
X131754666Y-101052380D01*
X131849904Y-101100000D01*
X131897523Y-101147619D01*
X131945142Y-101242857D01*
X131945142Y-101385714D01*
X131897523Y-101480952D01*
X131849904Y-101528571D01*
X131754666Y-101576190D01*
X131373714Y-101576190D01*
X132897523Y-102052380D02*
X132326095Y-102052380D01*
X132611809Y-102052380D02*
X132611809Y-101052380D01*
X132516571Y-101195238D01*
X132421333Y-101290476D01*
X132326095Y-101338095D01*
X133754666Y-101385714D02*
X133754666Y-102052380D01*
X133516571Y-101004761D02*
X133278476Y-101719047D01*
X133897523Y-101719047D01*
%TO.C,R13*%
X131945142Y-103576380D02*
X131611809Y-103100190D01*
X131373714Y-103576380D02*
X131373714Y-102576380D01*
X131754666Y-102576380D01*
X131849904Y-102624000D01*
X131897523Y-102671619D01*
X131945142Y-102766857D01*
X131945142Y-102909714D01*
X131897523Y-103004952D01*
X131849904Y-103052571D01*
X131754666Y-103100190D01*
X131373714Y-103100190D01*
X132897523Y-103576380D02*
X132326095Y-103576380D01*
X132611809Y-103576380D02*
X132611809Y-102576380D01*
X132516571Y-102719238D01*
X132421333Y-102814476D01*
X132326095Y-102862095D01*
X133230857Y-102576380D02*
X133849904Y-102576380D01*
X133516571Y-102957333D01*
X133659428Y-102957333D01*
X133754666Y-103004952D01*
X133802285Y-103052571D01*
X133849904Y-103147809D01*
X133849904Y-103385904D01*
X133802285Y-103481142D01*
X133754666Y-103528761D01*
X133659428Y-103576380D01*
X133373714Y-103576380D01*
X133278476Y-103528761D01*
X133230857Y-103481142D01*
%TO.C,R12*%
X136263142Y-123896380D02*
X135929809Y-123420190D01*
X135691714Y-123896380D02*
X135691714Y-122896380D01*
X136072666Y-122896380D01*
X136167904Y-122944000D01*
X136215523Y-122991619D01*
X136263142Y-123086857D01*
X136263142Y-123229714D01*
X136215523Y-123324952D01*
X136167904Y-123372571D01*
X136072666Y-123420190D01*
X135691714Y-123420190D01*
X137215523Y-123896380D02*
X136644095Y-123896380D01*
X136929809Y-123896380D02*
X136929809Y-122896380D01*
X136834571Y-123039238D01*
X136739333Y-123134476D01*
X136644095Y-123182095D01*
X137596476Y-122991619D02*
X137644095Y-122944000D01*
X137739333Y-122896380D01*
X137977428Y-122896380D01*
X138072666Y-122944000D01*
X138120285Y-122991619D01*
X138167904Y-123086857D01*
X138167904Y-123182095D01*
X138120285Y-123324952D01*
X137548857Y-123896380D01*
X138167904Y-123896380D01*
%TO.C,R11*%
X136771142Y-102052380D02*
X136437809Y-101576190D01*
X136199714Y-102052380D02*
X136199714Y-101052380D01*
X136580666Y-101052380D01*
X136675904Y-101100000D01*
X136723523Y-101147619D01*
X136771142Y-101242857D01*
X136771142Y-101385714D01*
X136723523Y-101480952D01*
X136675904Y-101528571D01*
X136580666Y-101576190D01*
X136199714Y-101576190D01*
X137723523Y-102052380D02*
X137152095Y-102052380D01*
X137437809Y-102052380D02*
X137437809Y-101052380D01*
X137342571Y-101195238D01*
X137247333Y-101290476D01*
X137152095Y-101338095D01*
X138675904Y-102052380D02*
X138104476Y-102052380D01*
X138390190Y-102052380D02*
X138390190Y-101052380D01*
X138294952Y-101195238D01*
X138199714Y-101290476D01*
X138104476Y-101338095D01*
%TO.C,R10*%
X136771142Y-103576380D02*
X136437809Y-103100190D01*
X136199714Y-103576380D02*
X136199714Y-102576380D01*
X136580666Y-102576380D01*
X136675904Y-102624000D01*
X136723523Y-102671619D01*
X136771142Y-102766857D01*
X136771142Y-102909714D01*
X136723523Y-103004952D01*
X136675904Y-103052571D01*
X136580666Y-103100190D01*
X136199714Y-103100190D01*
X137723523Y-103576380D02*
X137152095Y-103576380D01*
X137437809Y-103576380D02*
X137437809Y-102576380D01*
X137342571Y-102719238D01*
X137247333Y-102814476D01*
X137152095Y-102862095D01*
X138342571Y-102576380D02*
X138437809Y-102576380D01*
X138533047Y-102624000D01*
X138580666Y-102671619D01*
X138628285Y-102766857D01*
X138675904Y-102957333D01*
X138675904Y-103195428D01*
X138628285Y-103385904D01*
X138580666Y-103481142D01*
X138533047Y-103528761D01*
X138437809Y-103576380D01*
X138342571Y-103576380D01*
X138247333Y-103528761D01*
X138199714Y-103481142D01*
X138152095Y-103385904D01*
X138104476Y-103195428D01*
X138104476Y-102957333D01*
X138152095Y-102766857D01*
X138199714Y-102671619D01*
X138247333Y-102624000D01*
X138342571Y-102576380D01*
%TO.C,R9*%
X141565333Y-123896380D02*
X141232000Y-123420190D01*
X140993904Y-123896380D02*
X140993904Y-122896380D01*
X141374857Y-122896380D01*
X141470095Y-122944000D01*
X141517714Y-122991619D01*
X141565333Y-123086857D01*
X141565333Y-123229714D01*
X141517714Y-123324952D01*
X141470095Y-123372571D01*
X141374857Y-123420190D01*
X140993904Y-123420190D01*
X142041523Y-123896380D02*
X142232000Y-123896380D01*
X142327238Y-123848761D01*
X142374857Y-123801142D01*
X142470095Y-123658285D01*
X142517714Y-123467809D01*
X142517714Y-123086857D01*
X142470095Y-122991619D01*
X142422476Y-122944000D01*
X142327238Y-122896380D01*
X142136761Y-122896380D01*
X142041523Y-122944000D01*
X141993904Y-122991619D01*
X141946285Y-123086857D01*
X141946285Y-123324952D01*
X141993904Y-123420190D01*
X142041523Y-123467809D01*
X142136761Y-123515428D01*
X142327238Y-123515428D01*
X142422476Y-123467809D01*
X142470095Y-123420190D01*
X142517714Y-123324952D01*
%TO.C,R8*%
X142073333Y-102052380D02*
X141740000Y-101576190D01*
X141501904Y-102052380D02*
X141501904Y-101052380D01*
X141882857Y-101052380D01*
X141978095Y-101100000D01*
X142025714Y-101147619D01*
X142073333Y-101242857D01*
X142073333Y-101385714D01*
X142025714Y-101480952D01*
X141978095Y-101528571D01*
X141882857Y-101576190D01*
X141501904Y-101576190D01*
X142644761Y-101480952D02*
X142549523Y-101433333D01*
X142501904Y-101385714D01*
X142454285Y-101290476D01*
X142454285Y-101242857D01*
X142501904Y-101147619D01*
X142549523Y-101100000D01*
X142644761Y-101052380D01*
X142835238Y-101052380D01*
X142930476Y-101100000D01*
X142978095Y-101147619D01*
X143025714Y-101242857D01*
X143025714Y-101290476D01*
X142978095Y-101385714D01*
X142930476Y-101433333D01*
X142835238Y-101480952D01*
X142644761Y-101480952D01*
X142549523Y-101528571D01*
X142501904Y-101576190D01*
X142454285Y-101671428D01*
X142454285Y-101861904D01*
X142501904Y-101957142D01*
X142549523Y-102004761D01*
X142644761Y-102052380D01*
X142835238Y-102052380D01*
X142930476Y-102004761D01*
X142978095Y-101957142D01*
X143025714Y-101861904D01*
X143025714Y-101671428D01*
X142978095Y-101576190D01*
X142930476Y-101528571D01*
X142835238Y-101480952D01*
%TO.C,R7*%
X142073333Y-103576380D02*
X141740000Y-103100190D01*
X141501904Y-103576380D02*
X141501904Y-102576380D01*
X141882857Y-102576380D01*
X141978095Y-102624000D01*
X142025714Y-102671619D01*
X142073333Y-102766857D01*
X142073333Y-102909714D01*
X142025714Y-103004952D01*
X141978095Y-103052571D01*
X141882857Y-103100190D01*
X141501904Y-103100190D01*
X142406666Y-102576380D02*
X143073333Y-102576380D01*
X142644761Y-103576380D01*
%TO.C,R6*%
X146391333Y-123896380D02*
X146058000Y-123420190D01*
X145819904Y-123896380D02*
X145819904Y-122896380D01*
X146200857Y-122896380D01*
X146296095Y-122944000D01*
X146343714Y-122991619D01*
X146391333Y-123086857D01*
X146391333Y-123229714D01*
X146343714Y-123324952D01*
X146296095Y-123372571D01*
X146200857Y-123420190D01*
X145819904Y-123420190D01*
X147248476Y-122896380D02*
X147058000Y-122896380D01*
X146962761Y-122944000D01*
X146915142Y-122991619D01*
X146819904Y-123134476D01*
X146772285Y-123324952D01*
X146772285Y-123705904D01*
X146819904Y-123801142D01*
X146867523Y-123848761D01*
X146962761Y-123896380D01*
X147153238Y-123896380D01*
X147248476Y-123848761D01*
X147296095Y-123801142D01*
X147343714Y-123705904D01*
X147343714Y-123467809D01*
X147296095Y-123372571D01*
X147248476Y-123324952D01*
X147153238Y-123277333D01*
X146962761Y-123277333D01*
X146867523Y-123324952D01*
X146819904Y-123372571D01*
X146772285Y-123467809D01*
%TO.C,R5*%
X146899333Y-102052380D02*
X146566000Y-101576190D01*
X146327904Y-102052380D02*
X146327904Y-101052380D01*
X146708857Y-101052380D01*
X146804095Y-101100000D01*
X146851714Y-101147619D01*
X146899333Y-101242857D01*
X146899333Y-101385714D01*
X146851714Y-101480952D01*
X146804095Y-101528571D01*
X146708857Y-101576190D01*
X146327904Y-101576190D01*
X147804095Y-101052380D02*
X147327904Y-101052380D01*
X147280285Y-101528571D01*
X147327904Y-101480952D01*
X147423142Y-101433333D01*
X147661238Y-101433333D01*
X147756476Y-101480952D01*
X147804095Y-101528571D01*
X147851714Y-101623809D01*
X147851714Y-101861904D01*
X147804095Y-101957142D01*
X147756476Y-102004761D01*
X147661238Y-102052380D01*
X147423142Y-102052380D01*
X147327904Y-102004761D01*
X147280285Y-101957142D01*
%TO.C,R4*%
X146899333Y-103576380D02*
X146566000Y-103100190D01*
X146327904Y-103576380D02*
X146327904Y-102576380D01*
X146708857Y-102576380D01*
X146804095Y-102624000D01*
X146851714Y-102671619D01*
X146899333Y-102766857D01*
X146899333Y-102909714D01*
X146851714Y-103004952D01*
X146804095Y-103052571D01*
X146708857Y-103100190D01*
X146327904Y-103100190D01*
X147756476Y-102909714D02*
X147756476Y-103576380D01*
X147518380Y-102528761D02*
X147280285Y-103243047D01*
X147899333Y-103243047D01*
%TO.C,R3*%
X151217333Y-123896380D02*
X150884000Y-123420190D01*
X150645904Y-123896380D02*
X150645904Y-122896380D01*
X151026857Y-122896380D01*
X151122095Y-122944000D01*
X151169714Y-122991619D01*
X151217333Y-123086857D01*
X151217333Y-123229714D01*
X151169714Y-123324952D01*
X151122095Y-123372571D01*
X151026857Y-123420190D01*
X150645904Y-123420190D01*
X151550666Y-122896380D02*
X152169714Y-122896380D01*
X151836380Y-123277333D01*
X151979238Y-123277333D01*
X152074476Y-123324952D01*
X152122095Y-123372571D01*
X152169714Y-123467809D01*
X152169714Y-123705904D01*
X152122095Y-123801142D01*
X152074476Y-123848761D01*
X151979238Y-123896380D01*
X151693523Y-123896380D01*
X151598285Y-123848761D01*
X151550666Y-123801142D01*
%TO.C,R2*%
X151725333Y-103576380D02*
X151392000Y-103100190D01*
X151153904Y-103576380D02*
X151153904Y-102576380D01*
X151534857Y-102576380D01*
X151630095Y-102624000D01*
X151677714Y-102671619D01*
X151725333Y-102766857D01*
X151725333Y-102909714D01*
X151677714Y-103004952D01*
X151630095Y-103052571D01*
X151534857Y-103100190D01*
X151153904Y-103100190D01*
X152106285Y-102671619D02*
X152153904Y-102624000D01*
X152249142Y-102576380D01*
X152487238Y-102576380D01*
X152582476Y-102624000D01*
X152630095Y-102671619D01*
X152677714Y-102766857D01*
X152677714Y-102862095D01*
X152630095Y-103004952D01*
X152058666Y-103576380D01*
X152677714Y-103576380D01*
%TO.C,R1*%
X151725333Y-102052380D02*
X151392000Y-101576190D01*
X151153904Y-102052380D02*
X151153904Y-101052380D01*
X151534857Y-101052380D01*
X151630095Y-101100000D01*
X151677714Y-101147619D01*
X151725333Y-101242857D01*
X151725333Y-101385714D01*
X151677714Y-101480952D01*
X151630095Y-101528571D01*
X151534857Y-101576190D01*
X151153904Y-101576190D01*
X152677714Y-102052380D02*
X152106285Y-102052380D01*
X152392000Y-102052380D02*
X152392000Y-101052380D01*
X152296761Y-101195238D01*
X152201523Y-101290476D01*
X152106285Y-101338095D01*
%TO.C,Q8*%
X120689619Y-107791238D02*
X120642000Y-107886476D01*
X120546761Y-107981714D01*
X120403904Y-108124571D01*
X120356285Y-108219809D01*
X120356285Y-108315047D01*
X120594380Y-108267428D02*
X120546761Y-108362666D01*
X120451523Y-108457904D01*
X120261047Y-108505523D01*
X119927714Y-108505523D01*
X119737238Y-108457904D01*
X119642000Y-108362666D01*
X119594380Y-108267428D01*
X119594380Y-108076952D01*
X119642000Y-107981714D01*
X119737238Y-107886476D01*
X119927714Y-107838857D01*
X120261047Y-107838857D01*
X120451523Y-107886476D01*
X120546761Y-107981714D01*
X120594380Y-108076952D01*
X120594380Y-108267428D01*
X120022952Y-107267428D02*
X119975333Y-107362666D01*
X119927714Y-107410285D01*
X119832476Y-107457904D01*
X119784857Y-107457904D01*
X119689619Y-107410285D01*
X119642000Y-107362666D01*
X119594380Y-107267428D01*
X119594380Y-107076952D01*
X119642000Y-106981714D01*
X119689619Y-106934095D01*
X119784857Y-106886476D01*
X119832476Y-106886476D01*
X119927714Y-106934095D01*
X119975333Y-106981714D01*
X120022952Y-107076952D01*
X120022952Y-107267428D01*
X120070571Y-107362666D01*
X120118190Y-107410285D01*
X120213428Y-107457904D01*
X120403904Y-107457904D01*
X120499142Y-107410285D01*
X120546761Y-107362666D01*
X120594380Y-107267428D01*
X120594380Y-107076952D01*
X120546761Y-106981714D01*
X120499142Y-106934095D01*
X120403904Y-106886476D01*
X120213428Y-106886476D01*
X120118190Y-106934095D01*
X120070571Y-106981714D01*
X120022952Y-107076952D01*
%TO.C,Q6*%
X130301619Y-107791238D02*
X130254000Y-107886476D01*
X130158761Y-107981714D01*
X130015904Y-108124571D01*
X129968285Y-108219809D01*
X129968285Y-108315047D01*
X130206380Y-108267428D02*
X130158761Y-108362666D01*
X130063523Y-108457904D01*
X129873047Y-108505523D01*
X129539714Y-108505523D01*
X129349238Y-108457904D01*
X129254000Y-108362666D01*
X129206380Y-108267428D01*
X129206380Y-108076952D01*
X129254000Y-107981714D01*
X129349238Y-107886476D01*
X129539714Y-107838857D01*
X129873047Y-107838857D01*
X130063523Y-107886476D01*
X130158761Y-107981714D01*
X130206380Y-108076952D01*
X130206380Y-108267428D01*
X129206380Y-106981714D02*
X129206380Y-107172190D01*
X129254000Y-107267428D01*
X129301619Y-107315047D01*
X129444476Y-107410285D01*
X129634952Y-107457904D01*
X130015904Y-107457904D01*
X130111142Y-107410285D01*
X130158761Y-107362666D01*
X130206380Y-107267428D01*
X130206380Y-107076952D01*
X130158761Y-106981714D01*
X130111142Y-106934095D01*
X130015904Y-106886476D01*
X129777809Y-106886476D01*
X129682571Y-106934095D01*
X129634952Y-106981714D01*
X129587333Y-107076952D01*
X129587333Y-107267428D01*
X129634952Y-107362666D01*
X129682571Y-107410285D01*
X129777809Y-107457904D01*
%TO.C,Q5*%
X135167619Y-107791238D02*
X135120000Y-107886476D01*
X135024761Y-107981714D01*
X134881904Y-108124571D01*
X134834285Y-108219809D01*
X134834285Y-108315047D01*
X135072380Y-108267428D02*
X135024761Y-108362666D01*
X134929523Y-108457904D01*
X134739047Y-108505523D01*
X134405714Y-108505523D01*
X134215238Y-108457904D01*
X134120000Y-108362666D01*
X134072380Y-108267428D01*
X134072380Y-108076952D01*
X134120000Y-107981714D01*
X134215238Y-107886476D01*
X134405714Y-107838857D01*
X134739047Y-107838857D01*
X134929523Y-107886476D01*
X135024761Y-107981714D01*
X135072380Y-108076952D01*
X135072380Y-108267428D01*
X134072380Y-106934095D02*
X134072380Y-107410285D01*
X134548571Y-107457904D01*
X134500952Y-107410285D01*
X134453333Y-107315047D01*
X134453333Y-107076952D01*
X134500952Y-106981714D01*
X134548571Y-106934095D01*
X134643809Y-106886476D01*
X134881904Y-106886476D01*
X134977142Y-106934095D01*
X135024761Y-106981714D01*
X135072380Y-107076952D01*
X135072380Y-107315047D01*
X135024761Y-107410285D01*
X134977142Y-107457904D01*
%TO.C,Q4*%
X139993619Y-107791238D02*
X139946000Y-107886476D01*
X139850761Y-107981714D01*
X139707904Y-108124571D01*
X139660285Y-108219809D01*
X139660285Y-108315047D01*
X139898380Y-108267428D02*
X139850761Y-108362666D01*
X139755523Y-108457904D01*
X139565047Y-108505523D01*
X139231714Y-108505523D01*
X139041238Y-108457904D01*
X138946000Y-108362666D01*
X138898380Y-108267428D01*
X138898380Y-108076952D01*
X138946000Y-107981714D01*
X139041238Y-107886476D01*
X139231714Y-107838857D01*
X139565047Y-107838857D01*
X139755523Y-107886476D01*
X139850761Y-107981714D01*
X139898380Y-108076952D01*
X139898380Y-108267428D01*
X139231714Y-106981714D02*
X139898380Y-106981714D01*
X138850761Y-107219809D02*
X139565047Y-107457904D01*
X139565047Y-106838857D01*
%TO.C,Q3*%
X144819619Y-107791238D02*
X144772000Y-107886476D01*
X144676761Y-107981714D01*
X144533904Y-108124571D01*
X144486285Y-108219809D01*
X144486285Y-108315047D01*
X144724380Y-108267428D02*
X144676761Y-108362666D01*
X144581523Y-108457904D01*
X144391047Y-108505523D01*
X144057714Y-108505523D01*
X143867238Y-108457904D01*
X143772000Y-108362666D01*
X143724380Y-108267428D01*
X143724380Y-108076952D01*
X143772000Y-107981714D01*
X143867238Y-107886476D01*
X144057714Y-107838857D01*
X144391047Y-107838857D01*
X144581523Y-107886476D01*
X144676761Y-107981714D01*
X144724380Y-108076952D01*
X144724380Y-108267428D01*
X143724380Y-107505523D02*
X143724380Y-106886476D01*
X144105333Y-107219809D01*
X144105333Y-107076952D01*
X144152952Y-106981714D01*
X144200571Y-106934095D01*
X144295809Y-106886476D01*
X144533904Y-106886476D01*
X144629142Y-106934095D01*
X144676761Y-106981714D01*
X144724380Y-107076952D01*
X144724380Y-107362666D01*
X144676761Y-107457904D01*
X144629142Y-107505523D01*
%TO.C,Q2*%
X149605619Y-107791238D02*
X149558000Y-107886476D01*
X149462761Y-107981714D01*
X149319904Y-108124571D01*
X149272285Y-108219809D01*
X149272285Y-108315047D01*
X149510380Y-108267428D02*
X149462761Y-108362666D01*
X149367523Y-108457904D01*
X149177047Y-108505523D01*
X148843714Y-108505523D01*
X148653238Y-108457904D01*
X148558000Y-108362666D01*
X148510380Y-108267428D01*
X148510380Y-108076952D01*
X148558000Y-107981714D01*
X148653238Y-107886476D01*
X148843714Y-107838857D01*
X149177047Y-107838857D01*
X149367523Y-107886476D01*
X149462761Y-107981714D01*
X149510380Y-108076952D01*
X149510380Y-108267428D01*
X148605619Y-107457904D02*
X148558000Y-107410285D01*
X148510380Y-107315047D01*
X148510380Y-107076952D01*
X148558000Y-106981714D01*
X148605619Y-106934095D01*
X148700857Y-106886476D01*
X148796095Y-106886476D01*
X148938952Y-106934095D01*
X149510380Y-107505523D01*
X149510380Y-106886476D01*
%TO.C,Q1*%
X154471619Y-107791238D02*
X154424000Y-107886476D01*
X154328761Y-107981714D01*
X154185904Y-108124571D01*
X154138285Y-108219809D01*
X154138285Y-108315047D01*
X154376380Y-108267428D02*
X154328761Y-108362666D01*
X154233523Y-108457904D01*
X154043047Y-108505523D01*
X153709714Y-108505523D01*
X153519238Y-108457904D01*
X153424000Y-108362666D01*
X153376380Y-108267428D01*
X153376380Y-108076952D01*
X153424000Y-107981714D01*
X153519238Y-107886476D01*
X153709714Y-107838857D01*
X154043047Y-107838857D01*
X154233523Y-107886476D01*
X154328761Y-107981714D01*
X154376380Y-108076952D01*
X154376380Y-108267428D01*
X154376380Y-106886476D02*
X154376380Y-107457904D01*
X154376380Y-107172190D02*
X153376380Y-107172190D01*
X153519238Y-107267428D01*
X153614476Y-107362666D01*
X153662095Y-107457904D01*
%TO.C,J3*%
X119300666Y-128230380D02*
X119300666Y-128944666D01*
X119253047Y-129087523D01*
X119157809Y-129182761D01*
X119014952Y-129230380D01*
X118919714Y-129230380D01*
X119681619Y-128230380D02*
X120300666Y-128230380D01*
X119967333Y-128611333D01*
X120110190Y-128611333D01*
X120205428Y-128658952D01*
X120253047Y-128706571D01*
X120300666Y-128801809D01*
X120300666Y-129039904D01*
X120253047Y-129135142D01*
X120205428Y-129182761D01*
X120110190Y-129230380D01*
X119824476Y-129230380D01*
X119729238Y-129182761D01*
X119681619Y-129135142D01*
%TO.C,J2*%
X127936666Y-97496380D02*
X127936666Y-98210666D01*
X127889047Y-98353523D01*
X127793809Y-98448761D01*
X127650952Y-98496380D01*
X127555714Y-98496380D01*
X128365238Y-97591619D02*
X128412857Y-97544000D01*
X128508095Y-97496380D01*
X128746190Y-97496380D01*
X128841428Y-97544000D01*
X128889047Y-97591619D01*
X128936666Y-97686857D01*
X128936666Y-97782095D01*
X128889047Y-97924952D01*
X128317619Y-98496380D01*
X128936666Y-98496380D01*
%TO.C,D17*%
X143200380Y-94178285D02*
X142200380Y-94178285D01*
X142200380Y-93940190D01*
X142248000Y-93797333D01*
X142343238Y-93702095D01*
X142438476Y-93654476D01*
X142628952Y-93606857D01*
X142771809Y-93606857D01*
X142962285Y-93654476D01*
X143057523Y-93702095D01*
X143152761Y-93797333D01*
X143200380Y-93940190D01*
X143200380Y-94178285D01*
X143200380Y-92654476D02*
X143200380Y-93225904D01*
X143200380Y-92940190D02*
X142200380Y-92940190D01*
X142343238Y-93035428D01*
X142438476Y-93130666D01*
X142486095Y-93225904D01*
X142200380Y-92321142D02*
X142200380Y-91654476D01*
X143200380Y-92083047D01*
%TO.C,D16*%
X116387714Y-122372380D02*
X116387714Y-121372380D01*
X116625809Y-121372380D01*
X116768666Y-121420000D01*
X116863904Y-121515238D01*
X116911523Y-121610476D01*
X116959142Y-121800952D01*
X116959142Y-121943809D01*
X116911523Y-122134285D01*
X116863904Y-122229523D01*
X116768666Y-122324761D01*
X116625809Y-122372380D01*
X116387714Y-122372380D01*
X117911523Y-122372380D02*
X117340095Y-122372380D01*
X117625809Y-122372380D02*
X117625809Y-121372380D01*
X117530571Y-121515238D01*
X117435333Y-121610476D01*
X117340095Y-121658095D01*
X118768666Y-121372380D02*
X118578190Y-121372380D01*
X118482952Y-121420000D01*
X118435333Y-121467619D01*
X118340095Y-121610476D01*
X118292476Y-121800952D01*
X118292476Y-122181904D01*
X118340095Y-122277142D01*
X118387714Y-122324761D01*
X118482952Y-122372380D01*
X118673428Y-122372380D01*
X118768666Y-122324761D01*
X118816285Y-122277142D01*
X118863904Y-122181904D01*
X118863904Y-121943809D01*
X118816285Y-121848571D01*
X118768666Y-121800952D01*
X118673428Y-121753333D01*
X118482952Y-121753333D01*
X118387714Y-121800952D01*
X118340095Y-121848571D01*
X118292476Y-121943809D01*
%TO.C,D14*%
X121213714Y-122372380D02*
X121213714Y-121372380D01*
X121451809Y-121372380D01*
X121594666Y-121420000D01*
X121689904Y-121515238D01*
X121737523Y-121610476D01*
X121785142Y-121800952D01*
X121785142Y-121943809D01*
X121737523Y-122134285D01*
X121689904Y-122229523D01*
X121594666Y-122324761D01*
X121451809Y-122372380D01*
X121213714Y-122372380D01*
X122737523Y-122372380D02*
X122166095Y-122372380D01*
X122451809Y-122372380D02*
X122451809Y-121372380D01*
X122356571Y-121515238D01*
X122261333Y-121610476D01*
X122166095Y-121658095D01*
X123594666Y-121705714D02*
X123594666Y-122372380D01*
X123356571Y-121324761D02*
X123118476Y-122039047D01*
X123737523Y-122039047D01*
%TO.C,D12*%
X126039714Y-122372380D02*
X126039714Y-121372380D01*
X126277809Y-121372380D01*
X126420666Y-121420000D01*
X126515904Y-121515238D01*
X126563523Y-121610476D01*
X126611142Y-121800952D01*
X126611142Y-121943809D01*
X126563523Y-122134285D01*
X126515904Y-122229523D01*
X126420666Y-122324761D01*
X126277809Y-122372380D01*
X126039714Y-122372380D01*
X127563523Y-122372380D02*
X126992095Y-122372380D01*
X127277809Y-122372380D02*
X127277809Y-121372380D01*
X127182571Y-121515238D01*
X127087333Y-121610476D01*
X126992095Y-121658095D01*
X127944476Y-121467619D02*
X127992095Y-121420000D01*
X128087333Y-121372380D01*
X128325428Y-121372380D01*
X128420666Y-121420000D01*
X128468285Y-121467619D01*
X128515904Y-121562857D01*
X128515904Y-121658095D01*
X128468285Y-121800952D01*
X127896857Y-122372380D01*
X128515904Y-122372380D01*
%TO.C,D10*%
X130865714Y-122372380D02*
X130865714Y-121372380D01*
X131103809Y-121372380D01*
X131246666Y-121420000D01*
X131341904Y-121515238D01*
X131389523Y-121610476D01*
X131437142Y-121800952D01*
X131437142Y-121943809D01*
X131389523Y-122134285D01*
X131341904Y-122229523D01*
X131246666Y-122324761D01*
X131103809Y-122372380D01*
X130865714Y-122372380D01*
X132389523Y-122372380D02*
X131818095Y-122372380D01*
X132103809Y-122372380D02*
X132103809Y-121372380D01*
X132008571Y-121515238D01*
X131913333Y-121610476D01*
X131818095Y-121658095D01*
X133008571Y-121372380D02*
X133103809Y-121372380D01*
X133199047Y-121420000D01*
X133246666Y-121467619D01*
X133294285Y-121562857D01*
X133341904Y-121753333D01*
X133341904Y-121991428D01*
X133294285Y-122181904D01*
X133246666Y-122277142D01*
X133199047Y-122324761D01*
X133103809Y-122372380D01*
X133008571Y-122372380D01*
X132913333Y-122324761D01*
X132865714Y-122277142D01*
X132818095Y-122181904D01*
X132770476Y-121991428D01*
X132770476Y-121753333D01*
X132818095Y-121562857D01*
X132865714Y-121467619D01*
X132913333Y-121420000D01*
X133008571Y-121372380D01*
%TO.C,D8*%
X136167904Y-122372380D02*
X136167904Y-121372380D01*
X136406000Y-121372380D01*
X136548857Y-121420000D01*
X136644095Y-121515238D01*
X136691714Y-121610476D01*
X136739333Y-121800952D01*
X136739333Y-121943809D01*
X136691714Y-122134285D01*
X136644095Y-122229523D01*
X136548857Y-122324761D01*
X136406000Y-122372380D01*
X136167904Y-122372380D01*
X137310761Y-121800952D02*
X137215523Y-121753333D01*
X137167904Y-121705714D01*
X137120285Y-121610476D01*
X137120285Y-121562857D01*
X137167904Y-121467619D01*
X137215523Y-121420000D01*
X137310761Y-121372380D01*
X137501238Y-121372380D01*
X137596476Y-121420000D01*
X137644095Y-121467619D01*
X137691714Y-121562857D01*
X137691714Y-121610476D01*
X137644095Y-121705714D01*
X137596476Y-121753333D01*
X137501238Y-121800952D01*
X137310761Y-121800952D01*
X137215523Y-121848571D01*
X137167904Y-121896190D01*
X137120285Y-121991428D01*
X137120285Y-122181904D01*
X137167904Y-122277142D01*
X137215523Y-122324761D01*
X137310761Y-122372380D01*
X137501238Y-122372380D01*
X137596476Y-122324761D01*
X137644095Y-122277142D01*
X137691714Y-122181904D01*
X137691714Y-121991428D01*
X137644095Y-121896190D01*
X137596476Y-121848571D01*
X137501238Y-121800952D01*
%TO.C,D6*%
X140993904Y-122372380D02*
X140993904Y-121372380D01*
X141232000Y-121372380D01*
X141374857Y-121420000D01*
X141470095Y-121515238D01*
X141517714Y-121610476D01*
X141565333Y-121800952D01*
X141565333Y-121943809D01*
X141517714Y-122134285D01*
X141470095Y-122229523D01*
X141374857Y-122324761D01*
X141232000Y-122372380D01*
X140993904Y-122372380D01*
X142422476Y-121372380D02*
X142232000Y-121372380D01*
X142136761Y-121420000D01*
X142089142Y-121467619D01*
X141993904Y-121610476D01*
X141946285Y-121800952D01*
X141946285Y-122181904D01*
X141993904Y-122277142D01*
X142041523Y-122324761D01*
X142136761Y-122372380D01*
X142327238Y-122372380D01*
X142422476Y-122324761D01*
X142470095Y-122277142D01*
X142517714Y-122181904D01*
X142517714Y-121943809D01*
X142470095Y-121848571D01*
X142422476Y-121800952D01*
X142327238Y-121753333D01*
X142136761Y-121753333D01*
X142041523Y-121800952D01*
X141993904Y-121848571D01*
X141946285Y-121943809D01*
%TO.C,D4*%
X145819904Y-122372380D02*
X145819904Y-121372380D01*
X146058000Y-121372380D01*
X146200857Y-121420000D01*
X146296095Y-121515238D01*
X146343714Y-121610476D01*
X146391333Y-121800952D01*
X146391333Y-121943809D01*
X146343714Y-122134285D01*
X146296095Y-122229523D01*
X146200857Y-122324761D01*
X146058000Y-122372380D01*
X145819904Y-122372380D01*
X147248476Y-121705714D02*
X147248476Y-122372380D01*
X147010380Y-121324761D02*
X146772285Y-122039047D01*
X147391333Y-122039047D01*
%TO.C,D2*%
X150645904Y-122372380D02*
X150645904Y-121372380D01*
X150884000Y-121372380D01*
X151026857Y-121420000D01*
X151122095Y-121515238D01*
X151169714Y-121610476D01*
X151217333Y-121800952D01*
X151217333Y-121943809D01*
X151169714Y-122134285D01*
X151122095Y-122229523D01*
X151026857Y-122324761D01*
X150884000Y-122372380D01*
X150645904Y-122372380D01*
X151598285Y-121467619D02*
X151645904Y-121420000D01*
X151741142Y-121372380D01*
X151979238Y-121372380D01*
X152074476Y-121420000D01*
X152122095Y-121467619D01*
X152169714Y-121562857D01*
X152169714Y-121658095D01*
X152122095Y-121800952D01*
X151550666Y-122372380D01*
X152169714Y-122372380D01*
%TD*%
M02*
