%TF.GenerationSoftware,KiCad,Pcbnew,(5.1.6)-1*%
%TF.CreationDate,2020-11-08T21:19:26+11:00*%
%TF.ProjectId,mc13clk,6d633133-636c-46b2-9e6b-696361645f70,rev?*%
%TF.SameCoordinates,Original*%
%TF.FileFunction,Paste,Bot*%
%TF.FilePolarity,Positive*%
%FSLAX46Y46*%
G04 Gerber Fmt 4.6, Leading zero omitted, Abs format (unit mm)*
G04 Created by KiCad (PCBNEW (5.1.6)-1) date 2020-11-08 21:19:26*
%MOMM*%
%LPD*%
G01*
G04 APERTURE LIST*
%ADD10R,1.800000X1.500000*%
%ADD11C,1.524000*%
%ADD12R,1.300000X0.700000*%
%ADD13R,0.900000X1.700000*%
%ADD14R,0.500000X0.900000*%
%ADD15R,0.700000X1.300000*%
%ADD16R,0.900000X0.500000*%
%ADD17R,1.500000X1.800000*%
%ADD18R,0.750000X0.800000*%
%ADD19R,0.508000X1.143000*%
G04 APERTURE END LIST*
D10*
%TO.C,D1*%
X188214000Y-88900000D03*
X188214000Y-85300000D03*
%TD*%
D11*
%TO.C,Pin 6*%
X148844000Y-46482000D03*
%TD*%
D12*
%TO.C,0805*%
X132016500Y-99123500D03*
X132016500Y-97223500D03*
%TD*%
%TO.C,R2*%
X151130000Y-109535000D03*
X151130000Y-107635000D03*
%TD*%
%TO.C,R2*%
X148590000Y-109547000D03*
X148590000Y-107647000D03*
%TD*%
%TO.C,R2*%
X141605000Y-81588000D03*
X141605000Y-83488000D03*
%TD*%
D11*
%TO.C,Pin 8*%
X148907500Y-50165000D03*
%TD*%
%TO.C,Pin 7*%
X147701000Y-48323500D03*
%TD*%
%TO.C,Pin 1*%
X147574000Y-41084500D03*
%TD*%
D13*
%TO.C,1206*%
X105558000Y-51435000D03*
X108458000Y-51435000D03*
%TD*%
D14*
%TO.C,0603*%
X106870500Y-47625000D03*
X105370500Y-47625000D03*
%TD*%
D15*
%TO.C,0805*%
X105476000Y-49339500D03*
X107376000Y-49339500D03*
%TD*%
D16*
%TO.C,REF\u002A\u002A*%
X140462000Y-67552000D03*
X140462000Y-66052000D03*
%TD*%
D14*
%TO.C,REF\u002A\u002A*%
X142442500Y-63881000D03*
X143942500Y-63881000D03*
%TD*%
%TO.C,vcc access*%
X182574500Y-93916500D03*
X184074500Y-93916500D03*
%TD*%
%TO.C,vcc access*%
X184074500Y-90868500D03*
X182574500Y-90868500D03*
%TD*%
%TO.C,vcc access*%
X182574500Y-87820500D03*
X184074500Y-87820500D03*
%TD*%
%TO.C,REF\u002A\u002A*%
X182574500Y-92392500D03*
X184074500Y-92392500D03*
%TD*%
%TO.C,REF\u002A\u002A*%
X184074500Y-89344500D03*
X182574500Y-89344500D03*
%TD*%
%TO.C,REF\u002A\u002A*%
X182574500Y-86296500D03*
X184074500Y-86296500D03*
%TD*%
D17*
%TO.C,D1*%
X105239000Y-84772500D03*
X108839000Y-84772500D03*
%TD*%
%TO.C,D1*%
X194649500Y-109029500D03*
X191049500Y-109029500D03*
%TD*%
D11*
%TO.C,Pin 3 *%
X147637500Y-44640500D03*
%TD*%
%TO.C,Pin 2*%
X148844000Y-42862500D03*
%TD*%
D14*
%TO.C,REF\u002A\u002A*%
X143942500Y-65468500D03*
X142442500Y-65468500D03*
%TD*%
%TO.C,REF\u002A\u002A*%
X156857000Y-46101000D03*
X158357000Y-46101000D03*
%TD*%
D18*
%TO.C,REF\u002A\u002A*%
X184404000Y-127762000D03*
X184404000Y-126262000D03*
%TD*%
D16*
%TO.C,REF\u002A\u002A*%
X180086000Y-126238000D03*
X180086000Y-127738000D03*
%TD*%
%TO.C,REF\u002A\u002A*%
X182118000Y-127750000D03*
X182118000Y-126250000D03*
%TD*%
%TO.C,REF\u002A\u002A*%
X169164000Y-126504000D03*
X169164000Y-128004000D03*
%TD*%
D18*
%TO.C,REF\u002A\u002A*%
X171450000Y-126516000D03*
X171450000Y-128016000D03*
%TD*%
D16*
%TO.C,REF\u002A\u002A*%
X167132000Y-127992000D03*
X167132000Y-126492000D03*
%TD*%
D19*
%TO.C,U4*%
X134620000Y-134874000D03*
X133350000Y-134874000D03*
X132080000Y-134874000D03*
X130810000Y-134874000D03*
X129540000Y-134874000D03*
X128270000Y-134874000D03*
X127000000Y-134874000D03*
X127000000Y-128524000D03*
X128270000Y-128524000D03*
X130810000Y-128524000D03*
X132080000Y-128524000D03*
X133350000Y-128524000D03*
X134620000Y-128524000D03*
X129540000Y-128524000D03*
%TD*%
D16*
%TO.C,REF\u002A\u002A*%
X151130000Y-128778000D03*
X151130000Y-130278000D03*
%TD*%
%TO.C,REF\u002A\u002A*%
X149098000Y-130290000D03*
X149098000Y-128790000D03*
%TD*%
D18*
%TO.C,REF\u002A\u002A*%
X151130000Y-134088000D03*
X151130000Y-132588000D03*
%TD*%
%TO.C,REF\u002A\u002A*%
X141732000Y-130302000D03*
X141732000Y-128802000D03*
%TD*%
%TO.C,REF\u002A\u002A*%
X141732000Y-134088000D03*
X141732000Y-132588000D03*
%TD*%
D16*
%TO.C,REF\u002A\u002A*%
X144272000Y-132600000D03*
X144272000Y-134100000D03*
%TD*%
%TO.C,REF\u002A\u002A*%
X144272000Y-128790000D03*
X144272000Y-130290000D03*
%TD*%
%TO.C,REF\u002A\u002A*%
X146812000Y-130302000D03*
X146812000Y-128802000D03*
%TD*%
%TO.C,REF\u002A\u002A*%
X146812000Y-134100000D03*
X146812000Y-132600000D03*
%TD*%
D10*
%TO.C,FUSE*%
X187706000Y-128480000D03*
X187706000Y-132080000D03*
%TD*%
D17*
%TO.C,D2*%
X112014000Y-63373000D03*
X115614000Y-63373000D03*
%TD*%
%TO.C,D1*%
X115570000Y-76581000D03*
X111970000Y-76581000D03*
%TD*%
M02*
