M48
; DRILL file {KiCad (5.1.6)-1} date 11/08/20 22:39:41
; FORMAT={-:-/ absolute / inch / decimal}
; #@! TF.CreationDate,2020-11-08T22:39:41+11:00
; #@! TF.GenerationSoftware,Kicad,Pcbnew,(5.1.6)-1
; #@! TF.FileFunction,Plated,1,4,PTH
FMAT,2
INCH
T1C0.0157
T2C0.0197
T3C0.0236
T4C0.0276
T5C0.0300
T6C0.0315
T7C0.0354
T8C0.0394
T9C0.0472
T10C0.0709
T11C0.0728
T12C0.1181
%
G90
G05
T1
X4.375Y-2.245
X4.452Y-1.629
X4.6875Y-5.0325
X4.8475Y-4.0327
X5.0Y-5.4
X5.02Y-4.6275
X5.14Y-4.6275
X5.1975Y-3.76
X5.2Y-4.6275
X5.2625Y-3.99
X5.3Y-5.0
X5.331Y-1.629
X5.496Y-3.426
X5.53Y-2.7275
X5.535Y-3.475
X5.6075Y-2.63
X5.78Y-5.18
X5.85Y-3.875
X6.15Y-4.2375
X6.25Y-4.21
X6.35Y-4.1825
X6.43Y-4.51
X6.43Y-4.69
X6.505Y-1.665
X6.505Y-1.965
X6.62Y-3.095
X6.66Y-5.11
X6.67Y-3.095
X6.89Y-3.33
X7.17Y-5.11
X7.2175Y-3.3975
X7.285Y-3.3975
X7.35Y-1.665
X7.35Y-1.965
X7.41Y-3.56
X7.4125Y-4.29
T2
X7.6314Y-5.355
X7.6574Y-5.2924
X7.6574Y-5.4176
X7.72Y-5.2664
X7.72Y-5.4436
X7.7826Y-5.2924
X7.7826Y-5.4176
X7.8086Y-5.355
X6.2244Y-5.029
X6.2504Y-4.9664
X6.2504Y-5.0916
X6.313Y-4.9404
X6.313Y-5.1176
X6.3756Y-4.9664
X6.3756Y-5.0916
X6.4016Y-5.029
X4.0014Y-1.71
X4.0274Y-1.6474
X4.0274Y-1.7726
X4.09Y-1.6214
X4.09Y-1.7986
X4.1526Y-1.6474
X4.1526Y-1.7726
X4.1786Y-1.71
X3.9991Y-5.3574
X4.025Y-5.2947
X4.025Y-5.42
X4.0876Y-5.2688
X4.0876Y-5.4459
X4.1503Y-5.2947
X4.1503Y-5.42
X4.1762Y-5.3574
X7.6314Y-1.71
X7.6574Y-1.6474
X7.6574Y-1.7726
X7.72Y-1.6214
X7.72Y-1.7986
X7.7826Y-1.6474
X7.7826Y-1.7726
X7.8086Y-1.71
T3
X4.4959Y-2.645
X4.555Y-2.645
X4.4969Y-2.845
X4.556Y-2.845
T4
X7.14Y-4.11
X7.24Y-4.11
X6.93Y-4.11
X7.03Y-4.11
X6.72Y-4.11
X6.82Y-4.11
X6.172Y-5.311
X6.172Y-5.411
X6.51Y-4.11
X6.61Y-4.11
X4.99Y-3.67
X5.09Y-3.67
T5
X6.4802Y-2.625
X6.481Y-2.525
X5.435Y-4.49
X5.4358Y-4.39
X6.48Y-2.925
X6.4808Y-2.825
X6.4792Y-3.725
X6.48Y-3.625
T6
X7.55Y-5.21
X5.7565Y-2.626
X5.7565Y-2.726
X5.7565Y-2.826
X5.7565Y-2.926
X5.7565Y-3.026
X5.7565Y-3.126
X5.7565Y-3.226
X5.7565Y-3.326
X5.7565Y-3.426
X5.7565Y-3.526
X5.7565Y-3.626
X5.7565Y-3.726
X5.7565Y-3.826
X5.7565Y-3.926
X5.7565Y-4.026
X6.3565Y-2.626
X6.3565Y-2.726
X6.3565Y-2.826
X6.3565Y-2.926
X6.3565Y-3.026
X6.3565Y-3.126
X6.3565Y-3.226
X6.3565Y-3.326
X6.3565Y-3.426
X6.3565Y-3.526
X6.3565Y-3.626
X6.3565Y-3.726
X6.3565Y-3.826
X6.3565Y-3.926
X6.3565Y-4.026
X4.69Y-3.09
X4.69Y-3.19
X4.69Y-3.39
X4.69Y-3.49
X4.69Y-3.99
X4.69Y-4.09
X4.69Y-4.29
X4.69Y-4.39
X4.69Y-4.49
X4.69Y-4.59
X5.29Y-3.09
X5.29Y-3.19
X5.29Y-3.29
X5.29Y-4.09
X5.29Y-4.19
X5.29Y-4.49
X5.29Y-4.59
X4.89Y-3.83
X4.99Y-3.83
X5.09Y-3.83
X4.9666Y-4.345
X5.065Y-4.345
X6.578Y-1.663
X6.578Y-1.963
X6.678Y-1.663
X6.678Y-1.963
X6.778Y-1.663
X6.778Y-1.963
X6.878Y-1.663
X6.878Y-1.963
X6.978Y-1.663
X6.978Y-1.963
X7.078Y-1.663
X7.078Y-1.963
X7.178Y-1.663
X7.178Y-1.963
X7.278Y-1.663
X7.278Y-1.963
T7
X6.322Y-5.309
X6.322Y-5.409
X6.55Y-3.92
X6.55Y-4.02
X7.18Y-3.9168
X7.18Y-4.0168
X6.97Y-3.9199
X6.97Y-4.0199
X6.76Y-3.92
X6.76Y-4.02
T8
X6.8Y-2.3276
X6.8Y-2.4276
X6.8Y-2.5276
X6.8Y-2.6276
X6.8Y-2.7276
X6.8Y-2.8276
X6.8Y-2.9276
X6.8Y-3.0276
X6.8Y-3.1276
X6.8Y-3.2276
X6.8Y-3.3276
X6.8Y-3.4276
X6.8Y-3.5276
X6.8Y-3.6276
X7.1Y-2.3276
X7.1Y-2.4276
X7.1Y-2.5276
X7.1Y-2.6276
X7.1Y-2.7276
X7.1Y-2.8276
X7.1Y-2.9276
X7.1Y-3.0276
X7.1Y-3.1276
X7.1Y-3.2276
X7.1Y-3.3276
X7.1Y-3.4276
X7.1Y-3.5276
X7.1Y-3.6276
X7.38Y-3.755
X7.38Y-3.855
X7.38Y-3.955
X7.38Y-4.055
X5.65Y-4.4
X5.65Y-4.7
X5.75Y-4.4
X5.75Y-4.7
X5.85Y-4.4
X5.85Y-4.7
X5.95Y-4.4
X5.95Y-4.7
X6.05Y-4.4
X6.05Y-4.7
X6.15Y-4.4
X6.15Y-4.7
X6.25Y-4.4
X6.25Y-4.7
X6.35Y-4.4
X6.35Y-4.7
X5.478Y-5.076
X5.478Y-5.1744
X5.478Y-5.2728
X6.0488Y-5.076
X6.0488Y-5.2728
X4.73Y-2.645
X4.73Y-2.745
X4.73Y-2.845
X5.05Y-2.07
X5.15Y-2.07
X5.25Y-2.07
X5.35Y-2.07
X6.0358Y-1.815
X6.335Y-1.815
X4.53Y-2.24
X4.53Y-2.34
X4.63Y-2.24
X4.63Y-2.34
X4.73Y-2.24
X4.73Y-2.34
X4.83Y-2.24
X4.83Y-2.34
X4.93Y-2.24
X4.93Y-2.34
X5.03Y-2.24
X5.03Y-2.34
X5.13Y-2.24
X5.13Y-2.34
X5.23Y-2.24
X5.23Y-2.34
X5.33Y-2.24
X5.33Y-2.34
X5.43Y-2.24
X5.43Y-2.34
X5.53Y-2.24
X5.53Y-2.34
X5.63Y-2.24
X5.63Y-2.34
X5.73Y-2.24
X5.73Y-2.34
X5.83Y-2.24
X5.83Y-2.34
X5.93Y-2.24
X5.93Y-2.34
X6.03Y-2.24
X6.03Y-2.34
X6.13Y-2.24
X6.13Y-2.34
X6.23Y-2.24
X6.23Y-2.34
X6.33Y-2.24
X6.33Y-2.34
X6.43Y-2.24
X6.43Y-2.34
X6.05Y-1.66
X6.05Y-1.96
X6.15Y-1.66
X6.15Y-1.96
X6.25Y-1.66
X6.25Y-1.96
X6.35Y-1.66
X6.35Y-1.96
X7.25Y-2.33
X7.25Y-2.43
X7.25Y-2.53
X7.25Y-2.63
X7.25Y-2.73
X7.25Y-2.83
X7.25Y-2.93
X7.25Y-3.03
X7.25Y-3.13
X7.25Y-3.23
X7.35Y-2.33
X7.35Y-2.43
X7.35Y-2.53
X7.35Y-2.63
X7.35Y-2.73
X7.35Y-2.83
X7.35Y-2.93
X7.35Y-3.03
X7.35Y-3.13
X7.35Y-3.23
X6.55Y-4.4
X6.55Y-4.7
X6.65Y-4.4
X6.65Y-4.7
X6.75Y-4.4
X6.75Y-4.7
X6.85Y-4.4
X6.85Y-4.7
X6.95Y-4.4
X6.95Y-4.7
X7.05Y-4.4
X7.05Y-4.7
X7.15Y-4.4
X7.15Y-4.7
X7.74Y-2.1341
X7.74Y-2.2325
X7.74Y-2.3309
X5.575Y-2.9275
X5.575Y-3.0275
X5.575Y-3.1275
X5.42Y-2.53
X5.42Y-2.63
X5.42Y-2.73
X5.42Y-2.83
X4.58Y-2.07
X4.68Y-2.07
X4.78Y-2.07
X4.88Y-2.07
X4.46Y-3.59
X4.46Y-3.69
X4.46Y-3.79
X4.46Y-3.89
X4.46Y-3.99
X4.46Y-4.09
T9
X4.25Y-3.4669
X4.25Y-3.6169
X4.25Y-3.7669
X4.25Y-3.9169
X4.25Y-4.0669
X4.25Y-4.2169
X7.0828Y-5.14
X7.0828Y-5.3959
X7.26Y-5.14
X7.26Y-5.3959
X4.25Y-2.4217
X4.25Y-2.5717
X6.5768Y-5.1437
X6.5768Y-5.3996
X6.7539Y-5.1437
X6.7539Y-5.3996
X7.56Y-4.4618
X7.56Y-4.6118
X7.56Y-4.7618
X7.56Y-4.9118
X7.56Y-5.0618
X7.56Y-2.0098
X7.56Y-2.1598
X7.56Y-2.3098
X7.56Y-2.4598
X7.56Y-2.6098
X7.56Y-2.7598
X7.56Y-2.9098
X7.56Y-3.0598
X7.56Y-3.2098
X7.56Y-3.3598
X4.25Y-2.9378
X4.25Y-3.0878
X7.56Y-3.67
X7.56Y-3.82
X7.56Y-3.97
X7.56Y-4.12
X4.25Y-4.53
X4.25Y-4.68
X4.25Y-4.83
X4.25Y-4.98
T11
X5.04Y-2.5549
X5.04Y-2.74
X5.04Y-2.925
T12
X7.72Y-5.355
X6.313Y-5.029
X4.09Y-1.71
X4.0876Y-5.3574
X7.72Y-1.71
T10
G00X5.789Y-4.95
M15
G01X5.7575Y-4.95
M16
G05
G00X5.789Y-5.3988
M15
G01X5.7575Y-5.3988
M16
G05
T0
M30
