%TF.GenerationSoftware,KiCad,Pcbnew,(5.1.6)-1*%
%TF.CreationDate,2020-11-08T21:19:26+11:00*%
%TF.ProjectId,mc13clk,6d633133-636c-46b2-9e6b-696361645f70,rev?*%
%TF.SameCoordinates,Original*%
%TF.FileFunction,Soldermask,Top*%
%TF.FilePolarity,Negative*%
%FSLAX46Y46*%
G04 Gerber Fmt 4.6, Leading zero omitted, Abs format (unit mm)*
G04 Created by KiCad (PCBNEW (5.1.6)-1) date 2020-11-08 21:19:26*
%MOMM*%
%LPD*%
G01*
G04 APERTURE LIST*
%ADD10C,0.150000*%
%ADD11R,1.800000X1.800000*%
%ADD12O,1.800000X1.800000*%
%ADD13R,0.800000X1.400000*%
%ADD14R,1.000000X0.600000*%
%ADD15R,0.900000X0.900000*%
%ADD16R,1.400000X0.800000*%
%ADD17C,1.900000*%
%ADD18R,0.600000X1.000000*%
%ADD19C,1.700000*%
%ADD20R,1.700000X1.700000*%
%ADD21C,0.900000*%
%ADD22C,6.100000*%
%ADD23C,1.624000*%
%ADD24C,1.300000*%
%ADD25R,1.300000X1.300000*%
%ADD26C,2.950000*%
%ADD27R,2.950000X2.950000*%
%ADD28R,2.500000X1.700000*%
%ADD29O,2.500000X1.700000*%
%ADD30O,1.500000X1.500000*%
%ADD31C,1.500000*%
%ADD32R,2.400000X5.700000*%
%ADD33R,1.500000X3.500000*%
%ADD34C,4.100000*%
%ADD35O,1.700000X1.700000*%
%ADD36R,1.900000X1.900000*%
%ADD37R,3.700000X1.900000*%
%ADD38O,3.700000X1.900000*%
%ADD39C,1.620000*%
%ADD40R,1.620000X1.620000*%
%ADD41R,2.100000X2.100000*%
%ADD42C,2.100000*%
%ADD43C,2.300000*%
%ADD44R,2.300000X2.300000*%
%ADD45R,3.700000X2.900000*%
G04 APERTURE END LIST*
D10*
X107777595Y-138882380D02*
X107777595Y-137882380D01*
X108206166Y-138882380D02*
X108206166Y-138358571D01*
X108158547Y-138263333D01*
X108063309Y-138215714D01*
X107920452Y-138215714D01*
X107825214Y-138263333D01*
X107777595Y-138310952D01*
X108539500Y-138215714D02*
X108920452Y-138215714D01*
X108682357Y-137882380D02*
X108682357Y-138739523D01*
X108729976Y-138834761D01*
X108825214Y-138882380D01*
X108920452Y-138882380D01*
X109110928Y-138215714D02*
X109491880Y-138215714D01*
X109253785Y-137882380D02*
X109253785Y-138739523D01*
X109301404Y-138834761D01*
X109396642Y-138882380D01*
X109491880Y-138882380D01*
X109825214Y-138215714D02*
X109825214Y-139215714D01*
X109825214Y-138263333D02*
X109920452Y-138215714D01*
X110110928Y-138215714D01*
X110206166Y-138263333D01*
X110253785Y-138310952D01*
X110301404Y-138406190D01*
X110301404Y-138691904D01*
X110253785Y-138787142D01*
X110206166Y-138834761D01*
X110110928Y-138882380D01*
X109920452Y-138882380D01*
X109825214Y-138834761D01*
X110682357Y-138834761D02*
X110777595Y-138882380D01*
X110968071Y-138882380D01*
X111063309Y-138834761D01*
X111110928Y-138739523D01*
X111110928Y-138691904D01*
X111063309Y-138596666D01*
X110968071Y-138549047D01*
X110825214Y-138549047D01*
X110729976Y-138501428D01*
X110682357Y-138406190D01*
X110682357Y-138358571D01*
X110729976Y-138263333D01*
X110825214Y-138215714D01*
X110968071Y-138215714D01*
X111063309Y-138263333D01*
X111539500Y-138787142D02*
X111587119Y-138834761D01*
X111539500Y-138882380D01*
X111491880Y-138834761D01*
X111539500Y-138787142D01*
X111539500Y-138882380D01*
X111539500Y-138263333D02*
X111587119Y-138310952D01*
X111539500Y-138358571D01*
X111491880Y-138310952D01*
X111539500Y-138263333D01*
X111539500Y-138358571D01*
X112729976Y-137834761D02*
X111872833Y-139120476D01*
X113777595Y-137834761D02*
X112920452Y-139120476D01*
X114110928Y-138215714D02*
X114110928Y-139215714D01*
X114110928Y-138263333D02*
X114206166Y-138215714D01*
X114396642Y-138215714D01*
X114491880Y-138263333D01*
X114539500Y-138310952D01*
X114587119Y-138406190D01*
X114587119Y-138691904D01*
X114539500Y-138787142D01*
X114491880Y-138834761D01*
X114396642Y-138882380D01*
X114206166Y-138882380D01*
X114110928Y-138834761D01*
X115444261Y-138834761D02*
X115349023Y-138882380D01*
X115158547Y-138882380D01*
X115063309Y-138834761D01*
X115015690Y-138787142D01*
X114968071Y-138691904D01*
X114968071Y-138406190D01*
X115015690Y-138310952D01*
X115063309Y-138263333D01*
X115158547Y-138215714D01*
X115349023Y-138215714D01*
X115444261Y-138263333D01*
X115872833Y-138882380D02*
X115872833Y-137882380D01*
X115872833Y-138263333D02*
X115968071Y-138215714D01*
X116158547Y-138215714D01*
X116253785Y-138263333D01*
X116301404Y-138310952D01*
X116349023Y-138406190D01*
X116349023Y-138691904D01*
X116301404Y-138787142D01*
X116253785Y-138834761D01*
X116158547Y-138882380D01*
X115968071Y-138882380D01*
X115872833Y-138834761D01*
X116777595Y-138787142D02*
X116825214Y-138834761D01*
X116777595Y-138882380D01*
X116729976Y-138834761D01*
X116777595Y-138787142D01*
X116777595Y-138882380D01*
X117206166Y-138834761D02*
X117301404Y-138882380D01*
X117491880Y-138882380D01*
X117587119Y-138834761D01*
X117634738Y-138739523D01*
X117634738Y-138691904D01*
X117587119Y-138596666D01*
X117491880Y-138549047D01*
X117349023Y-138549047D01*
X117253785Y-138501428D01*
X117206166Y-138406190D01*
X117206166Y-138358571D01*
X117253785Y-138263333D01*
X117349023Y-138215714D01*
X117491880Y-138215714D01*
X117587119Y-138263333D01*
X117920452Y-138215714D02*
X118301404Y-138215714D01*
X118063309Y-137882380D02*
X118063309Y-138739523D01*
X118110928Y-138834761D01*
X118206166Y-138882380D01*
X118301404Y-138882380D01*
X119063309Y-138882380D02*
X119063309Y-138358571D01*
X119015690Y-138263333D01*
X118920452Y-138215714D01*
X118729976Y-138215714D01*
X118634738Y-138263333D01*
X119063309Y-138834761D02*
X118968071Y-138882380D01*
X118729976Y-138882380D01*
X118634738Y-138834761D01*
X118587119Y-138739523D01*
X118587119Y-138644285D01*
X118634738Y-138549047D01*
X118729976Y-138501428D01*
X118968071Y-138501428D01*
X119063309Y-138453809D01*
X119539500Y-138882380D02*
X119539500Y-138215714D01*
X119539500Y-138406190D02*
X119587119Y-138310952D01*
X119634738Y-138263333D01*
X119729976Y-138215714D01*
X119825214Y-138215714D01*
X120158547Y-138882380D02*
X120158547Y-137882380D01*
X120158547Y-138263333D02*
X120253785Y-138215714D01*
X120444261Y-138215714D01*
X120539500Y-138263333D01*
X120587119Y-138310952D01*
X120634738Y-138406190D01*
X120634738Y-138691904D01*
X120587119Y-138787142D01*
X120539500Y-138834761D01*
X120444261Y-138882380D01*
X120253785Y-138882380D01*
X120158547Y-138834761D01*
X121206166Y-138882380D02*
X121110928Y-138834761D01*
X121063309Y-138739523D01*
X121063309Y-137882380D01*
X121729976Y-138882380D02*
X121634738Y-138834761D01*
X121587119Y-138787142D01*
X121539500Y-138691904D01*
X121539500Y-138406190D01*
X121587119Y-138310952D01*
X121634738Y-138263333D01*
X121729976Y-138215714D01*
X121872833Y-138215714D01*
X121968071Y-138263333D01*
X122015690Y-138310952D01*
X122063309Y-138406190D01*
X122063309Y-138691904D01*
X122015690Y-138787142D01*
X121968071Y-138834761D01*
X121872833Y-138882380D01*
X121729976Y-138882380D01*
X122920452Y-138834761D02*
X122825214Y-138882380D01*
X122634738Y-138882380D01*
X122539500Y-138834761D01*
X122491880Y-138787142D01*
X122444261Y-138691904D01*
X122444261Y-138406190D01*
X122491880Y-138310952D01*
X122539500Y-138263333D01*
X122634738Y-138215714D01*
X122825214Y-138215714D01*
X122920452Y-138263333D01*
X123349023Y-138882380D02*
X123349023Y-137882380D01*
X123444261Y-138501428D02*
X123729976Y-138882380D01*
X123729976Y-138215714D02*
X123349023Y-138596666D01*
X124158547Y-138787142D02*
X124206166Y-138834761D01*
X124158547Y-138882380D01*
X124110928Y-138834761D01*
X124158547Y-138787142D01*
X124158547Y-138882380D01*
X125063309Y-138834761D02*
X124968071Y-138882380D01*
X124777595Y-138882380D01*
X124682357Y-138834761D01*
X124634738Y-138787142D01*
X124587119Y-138691904D01*
X124587119Y-138406190D01*
X124634738Y-138310952D01*
X124682357Y-138263333D01*
X124777595Y-138215714D01*
X124968071Y-138215714D01*
X125063309Y-138263333D01*
X125634738Y-138882380D02*
X125539500Y-138834761D01*
X125491880Y-138787142D01*
X125444261Y-138691904D01*
X125444261Y-138406190D01*
X125491880Y-138310952D01*
X125539500Y-138263333D01*
X125634738Y-138215714D01*
X125777595Y-138215714D01*
X125872833Y-138263333D01*
X125920452Y-138310952D01*
X125968071Y-138406190D01*
X125968071Y-138691904D01*
X125920452Y-138787142D01*
X125872833Y-138834761D01*
X125777595Y-138882380D01*
X125634738Y-138882380D01*
X126396642Y-138882380D02*
X126396642Y-138215714D01*
X126396642Y-138310952D02*
X126444261Y-138263333D01*
X126539500Y-138215714D01*
X126682357Y-138215714D01*
X126777595Y-138263333D01*
X126825214Y-138358571D01*
X126825214Y-138882380D01*
X126825214Y-138358571D02*
X126872833Y-138263333D01*
X126968071Y-138215714D01*
X127110928Y-138215714D01*
X127206166Y-138263333D01*
X127253785Y-138358571D01*
X127253785Y-138882380D01*
X127729976Y-138787142D02*
X127777595Y-138834761D01*
X127729976Y-138882380D01*
X127682357Y-138834761D01*
X127729976Y-138787142D01*
X127729976Y-138882380D01*
X128634738Y-138882380D02*
X128634738Y-138358571D01*
X128587119Y-138263333D01*
X128491880Y-138215714D01*
X128301404Y-138215714D01*
X128206166Y-138263333D01*
X128634738Y-138834761D02*
X128539500Y-138882380D01*
X128301404Y-138882380D01*
X128206166Y-138834761D01*
X128158547Y-138739523D01*
X128158547Y-138644285D01*
X128206166Y-138549047D01*
X128301404Y-138501428D01*
X128539500Y-138501428D01*
X128634738Y-138453809D01*
X129539500Y-138215714D02*
X129539500Y-138882380D01*
X129110928Y-138215714D02*
X129110928Y-138739523D01*
X129158547Y-138834761D01*
X129253785Y-138882380D01*
X129396642Y-138882380D01*
X129491880Y-138834761D01*
X129539500Y-138787142D01*
X130729976Y-137834761D02*
X129872833Y-139120476D01*
X131015690Y-138834761D02*
X131110928Y-138882380D01*
X131301404Y-138882380D01*
X131396642Y-138834761D01*
X131444261Y-138739523D01*
X131444261Y-138691904D01*
X131396642Y-138596666D01*
X131301404Y-138549047D01*
X131158547Y-138549047D01*
X131063309Y-138501428D01*
X131015690Y-138406190D01*
X131015690Y-138358571D01*
X131063309Y-138263333D01*
X131158547Y-138215714D01*
X131301404Y-138215714D01*
X131396642Y-138263333D01*
X131872833Y-138882380D02*
X131872833Y-137882380D01*
X131968071Y-138501428D02*
X132253785Y-138882380D01*
X132253785Y-138215714D02*
X131872833Y-138596666D01*
X133110928Y-138215714D02*
X133110928Y-138882380D01*
X132682357Y-138215714D02*
X132682357Y-138739523D01*
X132729976Y-138834761D01*
X132825214Y-138882380D01*
X132968071Y-138882380D01*
X133063309Y-138834761D01*
X133110928Y-138787142D01*
X133539500Y-138834761D02*
X133634738Y-138882380D01*
X133825214Y-138882380D01*
X133920452Y-138834761D01*
X133968071Y-138739523D01*
X133968071Y-138691904D01*
X133920452Y-138596666D01*
X133825214Y-138549047D01*
X133682357Y-138549047D01*
X133587119Y-138501428D01*
X133539500Y-138406190D01*
X133539500Y-138358571D01*
X133587119Y-138263333D01*
X133682357Y-138215714D01*
X133825214Y-138215714D01*
X133920452Y-138263333D01*
X134396642Y-138882380D02*
X134396642Y-138215714D01*
X134396642Y-138406190D02*
X134444261Y-138310952D01*
X134491880Y-138263333D01*
X134587119Y-138215714D01*
X134682357Y-138215714D01*
X135444261Y-138834761D02*
X135349023Y-138882380D01*
X135158547Y-138882380D01*
X135063309Y-138834761D01*
X135015690Y-138787142D01*
X134968071Y-138691904D01*
X134968071Y-138406190D01*
X135015690Y-138310952D01*
X135063309Y-138263333D01*
X135158547Y-138215714D01*
X135349023Y-138215714D01*
X135444261Y-138263333D01*
X112242000Y-128891000D02*
X112242000Y-130871000D01*
X133272000Y-128891000D02*
X112242000Y-128891000D01*
X133272000Y-130891000D02*
X133272000Y-128891000D01*
X112272000Y-130891000D02*
X133272000Y-130891000D01*
X109233928Y-136850380D02*
X108900595Y-136374190D01*
X108662500Y-136850380D02*
X108662500Y-135850380D01*
X109043452Y-135850380D01*
X109138690Y-135898000D01*
X109186309Y-135945619D01*
X109233928Y-136040857D01*
X109233928Y-136183714D01*
X109186309Y-136278952D01*
X109138690Y-136326571D01*
X109043452Y-136374190D01*
X108662500Y-136374190D01*
X109662500Y-136326571D02*
X109995833Y-136326571D01*
X110138690Y-136850380D02*
X109662500Y-136850380D01*
X109662500Y-135850380D01*
X110138690Y-135850380D01*
X110424404Y-135850380D02*
X110757738Y-136850380D01*
X111091071Y-135850380D01*
X111424404Y-136755142D02*
X111472023Y-136802761D01*
X111424404Y-136850380D01*
X111376785Y-136802761D01*
X111424404Y-136755142D01*
X111424404Y-136850380D01*
X111424404Y-136231333D02*
X111472023Y-136278952D01*
X111424404Y-136326571D01*
X111376785Y-136278952D01*
X111424404Y-136231333D01*
X111424404Y-136326571D01*
X109376785Y-134516761D02*
X109519642Y-134564380D01*
X109757738Y-134564380D01*
X109852976Y-134516761D01*
X109900595Y-134469142D01*
X109948214Y-134373904D01*
X109948214Y-134278666D01*
X109900595Y-134183428D01*
X109852976Y-134135809D01*
X109757738Y-134088190D01*
X109567261Y-134040571D01*
X109472023Y-133992952D01*
X109424404Y-133945333D01*
X109376785Y-133850095D01*
X109376785Y-133754857D01*
X109424404Y-133659619D01*
X109472023Y-133612000D01*
X109567261Y-133564380D01*
X109805357Y-133564380D01*
X109948214Y-133612000D01*
X110376785Y-134564380D02*
X110376785Y-133564380D01*
X110948214Y-134564380D01*
X110948214Y-133564380D01*
X111424404Y-134469142D02*
X111472023Y-134516761D01*
X111424404Y-134564380D01*
X111376785Y-134516761D01*
X111424404Y-134469142D01*
X111424404Y-134564380D01*
X111424404Y-133945333D02*
X111472023Y-133992952D01*
X111424404Y-134040571D01*
X111376785Y-133992952D01*
X111424404Y-133945333D01*
X111424404Y-134040571D01*
X108491976Y-132675761D02*
X108634833Y-132723380D01*
X108872928Y-132723380D01*
X108968166Y-132675761D01*
X109015785Y-132628142D01*
X109063404Y-132532904D01*
X109063404Y-132437666D01*
X109015785Y-132342428D01*
X108968166Y-132294809D01*
X108872928Y-132247190D01*
X108682452Y-132199571D01*
X108587214Y-132151952D01*
X108539595Y-132104333D01*
X108491976Y-132009095D01*
X108491976Y-131913857D01*
X108539595Y-131818619D01*
X108587214Y-131771000D01*
X108682452Y-131723380D01*
X108920547Y-131723380D01*
X109063404Y-131771000D01*
X109491976Y-132723380D02*
X109491976Y-131723380D01*
X110063404Y-132723380D02*
X109634833Y-132151952D01*
X110063404Y-131723380D02*
X109491976Y-132294809D01*
X110491976Y-131723380D02*
X110491976Y-132532904D01*
X110539595Y-132628142D01*
X110587214Y-132675761D01*
X110682452Y-132723380D01*
X110872928Y-132723380D01*
X110968166Y-132675761D01*
X111015785Y-132628142D01*
X111063404Y-132532904D01*
X111063404Y-131723380D01*
X111539595Y-132628142D02*
X111587214Y-132675761D01*
X111539595Y-132723380D01*
X111491976Y-132675761D01*
X111539595Y-132628142D01*
X111539595Y-132723380D01*
X111539595Y-132104333D02*
X111587214Y-132151952D01*
X111539595Y-132199571D01*
X111491976Y-132151952D01*
X111539595Y-132104333D01*
X111539595Y-132199571D01*
X113349119Y-132628142D02*
X113301500Y-132675761D01*
X113158642Y-132723380D01*
X113063404Y-132723380D01*
X112920547Y-132675761D01*
X112825309Y-132580523D01*
X112777690Y-132485285D01*
X112730071Y-132294809D01*
X112730071Y-132151952D01*
X112777690Y-131961476D01*
X112825309Y-131866238D01*
X112920547Y-131771000D01*
X113063404Y-131723380D01*
X113158642Y-131723380D01*
X113301500Y-131771000D01*
X113349119Y-131818619D01*
X113920547Y-132723380D02*
X113825309Y-132675761D01*
X113777690Y-132580523D01*
X113777690Y-131723380D01*
X114444357Y-132723380D02*
X114349119Y-132675761D01*
X114301500Y-132628142D01*
X114253880Y-132532904D01*
X114253880Y-132247190D01*
X114301500Y-132151952D01*
X114349119Y-132104333D01*
X114444357Y-132056714D01*
X114587214Y-132056714D01*
X114682452Y-132104333D01*
X114730071Y-132151952D01*
X114777690Y-132247190D01*
X114777690Y-132532904D01*
X114730071Y-132628142D01*
X114682452Y-132675761D01*
X114587214Y-132723380D01*
X114444357Y-132723380D01*
X115634833Y-132675761D02*
X115539595Y-132723380D01*
X115349119Y-132723380D01*
X115253880Y-132675761D01*
X115206261Y-132628142D01*
X115158642Y-132532904D01*
X115158642Y-132247190D01*
X115206261Y-132151952D01*
X115253880Y-132104333D01*
X115349119Y-132056714D01*
X115539595Y-132056714D01*
X115634833Y-132104333D01*
X116063404Y-132723380D02*
X116063404Y-131723380D01*
X116158642Y-132342428D02*
X116444357Y-132723380D01*
X116444357Y-132056714D02*
X116063404Y-132437666D01*
X117634833Y-132723380D02*
X117634833Y-131723380D01*
X117968166Y-132437666D01*
X118301500Y-131723380D01*
X118301500Y-132723380D01*
X118920547Y-132723380D02*
X118825309Y-132675761D01*
X118777690Y-132628142D01*
X118730071Y-132532904D01*
X118730071Y-132247190D01*
X118777690Y-132151952D01*
X118825309Y-132104333D01*
X118920547Y-132056714D01*
X119063404Y-132056714D01*
X119158642Y-132104333D01*
X119206261Y-132151952D01*
X119253880Y-132247190D01*
X119253880Y-132532904D01*
X119206261Y-132628142D01*
X119158642Y-132675761D01*
X119063404Y-132723380D01*
X118920547Y-132723380D01*
X120111023Y-132723380D02*
X120111023Y-131723380D01*
X120111023Y-132675761D02*
X120015785Y-132723380D01*
X119825309Y-132723380D01*
X119730071Y-132675761D01*
X119682452Y-132628142D01*
X119634833Y-132532904D01*
X119634833Y-132247190D01*
X119682452Y-132151952D01*
X119730071Y-132104333D01*
X119825309Y-132056714D01*
X120015785Y-132056714D01*
X120111023Y-132104333D01*
X121015785Y-132056714D02*
X121015785Y-132723380D01*
X120587214Y-132056714D02*
X120587214Y-132580523D01*
X120634833Y-132675761D01*
X120730071Y-132723380D01*
X120872928Y-132723380D01*
X120968166Y-132675761D01*
X121015785Y-132628142D01*
X121634833Y-132723380D02*
X121539595Y-132675761D01*
X121491976Y-132580523D01*
X121491976Y-131723380D01*
X122396738Y-132675761D02*
X122301500Y-132723380D01*
X122111023Y-132723380D01*
X122015785Y-132675761D01*
X121968166Y-132580523D01*
X121968166Y-132199571D01*
X122015785Y-132104333D01*
X122111023Y-132056714D01*
X122301500Y-132056714D01*
X122396738Y-132104333D01*
X122444357Y-132199571D01*
X122444357Y-132294809D01*
X121968166Y-132390047D01*
X123491976Y-131723380D02*
X123825309Y-132723380D01*
X124158642Y-131723380D01*
X124444357Y-131818619D02*
X124491976Y-131771000D01*
X124587214Y-131723380D01*
X124825309Y-131723380D01*
X124920547Y-131771000D01*
X124968166Y-131818619D01*
X125015785Y-131913857D01*
X125015785Y-132009095D01*
X124968166Y-132151952D01*
X124396738Y-132723380D01*
X125015785Y-132723380D01*
X125444357Y-132628142D02*
X125491976Y-132675761D01*
X125444357Y-132723380D01*
X125396738Y-132675761D01*
X125444357Y-132628142D01*
X125444357Y-132723380D01*
X126111023Y-131723380D02*
X126206261Y-131723380D01*
X126301500Y-131771000D01*
X126349119Y-131818619D01*
X126396738Y-131913857D01*
X126444357Y-132104333D01*
X126444357Y-132342428D01*
X126396738Y-132532904D01*
X126349119Y-132628142D01*
X126301500Y-132675761D01*
X126206261Y-132723380D01*
X126111023Y-132723380D01*
X126015785Y-132675761D01*
X125968166Y-132628142D01*
X125920547Y-132532904D01*
X125872928Y-132342428D01*
X125872928Y-132104333D01*
X125920547Y-131913857D01*
X125968166Y-131818619D01*
X126015785Y-131771000D01*
X126111023Y-131723380D01*
X126872928Y-132628142D02*
X126920547Y-132675761D01*
X126872928Y-132723380D01*
X126825309Y-132675761D01*
X126872928Y-132628142D01*
X126872928Y-132723380D01*
X127872928Y-132723380D02*
X127301500Y-132723380D01*
X127587214Y-132723380D02*
X127587214Y-131723380D01*
X127491976Y-131866238D01*
X127396738Y-131961476D01*
X127301500Y-132009095D01*
X113074380Y-130265761D02*
X113217238Y-130313380D01*
X113455333Y-130313380D01*
X113550571Y-130265761D01*
X113598190Y-130218142D01*
X113645809Y-130122904D01*
X113645809Y-130027666D01*
X113598190Y-129932428D01*
X113550571Y-129884809D01*
X113455333Y-129837190D01*
X113264857Y-129789571D01*
X113169619Y-129741952D01*
X113122000Y-129694333D01*
X113074380Y-129599095D01*
X113074380Y-129503857D01*
X113122000Y-129408619D01*
X113169619Y-129361000D01*
X113264857Y-129313380D01*
X113502952Y-129313380D01*
X113645809Y-129361000D01*
X113931523Y-129646714D02*
X114312476Y-129646714D01*
X114074380Y-129313380D02*
X114074380Y-130170523D01*
X114122000Y-130265761D01*
X114217238Y-130313380D01*
X114312476Y-130313380D01*
X115074380Y-130313380D02*
X115074380Y-129789571D01*
X115026761Y-129694333D01*
X114931523Y-129646714D01*
X114741047Y-129646714D01*
X114645809Y-129694333D01*
X115074380Y-130265761D02*
X114979142Y-130313380D01*
X114741047Y-130313380D01*
X114645809Y-130265761D01*
X114598190Y-130170523D01*
X114598190Y-130075285D01*
X114645809Y-129980047D01*
X114741047Y-129932428D01*
X114979142Y-129932428D01*
X115074380Y-129884809D01*
X115550571Y-130313380D02*
X115550571Y-129646714D01*
X115550571Y-129837190D02*
X115598190Y-129741952D01*
X115645809Y-129694333D01*
X115741047Y-129646714D01*
X115836285Y-129646714D01*
X116169619Y-130313380D02*
X116169619Y-129313380D01*
X116169619Y-129694333D02*
X116264857Y-129646714D01*
X116455333Y-129646714D01*
X116550571Y-129694333D01*
X116598190Y-129741952D01*
X116645809Y-129837190D01*
X116645809Y-130122904D01*
X116598190Y-130218142D01*
X116550571Y-130265761D01*
X116455333Y-130313380D01*
X116264857Y-130313380D01*
X116169619Y-130265761D01*
X117217238Y-130313380D02*
X117122000Y-130265761D01*
X117074380Y-130170523D01*
X117074380Y-129313380D01*
X117741047Y-130313380D02*
X117645809Y-130265761D01*
X117598190Y-130218142D01*
X117550571Y-130122904D01*
X117550571Y-129837190D01*
X117598190Y-129741952D01*
X117645809Y-129694333D01*
X117741047Y-129646714D01*
X117883904Y-129646714D01*
X117979142Y-129694333D01*
X118026761Y-129741952D01*
X118074380Y-129837190D01*
X118074380Y-130122904D01*
X118026761Y-130218142D01*
X117979142Y-130265761D01*
X117883904Y-130313380D01*
X117741047Y-130313380D01*
X118931523Y-130265761D02*
X118836285Y-130313380D01*
X118645809Y-130313380D01*
X118550571Y-130265761D01*
X118502952Y-130218142D01*
X118455333Y-130122904D01*
X118455333Y-129837190D01*
X118502952Y-129741952D01*
X118550571Y-129694333D01*
X118645809Y-129646714D01*
X118836285Y-129646714D01*
X118931523Y-129694333D01*
X119360095Y-130313380D02*
X119360095Y-129313380D01*
X119455333Y-129932428D02*
X119741047Y-130313380D01*
X119741047Y-129646714D02*
X119360095Y-130027666D01*
X120931523Y-130313380D02*
X120931523Y-129313380D01*
X121312476Y-129313380D01*
X121407714Y-129361000D01*
X121455333Y-129408619D01*
X121502952Y-129503857D01*
X121502952Y-129646714D01*
X121455333Y-129741952D01*
X121407714Y-129789571D01*
X121312476Y-129837190D01*
X120931523Y-129837190D01*
X121788666Y-129646714D02*
X122169619Y-129646714D01*
X121931523Y-129313380D02*
X121931523Y-130170523D01*
X121979142Y-130265761D01*
X122074380Y-130313380D01*
X122169619Y-130313380D01*
X122407714Y-129646714D02*
X122645809Y-130313380D01*
X122883904Y-129646714D02*
X122645809Y-130313380D01*
X122550571Y-130551476D01*
X122502952Y-130599095D01*
X122407714Y-130646714D01*
X124502952Y-130313380D02*
X124026761Y-130313380D01*
X124026761Y-129313380D01*
X124693428Y-129646714D02*
X125074380Y-129646714D01*
X124836285Y-129313380D02*
X124836285Y-130170523D01*
X124883904Y-130265761D01*
X124979142Y-130313380D01*
X125074380Y-130313380D01*
X125836285Y-130313380D02*
X125836285Y-129313380D01*
X125836285Y-130265761D02*
X125741047Y-130313380D01*
X125550571Y-130313380D01*
X125455333Y-130265761D01*
X125407714Y-130218142D01*
X125360095Y-130122904D01*
X125360095Y-129837190D01*
X125407714Y-129741952D01*
X125455333Y-129694333D01*
X125550571Y-129646714D01*
X125741047Y-129646714D01*
X125836285Y-129694333D01*
X127883904Y-129551476D02*
X127788666Y-129503857D01*
X127598190Y-129503857D01*
X127502952Y-129551476D01*
X127407714Y-129646714D01*
X127360095Y-129741952D01*
X127360095Y-129932428D01*
X127407714Y-130027666D01*
X127502952Y-130122904D01*
X127598190Y-130170523D01*
X127788666Y-130170523D01*
X127883904Y-130122904D01*
X127693428Y-129170523D02*
X127455333Y-129218142D01*
X127217238Y-129361000D01*
X127074380Y-129599095D01*
X127026761Y-129837190D01*
X127074380Y-130075285D01*
X127217238Y-130313380D01*
X127455333Y-130456238D01*
X127693428Y-130503857D01*
X127931523Y-130456238D01*
X128169619Y-130313380D01*
X128312476Y-130075285D01*
X128360095Y-129837190D01*
X128312476Y-129599095D01*
X128169619Y-129361000D01*
X127931523Y-129218142D01*
X127693428Y-129170523D01*
X128741047Y-129408619D02*
X128788666Y-129361000D01*
X128883904Y-129313380D01*
X129122000Y-129313380D01*
X129217238Y-129361000D01*
X129264857Y-129408619D01*
X129312476Y-129503857D01*
X129312476Y-129599095D01*
X129264857Y-129741952D01*
X128693428Y-130313380D01*
X129312476Y-130313380D01*
X129931523Y-129313380D02*
X130026761Y-129313380D01*
X130122000Y-129361000D01*
X130169619Y-129408619D01*
X130217238Y-129503857D01*
X130264857Y-129694333D01*
X130264857Y-129932428D01*
X130217238Y-130122904D01*
X130169619Y-130218142D01*
X130122000Y-130265761D01*
X130026761Y-130313380D01*
X129931523Y-130313380D01*
X129836285Y-130265761D01*
X129788666Y-130218142D01*
X129741047Y-130122904D01*
X129693428Y-129932428D01*
X129693428Y-129694333D01*
X129741047Y-129503857D01*
X129788666Y-129408619D01*
X129836285Y-129361000D01*
X129931523Y-129313380D01*
X130645809Y-129408619D02*
X130693428Y-129361000D01*
X130788666Y-129313380D01*
X131026761Y-129313380D01*
X131122000Y-129361000D01*
X131169619Y-129408619D01*
X131217238Y-129503857D01*
X131217238Y-129599095D01*
X131169619Y-129741952D01*
X130598190Y-130313380D01*
X131217238Y-130313380D01*
X131836285Y-129313380D02*
X131931523Y-129313380D01*
X132026761Y-129361000D01*
X132074380Y-129408619D01*
X132122000Y-129503857D01*
X132169619Y-129694333D01*
X132169619Y-129932428D01*
X132122000Y-130122904D01*
X132074380Y-130218142D01*
X132026761Y-130265761D01*
X131931523Y-130313380D01*
X131836285Y-130313380D01*
X131741047Y-130265761D01*
X131693428Y-130218142D01*
X131645809Y-130122904D01*
X131598190Y-129932428D01*
X131598190Y-129694333D01*
X131645809Y-129503857D01*
X131693428Y-129408619D01*
X131741047Y-129361000D01*
X131836285Y-129313380D01*
D11*
%TO.C,REF\u002A\u002A*%
X186690000Y-82042000D03*
D12*
X184150000Y-82042000D03*
X186690000Y-79502000D03*
X184150000Y-79502000D03*
X186690000Y-76962000D03*
X184150000Y-76962000D03*
X186690000Y-74422000D03*
X184150000Y-74422000D03*
X186690000Y-71882000D03*
X184150000Y-71882000D03*
X186690000Y-69342000D03*
X184150000Y-69342000D03*
X186690000Y-66802000D03*
X184150000Y-66802000D03*
X186690000Y-64262000D03*
X184150000Y-64262000D03*
X186690000Y-61722000D03*
X184150000Y-61722000D03*
X186690000Y-59182000D03*
X184150000Y-59182000D03*
%TD*%
D13*
%TO.C,R1*%
X178496000Y-84518500D03*
X176596000Y-84518500D03*
%TD*%
D14*
%TO.C,R2*%
X132080000Y-118693500D03*
X132080000Y-120193500D03*
%TD*%
D15*
%TO.C,LED*%
X132080000Y-127825500D03*
X132080000Y-126325500D03*
%TD*%
D14*
%TO.C,R2*%
X121412000Y-120181500D03*
X121412000Y-118681500D03*
%TD*%
%TO.C,R2*%
X130556000Y-120193500D03*
X130556000Y-118693500D03*
%TD*%
%TO.C,R2*%
X129032000Y-118693500D03*
X129032000Y-120193500D03*
%TD*%
%TO.C,R2*%
X127508000Y-120193500D03*
X127508000Y-118693500D03*
%TD*%
%TO.C,R2*%
X125984000Y-118693500D03*
X125984000Y-120193500D03*
%TD*%
%TO.C,R2*%
X124460000Y-120193500D03*
X124460000Y-118693500D03*
%TD*%
%TO.C,R2*%
X122936000Y-118693500D03*
X122936000Y-120193500D03*
%TD*%
D15*
%TO.C,LED*%
X130556000Y-126325500D03*
X130556000Y-127825500D03*
%TD*%
%TO.C,LED*%
X129032000Y-127825500D03*
X129032000Y-126325500D03*
%TD*%
%TO.C,LED*%
X127508000Y-126325500D03*
X127508000Y-127825500D03*
%TD*%
%TO.C,LED*%
X125984000Y-127825500D03*
X125984000Y-126325500D03*
%TD*%
%TO.C,LED*%
X124460000Y-126325500D03*
X124460000Y-127825500D03*
%TD*%
%TO.C,LED*%
X122936000Y-127813500D03*
X122936000Y-126313500D03*
%TD*%
%TO.C,LED*%
X121412000Y-126325500D03*
X121412000Y-127825500D03*
%TD*%
D13*
%TO.C,0805*%
X178493500Y-79438500D03*
X176593500Y-79438500D03*
%TD*%
%TO.C,0805*%
X176596000Y-81978500D03*
X178496000Y-81978500D03*
%TD*%
D16*
%TO.C,0805*%
X151320500Y-88199000D03*
X151320500Y-86299000D03*
%TD*%
D13*
%TO.C,REF\u002A\u002A*%
X184470000Y-54610000D03*
X186370000Y-54610000D03*
%TD*%
D17*
%TO.C,REF\u002A\u002A*%
X196596000Y-54205500D03*
X196596000Y-56705500D03*
X196596000Y-59205500D03*
%TD*%
D16*
%TO.C,0805*%
X151320500Y-80647500D03*
X151320500Y-82547500D03*
%TD*%
D18*
%TO.C,0603*%
X165278500Y-54483000D03*
X163778500Y-54483000D03*
%TD*%
%TO.C,0603*%
X163778500Y-52959000D03*
X165278500Y-52959000D03*
%TD*%
D15*
%TO.C,LED*%
X157301500Y-121475500D03*
X158801500Y-121475500D03*
%TD*%
D18*
%TO.C,R2*%
X155182000Y-121475500D03*
X153682000Y-121475500D03*
%TD*%
D11*
%TO.C,uC RST CTL*%
X141605000Y-74358500D03*
D12*
X141605000Y-76898500D03*
X141605000Y-79438500D03*
%TD*%
D18*
%TO.C,REF\u002A\u002A*%
X178332000Y-97155000D03*
X179832000Y-97155000D03*
%TD*%
%TO.C,REF\u002A\u002A*%
X179808000Y-95504000D03*
X178308000Y-95504000D03*
%TD*%
D19*
%TO.C,ATTINY85*%
X153670000Y-49784000D03*
X156210000Y-49784000D03*
X158750000Y-49784000D03*
X161290000Y-49784000D03*
X161290000Y-42164000D03*
X158750000Y-42164000D03*
X156210000Y-42164000D03*
D20*
X153670000Y-42164000D03*
%TD*%
D12*
%TO.C,REF\u002A\u002A*%
X187452000Y-102997000D03*
X187452000Y-100457000D03*
X187452000Y-97917000D03*
D11*
X187452000Y-95377000D03*
%TD*%
%TO.C,REF\u002A\u002A*%
X123952000Y-52578000D03*
D12*
X121412000Y-52578000D03*
X118872000Y-52578000D03*
X116332000Y-52578000D03*
%TD*%
D21*
%TO.C,REF\u002A\u002A*%
X161941190Y-126145610D03*
X160350200Y-125486600D03*
X158759210Y-126145610D03*
X158100200Y-127736600D03*
X158759210Y-129327590D03*
X160350200Y-129986600D03*
X161941190Y-129327590D03*
X162600200Y-127736600D03*
D22*
X160350200Y-127736600D03*
%TD*%
D14*
%TO.C,REF\u002A\u002A*%
X163576000Y-45200000D03*
X163576000Y-43700000D03*
%TD*%
D15*
%TO.C,LED*%
X163576000Y-40779000D03*
X163576000Y-42279000D03*
%TD*%
D23*
%TO.C,5V Tie*%
X164592000Y-74295000D03*
X164612000Y-71755000D03*
%TD*%
%TO.C,Vout Tie*%
X138049000Y-114046000D03*
X138069000Y-111506000D03*
%TD*%
%TO.C,Vin Tie*%
X164617400Y-64135000D03*
X164597400Y-66675000D03*
%TD*%
D24*
%TO.C,C1*%
X114197000Y-67183000D03*
D25*
X115697000Y-67183000D03*
%TD*%
D23*
%TO.C,3V3 Tie*%
X164572000Y-94615000D03*
X164592000Y-92075000D03*
%TD*%
D12*
%TO.C,RPI2-40*%
X163322000Y-56896000D03*
X163322000Y-59436000D03*
X160782000Y-56896000D03*
X160782000Y-59436000D03*
X158242000Y-56896000D03*
X158242000Y-59436000D03*
X155702000Y-56896000D03*
X155702000Y-59436000D03*
X153162000Y-56896000D03*
X153162000Y-59436000D03*
X150622000Y-56896000D03*
X150622000Y-59436000D03*
X148082000Y-56896000D03*
X148082000Y-59436000D03*
X145542000Y-56896000D03*
X145542000Y-59436000D03*
X143002000Y-56896000D03*
X143002000Y-59436000D03*
X140462000Y-56896000D03*
X140462000Y-59436000D03*
X137922000Y-56896000D03*
X137922000Y-59436000D03*
X135382000Y-56896000D03*
X135382000Y-59436000D03*
X132842000Y-56896000D03*
X132842000Y-59436000D03*
X130302000Y-56896000D03*
X130302000Y-59436000D03*
X127762000Y-56896000D03*
X127762000Y-59436000D03*
X125222000Y-56896000D03*
X125222000Y-59436000D03*
X122682000Y-56896000D03*
X122682000Y-59436000D03*
X120142000Y-56896000D03*
X120142000Y-59436000D03*
X117602000Y-56896000D03*
X117602000Y-59436000D03*
X115062000Y-56896000D03*
D11*
X115062000Y-59436000D03*
%TD*%
D12*
%TO.C,REF\u002A\u002A*%
X128270000Y-52578000D03*
X130810000Y-52578000D03*
X133350000Y-52578000D03*
D11*
X135890000Y-52578000D03*
%TD*%
D26*
%TO.C,OFF*%
X128016000Y-64895000D03*
X128016000Y-69595000D03*
D27*
X128016000Y-74295000D03*
%TD*%
D25*
%TO.C,C2*%
X115722400Y-72263000D03*
D24*
X114222400Y-72263000D03*
%TD*%
D19*
%TO.C,U3*%
X180340000Y-59120000D03*
X180340000Y-61660000D03*
X180340000Y-64200000D03*
X180340000Y-66740000D03*
X180340000Y-69280000D03*
X180340000Y-71820000D03*
X180340000Y-74360000D03*
X180340000Y-76900000D03*
X180340000Y-79440000D03*
X180340000Y-81980000D03*
X180340000Y-84520000D03*
X180340000Y-87060000D03*
X180340000Y-89600000D03*
X180340000Y-92140000D03*
X172720000Y-92140000D03*
X172720000Y-89600000D03*
X172720000Y-87060000D03*
X172720000Y-84520000D03*
X172720000Y-81980000D03*
X172720000Y-79440000D03*
X172720000Y-76900000D03*
X172720000Y-74360000D03*
X172720000Y-71820000D03*
X172720000Y-69280000D03*
X172720000Y-66740000D03*
X172720000Y-64200000D03*
X172720000Y-61660000D03*
D20*
X172720000Y-59120000D03*
%TD*%
D11*
%TO.C,REF\u002A\u002A*%
X137668000Y-71882000D03*
D12*
X137668000Y-69342000D03*
X137668000Y-66802000D03*
X137668000Y-64262000D03*
%TD*%
D28*
%TO.C,d*%
X134366000Y-116586000D03*
D29*
X119126000Y-78486000D03*
X134366000Y-114046000D03*
X119126000Y-81026000D03*
X119126000Y-86106000D03*
X134366000Y-106426000D03*
X119126000Y-88646000D03*
X134366000Y-103886000D03*
X119126000Y-101346000D03*
X119126000Y-103886000D03*
X119126000Y-108966000D03*
X134366000Y-83566000D03*
X119126000Y-111506000D03*
X134366000Y-81026000D03*
X119126000Y-114046000D03*
X134366000Y-78486000D03*
X119126000Y-116586000D03*
%TD*%
D20*
%TO.C,C1*%
X128651000Y-110363000D03*
D19*
X126151000Y-110363000D03*
%TD*%
D30*
%TO.C,REF\u002A\u002A*%
X183896000Y-104394000D03*
D31*
X181356000Y-104394000D03*
%TD*%
%TO.C,REF\u002A\u002A*%
X176022000Y-104394000D03*
D30*
X178562000Y-104394000D03*
%TD*%
%TO.C,REF\u002A\u002A*%
X173228000Y-104394000D03*
D31*
X170688000Y-104394000D03*
%TD*%
%TO.C,REF\u002A\u002A*%
X165354000Y-104394000D03*
D30*
X167894000Y-104394000D03*
%TD*%
D11*
%TO.C,REF\u002A\u002A*%
X113284000Y-91186000D03*
D12*
X113284000Y-93726000D03*
X113284000Y-96266000D03*
X113284000Y-98806000D03*
X113284000Y-101346000D03*
X113284000Y-103886000D03*
%TD*%
D30*
%TO.C,REF\u002A\u002A*%
X156768800Y-137439400D03*
D31*
X156768800Y-134899400D03*
%TD*%
D32*
%TO.C,Ref\u002A\u002A*%
X131662000Y-42870000D03*
X149262000Y-42870000D03*
D33*
X135462000Y-46030000D03*
X145462000Y-46030000D03*
X137962000Y-46030000D03*
X140462000Y-46030000D03*
X142962000Y-46030000D03*
%TD*%
%TO.C,Ref\u002A\u002A*%
X120610000Y-46030000D03*
X118110000Y-46030000D03*
X115610000Y-46030000D03*
X123110000Y-46030000D03*
X113110000Y-46030000D03*
D32*
X126910000Y-42870000D03*
X109310000Y-42870000D03*
%TD*%
D34*
%TO.C,REF\u002A\u002A*%
X153873200Y-67284600D03*
%TD*%
D20*
%TO.C,REF\u002A\u002A*%
X146215100Y-66700400D03*
D35*
X161455100Y-99720400D03*
X146215100Y-69240400D03*
X161455100Y-97180400D03*
X146215100Y-71780400D03*
X161455100Y-94640400D03*
X146215100Y-74320400D03*
X161455100Y-92100400D03*
X146215100Y-76860400D03*
X161455100Y-89560400D03*
X146215100Y-79400400D03*
X161455100Y-87020400D03*
X146215100Y-81940400D03*
X161455100Y-84480400D03*
X146215100Y-84480400D03*
X161455100Y-81940400D03*
X146215100Y-87020400D03*
X161455100Y-79400400D03*
X146215100Y-89560400D03*
X161455100Y-76860400D03*
X146215100Y-92100400D03*
X161455100Y-74320400D03*
X146215100Y-94640400D03*
X161455100Y-71780400D03*
X146215100Y-97180400D03*
X161455100Y-69240400D03*
X146215100Y-99720400D03*
X161455100Y-66700400D03*
X146215100Y-102260400D03*
X161455100Y-102260400D03*
%TD*%
D17*
%TO.C,REF\u002A\u002A*%
X171704000Y-102108000D03*
D36*
X171704000Y-99568000D03*
%TD*%
D37*
%TO.C,CON2*%
X107950000Y-88060000D03*
D38*
X107950000Y-91870000D03*
X107950000Y-95680000D03*
X107950000Y-99490000D03*
X107950000Y-103300000D03*
X107950000Y-107110000D03*
%TD*%
D39*
%TO.C,REF\u002A\u002A*%
X126746000Y-97282000D03*
X129286000Y-97282000D03*
D40*
X124206000Y-97282000D03*
%TD*%
D30*
%TO.C,R2*%
X129286000Y-93218000D03*
D31*
X126746000Y-93218000D03*
%TD*%
D41*
%TO.C,5v REG*%
X120142000Y-67183000D03*
D42*
X120142000Y-69723000D03*
X120142000Y-72263000D03*
%TD*%
D17*
%TO.C,REF\u002A\u002A*%
X160578800Y-137388600D03*
D36*
X160578800Y-134848600D03*
%TD*%
%TO.C,REF\u002A\u002A*%
X166370000Y-99568000D03*
D17*
X166370000Y-102108000D03*
%TD*%
%TO.C,REF\u002A\u002A*%
X177038000Y-102106000D03*
D36*
X177038000Y-99566000D03*
%TD*%
%TO.C,REF\u002A\u002A*%
X182372000Y-99486000D03*
D17*
X182372000Y-102026000D03*
%TD*%
D38*
%TO.C,CON6*%
X192024000Y-93218000D03*
X192024000Y-97028000D03*
X192024000Y-100838000D03*
D37*
X192024000Y-104648000D03*
%TD*%
D38*
%TO.C,CON3*%
X107950000Y-78430000D03*
D37*
X107950000Y-74620000D03*
%TD*%
%TO.C,CON5*%
X192024000Y-128570000D03*
D38*
X192024000Y-124760000D03*
X192024000Y-120950000D03*
X192024000Y-117140000D03*
X192024000Y-113330000D03*
%TD*%
D37*
%TO.C,CON7*%
X192024000Y-85340000D03*
D38*
X192024000Y-81530000D03*
X192024000Y-77720000D03*
X192024000Y-73910000D03*
X192024000Y-70100000D03*
X192024000Y-66290000D03*
X192024000Y-62480000D03*
X192024000Y-58670000D03*
X192024000Y-54860000D03*
X192024000Y-51050000D03*
%TD*%
D37*
%TO.C,CON1*%
X107950000Y-115062000D03*
D38*
X107950000Y-118872000D03*
X107950000Y-122682000D03*
X107950000Y-126492000D03*
%TD*%
D37*
%TO.C,CON4*%
X107950000Y-61510000D03*
D38*
X107950000Y-65320000D03*
%TD*%
D21*
%TO.C,REF\u002A\u002A*%
X105416980Y-134486020D03*
X103825990Y-133827010D03*
X102235000Y-134486020D03*
X101575990Y-136077010D03*
X102235000Y-137668000D03*
X103825990Y-138327010D03*
X105416980Y-137668000D03*
X106075990Y-136077010D03*
D22*
X103825990Y-136077010D03*
%TD*%
%TO.C,REF\u002A\u002A*%
X196088000Y-136017000D03*
D21*
X198338000Y-136017000D03*
X197678990Y-137607990D03*
X196088000Y-138267000D03*
X194497010Y-137607990D03*
X193838000Y-136017000D03*
X194497010Y-134426010D03*
X196088000Y-133767000D03*
X197678990Y-134426010D03*
%TD*%
%TO.C,REF\u002A\u002A*%
X197678990Y-41843010D03*
X196088000Y-41184000D03*
X194497010Y-41843010D03*
X193838000Y-43434000D03*
X194497010Y-45024990D03*
X196088000Y-45684000D03*
X197678990Y-45024990D03*
X198338000Y-43434000D03*
D22*
X196088000Y-43434000D03*
%TD*%
%TO.C,REF\u002A\u002A*%
X103886000Y-43434000D03*
D21*
X106136000Y-43434000D03*
X105476990Y-45024990D03*
X103886000Y-45684000D03*
X102295010Y-45024990D03*
X101636000Y-43434000D03*
X102295010Y-41843010D03*
X103886000Y-41184000D03*
X105476990Y-41843010D03*
%TD*%
D20*
%TO.C,REF\u002A\u002A*%
X184860000Y-42240000D03*
D35*
X167080000Y-49860000D03*
X182320000Y-42240000D03*
X169620000Y-49860000D03*
X179780000Y-42240000D03*
X172160000Y-49860000D03*
X177240000Y-42240000D03*
X174700000Y-49860000D03*
X174700000Y-42240000D03*
X177240000Y-49860000D03*
X172160000Y-42240000D03*
X179780000Y-49860000D03*
X169620000Y-42240000D03*
X182320000Y-49860000D03*
X167080000Y-42240000D03*
X184860000Y-49860000D03*
%TD*%
D41*
%TO.C,BUZZ1*%
X153309000Y-46101000D03*
D42*
X160909000Y-46101000D03*
%TD*%
D43*
%TO.C,REF\u002A\u002A*%
X179904000Y-130556000D03*
X179904000Y-137056000D03*
X184404000Y-137056000D03*
D44*
X184404000Y-130556000D03*
%TD*%
D43*
%TO.C,REF\u002A\u002A*%
X167050000Y-130650000D03*
X167050000Y-137150000D03*
X171550000Y-137150000D03*
D44*
X171550000Y-130650000D03*
%TD*%
D42*
%TO.C,REF\u002A\u002A*%
X139140000Y-133930000D03*
X139140000Y-131430000D03*
X139140000Y-128930000D03*
X153640000Y-133930000D03*
X153640000Y-128930000D03*
D45*
X146640000Y-137130000D03*
X146640000Y-125730000D03*
%TD*%
D19*
%TO.C,U2*%
X161290000Y-111760000D03*
X161290000Y-119380000D03*
X143510000Y-111760000D03*
X146050000Y-111760000D03*
X148590000Y-111760000D03*
X151130000Y-111760000D03*
X153670000Y-111760000D03*
X156210000Y-111760000D03*
X158750000Y-111760000D03*
X158750000Y-119380000D03*
X156210000Y-119380000D03*
X153670000Y-119380000D03*
X151130000Y-119380000D03*
X148590000Y-119380000D03*
X146050000Y-119380000D03*
D20*
X143510000Y-119380000D03*
%TD*%
D19*
%TO.C,U1*%
X166370000Y-111760000D03*
X168910000Y-111760000D03*
X171450000Y-111760000D03*
X173990000Y-111760000D03*
X176530000Y-111760000D03*
X179070000Y-111760000D03*
X181610000Y-111760000D03*
X181610000Y-119380000D03*
X179070000Y-119380000D03*
X176530000Y-119380000D03*
X173990000Y-119380000D03*
X171450000Y-119380000D03*
X168910000Y-119380000D03*
D20*
X166370000Y-119380000D03*
%TD*%
M02*
