%TF.GenerationSoftware,KiCad,Pcbnew,(5.1.6)-1*%
%TF.CreationDate,2020-11-08T21:19:26+11:00*%
%TF.ProjectId,mc13clk,6d633133-636c-46b2-9e6b-696361645f70,rev?*%
%TF.SameCoordinates,Original*%
%TF.FileFunction,Soldermask,Bot*%
%TF.FilePolarity,Negative*%
%FSLAX46Y46*%
G04 Gerber Fmt 4.6, Leading zero omitted, Abs format (unit mm)*
G04 Created by KiCad (PCBNEW (5.1.6)-1) date 2020-11-08 21:19:26*
%MOMM*%
%LPD*%
G01*
G04 APERTURE LIST*
%ADD10C,0.150000*%
%ADD11C,0.010000*%
%ADD12R,1.900000X1.600000*%
%ADD13R,1.800000X1.800000*%
%ADD14O,1.800000X1.800000*%
%ADD15C,1.624000*%
%ADD16R,1.400000X0.800000*%
%ADD17C,1.900000*%
%ADD18R,1.000000X1.800000*%
%ADD19R,0.600000X1.000000*%
%ADD20R,0.800000X1.400000*%
%ADD21R,1.000000X0.600000*%
%ADD22R,1.600000X1.900000*%
%ADD23C,1.700000*%
%ADD24R,1.700000X1.700000*%
%ADD25C,0.900000*%
%ADD26C,6.100000*%
%ADD27C,1.300000*%
%ADD28R,1.300000X1.300000*%
%ADD29C,2.950000*%
%ADD30R,2.950000X2.950000*%
%ADD31R,2.500000X1.700000*%
%ADD32O,2.500000X1.700000*%
%ADD33R,0.850000X0.900000*%
%ADD34R,0.608000X1.243000*%
%ADD35O,1.500000X1.500000*%
%ADD36C,1.500000*%
%ADD37C,4.100000*%
%ADD38O,1.700000X1.700000*%
%ADD39R,1.900000X1.900000*%
%ADD40R,3.700000X1.900000*%
%ADD41O,3.700000X1.900000*%
%ADD42C,1.620000*%
%ADD43R,1.620000X1.620000*%
%ADD44R,2.100000X2.100000*%
%ADD45C,2.100000*%
%ADD46C,2.300000*%
%ADD47R,2.300000X2.300000*%
%ADD48R,3.700000X2.900000*%
G04 APERTURE END LIST*
D10*
X135591619Y-45810761D02*
X135448761Y-45858380D01*
X135210666Y-45858380D01*
X135115428Y-45810761D01*
X135067809Y-45763142D01*
X135020190Y-45667904D01*
X135020190Y-45572666D01*
X135067809Y-45477428D01*
X135115428Y-45429809D01*
X135210666Y-45382190D01*
X135401142Y-45334571D01*
X135496380Y-45286952D01*
X135544000Y-45239333D01*
X135591619Y-45144095D01*
X135591619Y-45048857D01*
X135544000Y-44953619D01*
X135496380Y-44906000D01*
X135401142Y-44858380D01*
X135163047Y-44858380D01*
X135020190Y-44906000D01*
X134734476Y-45191714D02*
X134353523Y-45191714D01*
X134591619Y-44858380D02*
X134591619Y-45715523D01*
X134544000Y-45810761D01*
X134448761Y-45858380D01*
X134353523Y-45858380D01*
X133591619Y-45858380D02*
X133591619Y-45334571D01*
X133639238Y-45239333D01*
X133734476Y-45191714D01*
X133924952Y-45191714D01*
X134020190Y-45239333D01*
X133591619Y-45810761D02*
X133686857Y-45858380D01*
X133924952Y-45858380D01*
X134020190Y-45810761D01*
X134067809Y-45715523D01*
X134067809Y-45620285D01*
X134020190Y-45525047D01*
X133924952Y-45477428D01*
X133686857Y-45477428D01*
X133591619Y-45429809D01*
X133115428Y-45858380D02*
X133115428Y-45191714D01*
X133115428Y-45382190D02*
X133067809Y-45286952D01*
X133020190Y-45239333D01*
X132924952Y-45191714D01*
X132829714Y-45191714D01*
X132496380Y-45858380D02*
X132496380Y-44858380D01*
X132496380Y-45239333D02*
X132401142Y-45191714D01*
X132210666Y-45191714D01*
X132115428Y-45239333D01*
X132067809Y-45286952D01*
X132020190Y-45382190D01*
X132020190Y-45667904D01*
X132067809Y-45763142D01*
X132115428Y-45810761D01*
X132210666Y-45858380D01*
X132401142Y-45858380D01*
X132496380Y-45810761D01*
X131448761Y-45858380D02*
X131544000Y-45810761D01*
X131591619Y-45715523D01*
X131591619Y-44858380D01*
X130924952Y-45858380D02*
X131020190Y-45810761D01*
X131067809Y-45763142D01*
X131115428Y-45667904D01*
X131115428Y-45382190D01*
X131067809Y-45286952D01*
X131020190Y-45239333D01*
X130924952Y-45191714D01*
X130782095Y-45191714D01*
X130686857Y-45239333D01*
X130639238Y-45286952D01*
X130591619Y-45382190D01*
X130591619Y-45667904D01*
X130639238Y-45763142D01*
X130686857Y-45810761D01*
X130782095Y-45858380D01*
X130924952Y-45858380D01*
X129734476Y-45810761D02*
X129829714Y-45858380D01*
X130020190Y-45858380D01*
X130115428Y-45810761D01*
X130163047Y-45763142D01*
X130210666Y-45667904D01*
X130210666Y-45382190D01*
X130163047Y-45286952D01*
X130115428Y-45239333D01*
X130020190Y-45191714D01*
X129829714Y-45191714D01*
X129734476Y-45239333D01*
X129305904Y-45858380D02*
X129305904Y-44858380D01*
X129210666Y-45477428D02*
X128924952Y-45858380D01*
X128924952Y-45191714D02*
X129305904Y-45572666D01*
X127734476Y-45858380D02*
X127734476Y-44858380D01*
X127353523Y-44858380D01*
X127258285Y-44906000D01*
X127210666Y-44953619D01*
X127163047Y-45048857D01*
X127163047Y-45191714D01*
X127210666Y-45286952D01*
X127258285Y-45334571D01*
X127353523Y-45382190D01*
X127734476Y-45382190D01*
X126877333Y-45191714D02*
X126496380Y-45191714D01*
X126734476Y-44858380D02*
X126734476Y-45715523D01*
X126686857Y-45810761D01*
X126591619Y-45858380D01*
X126496380Y-45858380D01*
X126258285Y-45191714D02*
X126020190Y-45858380D01*
X125782095Y-45191714D02*
X126020190Y-45858380D01*
X126115428Y-46096476D01*
X126163047Y-46144095D01*
X126258285Y-46191714D01*
X124163047Y-45858380D02*
X124639238Y-45858380D01*
X124639238Y-44858380D01*
X123972571Y-45191714D02*
X123591619Y-45191714D01*
X123829714Y-44858380D02*
X123829714Y-45715523D01*
X123782095Y-45810761D01*
X123686857Y-45858380D01*
X123591619Y-45858380D01*
X122829714Y-45858380D02*
X122829714Y-44858380D01*
X122829714Y-45810761D02*
X122924952Y-45858380D01*
X123115428Y-45858380D01*
X123210666Y-45810761D01*
X123258285Y-45763142D01*
X123305904Y-45667904D01*
X123305904Y-45382190D01*
X123258285Y-45286952D01*
X123210666Y-45239333D01*
X123115428Y-45191714D01*
X122924952Y-45191714D01*
X122829714Y-45239333D01*
X120782095Y-45096476D02*
X120877333Y-45048857D01*
X121067809Y-45048857D01*
X121163047Y-45096476D01*
X121258285Y-45191714D01*
X121305904Y-45286952D01*
X121305904Y-45477428D01*
X121258285Y-45572666D01*
X121163047Y-45667904D01*
X121067809Y-45715523D01*
X120877333Y-45715523D01*
X120782095Y-45667904D01*
X120972571Y-44715523D02*
X121210666Y-44763142D01*
X121448761Y-44906000D01*
X121591619Y-45144095D01*
X121639238Y-45382190D01*
X121591619Y-45620285D01*
X121448761Y-45858380D01*
X121210666Y-46001238D01*
X120972571Y-46048857D01*
X120734476Y-46001238D01*
X120496380Y-45858380D01*
X120353523Y-45620285D01*
X120305904Y-45382190D01*
X120353523Y-45144095D01*
X120496380Y-44906000D01*
X120734476Y-44763142D01*
X120972571Y-44715523D01*
X119924952Y-44953619D02*
X119877333Y-44906000D01*
X119782095Y-44858380D01*
X119544000Y-44858380D01*
X119448761Y-44906000D01*
X119401142Y-44953619D01*
X119353523Y-45048857D01*
X119353523Y-45144095D01*
X119401142Y-45286952D01*
X119972571Y-45858380D01*
X119353523Y-45858380D01*
X118734476Y-44858380D02*
X118639238Y-44858380D01*
X118544000Y-44906000D01*
X118496380Y-44953619D01*
X118448761Y-45048857D01*
X118401142Y-45239333D01*
X118401142Y-45477428D01*
X118448761Y-45667904D01*
X118496380Y-45763142D01*
X118544000Y-45810761D01*
X118639238Y-45858380D01*
X118734476Y-45858380D01*
X118829714Y-45810761D01*
X118877333Y-45763142D01*
X118924952Y-45667904D01*
X118972571Y-45477428D01*
X118972571Y-45239333D01*
X118924952Y-45048857D01*
X118877333Y-44953619D01*
X118829714Y-44906000D01*
X118734476Y-44858380D01*
X118020190Y-44953619D02*
X117972571Y-44906000D01*
X117877333Y-44858380D01*
X117639238Y-44858380D01*
X117544000Y-44906000D01*
X117496380Y-44953619D01*
X117448761Y-45048857D01*
X117448761Y-45144095D01*
X117496380Y-45286952D01*
X118067809Y-45858380D01*
X117448761Y-45858380D01*
X116829714Y-44858380D02*
X116734476Y-44858380D01*
X116639238Y-44906000D01*
X116591619Y-44953619D01*
X116544000Y-45048857D01*
X116496380Y-45239333D01*
X116496380Y-45477428D01*
X116544000Y-45667904D01*
X116591619Y-45763142D01*
X116639238Y-45810761D01*
X116734476Y-45858380D01*
X116829714Y-45858380D01*
X116924952Y-45810761D01*
X116972571Y-45763142D01*
X117020190Y-45667904D01*
X117067809Y-45477428D01*
X117067809Y-45239333D01*
X117020190Y-45048857D01*
X116972571Y-44953619D01*
X116924952Y-44906000D01*
X116829714Y-44858380D01*
X115394000Y-44436000D02*
X136424000Y-44436000D01*
X136394000Y-46436000D02*
X115394000Y-46436000D01*
X136424000Y-44436000D02*
X136424000Y-46416000D01*
X115394000Y-46436000D02*
X115394000Y-44436000D01*
D11*
%TO.C,REF\u002A\u002A*%
G36*
X109626400Y-45254747D02*
G01*
X109626400Y-45800059D01*
X109827787Y-45601279D01*
X110190691Y-45271571D01*
X110464815Y-45057151D01*
X110568400Y-44978703D01*
X110688529Y-44884144D01*
X110812202Y-44784050D01*
X110926419Y-44688998D01*
X111018181Y-44609566D01*
X111045760Y-44584468D01*
X111133212Y-44503036D01*
X111224356Y-44572994D01*
X111413604Y-44708436D01*
X111553050Y-44795978D01*
X111635286Y-44850848D01*
X111714612Y-44912124D01*
X111720607Y-44917273D01*
X111803581Y-44986222D01*
X111906137Y-45066747D01*
X112016288Y-45149942D01*
X112122047Y-45226902D01*
X112211425Y-45288719D01*
X112268547Y-45324376D01*
X112321596Y-45359457D01*
X112400062Y-45417986D01*
X112491252Y-45489820D01*
X112582472Y-45564815D01*
X112661032Y-45632828D01*
X112700020Y-45669200D01*
X112726081Y-45693089D01*
X112773406Y-45735363D01*
X112782570Y-45743477D01*
X112852200Y-45805055D01*
X112852200Y-44678600D01*
X112773923Y-44678600D01*
X112697395Y-44661837D01*
X112592149Y-44614607D01*
X112466239Y-44541493D01*
X112327716Y-44447081D01*
X112213533Y-44359542D01*
X112121313Y-44288268D01*
X112030269Y-44222947D01*
X111957535Y-44175777D01*
X111946833Y-44169671D01*
X111880434Y-44129629D01*
X111832284Y-44094342D01*
X111823500Y-44085699D01*
X111784816Y-44051138D01*
X111728250Y-44010915D01*
X111680093Y-43973226D01*
X111658487Y-43942715D01*
X111658400Y-43941414D01*
X111683091Y-43932538D01*
X111754381Y-43925418D01*
X111868092Y-43920264D01*
X112020044Y-43917283D01*
X112154961Y-43916600D01*
X112334263Y-43917284D01*
X112470270Y-43919695D01*
X112570475Y-43924375D01*
X112642369Y-43931863D01*
X112693443Y-43942698D01*
X112731188Y-43957421D01*
X112732811Y-43958244D01*
X112792491Y-43993717D01*
X112830618Y-44025223D01*
X112832761Y-44028094D01*
X112838323Y-44012597D01*
X112843262Y-43953247D01*
X112847312Y-43856986D01*
X112850207Y-43730759D01*
X112851682Y-43581511D01*
X112851811Y-43529794D01*
X112852200Y-43003289D01*
X112782350Y-43032968D01*
X112723758Y-43061141D01*
X112688370Y-43083224D01*
X112659142Y-43087057D01*
X112583781Y-43090657D01*
X112466951Y-43093959D01*
X112313317Y-43096896D01*
X112127546Y-43099399D01*
X111914302Y-43101404D01*
X111678251Y-43102842D01*
X111424059Y-43103647D01*
X111252290Y-43103799D01*
X110948311Y-43103741D01*
X110690912Y-43103470D01*
X110475874Y-43102846D01*
X110298978Y-43101726D01*
X110156004Y-43099969D01*
X110042733Y-43097433D01*
X109954945Y-43093976D01*
X109888421Y-43089457D01*
X109838941Y-43083733D01*
X109802286Y-43076662D01*
X109774237Y-43068104D01*
X109750574Y-43057916D01*
X109740699Y-43052999D01*
X109678869Y-43022244D01*
X109639660Y-43004190D01*
X109633729Y-43002199D01*
X109631507Y-43026335D01*
X109629556Y-43093688D01*
X109627984Y-43196672D01*
X109626901Y-43327706D01*
X109626415Y-43479205D01*
X109626400Y-43512917D01*
X109626664Y-43686060D01*
X109627831Y-43814629D01*
X109630464Y-43904846D01*
X109635123Y-43962937D01*
X109642372Y-43995124D01*
X109652772Y-44007632D01*
X109666885Y-44006686D01*
X109670850Y-44005164D01*
X109759673Y-43971805D01*
X109848181Y-43947739D01*
X109947141Y-43931580D01*
X110067321Y-43921942D01*
X110219488Y-43917440D01*
X110359088Y-43916600D01*
X110778904Y-43916599D01*
X110705900Y-43992799D01*
X110655557Y-44040413D01*
X110618278Y-44066994D01*
X110611483Y-44069000D01*
X110585550Y-44084137D01*
X110532128Y-44123628D01*
X110462145Y-44178588D01*
X110386529Y-44240132D01*
X110316209Y-44299377D01*
X110262114Y-44347439D01*
X110236000Y-44374239D01*
X110208734Y-44396561D01*
X110152630Y-44434936D01*
X110109000Y-44462802D01*
X110021298Y-44521005D01*
X109934698Y-44583951D01*
X109906362Y-44606299D01*
X109839736Y-44651013D01*
X109778643Y-44676408D01*
X109762390Y-44678600D01*
X109718677Y-44679122D01*
X109685502Y-44684791D01*
X109661412Y-44701762D01*
X109644955Y-44736189D01*
X109634677Y-44794226D01*
X109629127Y-44882028D01*
X109626851Y-45005750D01*
X109626396Y-45171545D01*
X109626400Y-45254747D01*
G37*
X109626400Y-45254747D02*
X109626400Y-45800059D01*
X109827787Y-45601279D01*
X110190691Y-45271571D01*
X110464815Y-45057151D01*
X110568400Y-44978703D01*
X110688529Y-44884144D01*
X110812202Y-44784050D01*
X110926419Y-44688998D01*
X111018181Y-44609566D01*
X111045760Y-44584468D01*
X111133212Y-44503036D01*
X111224356Y-44572994D01*
X111413604Y-44708436D01*
X111553050Y-44795978D01*
X111635286Y-44850848D01*
X111714612Y-44912124D01*
X111720607Y-44917273D01*
X111803581Y-44986222D01*
X111906137Y-45066747D01*
X112016288Y-45149942D01*
X112122047Y-45226902D01*
X112211425Y-45288719D01*
X112268547Y-45324376D01*
X112321596Y-45359457D01*
X112400062Y-45417986D01*
X112491252Y-45489820D01*
X112582472Y-45564815D01*
X112661032Y-45632828D01*
X112700020Y-45669200D01*
X112726081Y-45693089D01*
X112773406Y-45735363D01*
X112782570Y-45743477D01*
X112852200Y-45805055D01*
X112852200Y-44678600D01*
X112773923Y-44678600D01*
X112697395Y-44661837D01*
X112592149Y-44614607D01*
X112466239Y-44541493D01*
X112327716Y-44447081D01*
X112213533Y-44359542D01*
X112121313Y-44288268D01*
X112030269Y-44222947D01*
X111957535Y-44175777D01*
X111946833Y-44169671D01*
X111880434Y-44129629D01*
X111832284Y-44094342D01*
X111823500Y-44085699D01*
X111784816Y-44051138D01*
X111728250Y-44010915D01*
X111680093Y-43973226D01*
X111658487Y-43942715D01*
X111658400Y-43941414D01*
X111683091Y-43932538D01*
X111754381Y-43925418D01*
X111868092Y-43920264D01*
X112020044Y-43917283D01*
X112154961Y-43916600D01*
X112334263Y-43917284D01*
X112470270Y-43919695D01*
X112570475Y-43924375D01*
X112642369Y-43931863D01*
X112693443Y-43942698D01*
X112731188Y-43957421D01*
X112732811Y-43958244D01*
X112792491Y-43993717D01*
X112830618Y-44025223D01*
X112832761Y-44028094D01*
X112838323Y-44012597D01*
X112843262Y-43953247D01*
X112847312Y-43856986D01*
X112850207Y-43730759D01*
X112851682Y-43581511D01*
X112851811Y-43529794D01*
X112852200Y-43003289D01*
X112782350Y-43032968D01*
X112723758Y-43061141D01*
X112688370Y-43083224D01*
X112659142Y-43087057D01*
X112583781Y-43090657D01*
X112466951Y-43093959D01*
X112313317Y-43096896D01*
X112127546Y-43099399D01*
X111914302Y-43101404D01*
X111678251Y-43102842D01*
X111424059Y-43103647D01*
X111252290Y-43103799D01*
X110948311Y-43103741D01*
X110690912Y-43103470D01*
X110475874Y-43102846D01*
X110298978Y-43101726D01*
X110156004Y-43099969D01*
X110042733Y-43097433D01*
X109954945Y-43093976D01*
X109888421Y-43089457D01*
X109838941Y-43083733D01*
X109802286Y-43076662D01*
X109774237Y-43068104D01*
X109750574Y-43057916D01*
X109740699Y-43052999D01*
X109678869Y-43022244D01*
X109639660Y-43004190D01*
X109633729Y-43002199D01*
X109631507Y-43026335D01*
X109629556Y-43093688D01*
X109627984Y-43196672D01*
X109626901Y-43327706D01*
X109626415Y-43479205D01*
X109626400Y-43512917D01*
X109626664Y-43686060D01*
X109627831Y-43814629D01*
X109630464Y-43904846D01*
X109635123Y-43962937D01*
X109642372Y-43995124D01*
X109652772Y-44007632D01*
X109666885Y-44006686D01*
X109670850Y-44005164D01*
X109759673Y-43971805D01*
X109848181Y-43947739D01*
X109947141Y-43931580D01*
X110067321Y-43921942D01*
X110219488Y-43917440D01*
X110359088Y-43916600D01*
X110778904Y-43916599D01*
X110705900Y-43992799D01*
X110655557Y-44040413D01*
X110618278Y-44066994D01*
X110611483Y-44069000D01*
X110585550Y-44084137D01*
X110532128Y-44123628D01*
X110462145Y-44178588D01*
X110386529Y-44240132D01*
X110316209Y-44299377D01*
X110262114Y-44347439D01*
X110236000Y-44374239D01*
X110208734Y-44396561D01*
X110152630Y-44434936D01*
X110109000Y-44462802D01*
X110021298Y-44521005D01*
X109934698Y-44583951D01*
X109906362Y-44606299D01*
X109839736Y-44651013D01*
X109778643Y-44676408D01*
X109762390Y-44678600D01*
X109718677Y-44679122D01*
X109685502Y-44684791D01*
X109661412Y-44701762D01*
X109644955Y-44736189D01*
X109634677Y-44794226D01*
X109629127Y-44882028D01*
X109626851Y-45005750D01*
X109626396Y-45171545D01*
X109626400Y-45254747D01*
G36*
X111590045Y-46837600D02*
G01*
X111861528Y-46837821D01*
X112086618Y-46838583D01*
X112269721Y-46840026D01*
X112415240Y-46842294D01*
X112527583Y-46845531D01*
X112611155Y-46849878D01*
X112670359Y-46855480D01*
X112709603Y-46862478D01*
X112733292Y-46871016D01*
X112739395Y-46874892D01*
X112776943Y-46901178D01*
X112805085Y-46911891D01*
X112825174Y-46901710D01*
X112838563Y-46865312D01*
X112846605Y-46797376D01*
X112850653Y-46692578D01*
X112852060Y-46545598D01*
X112852200Y-46431200D01*
X112851515Y-46280918D01*
X112849608Y-46149727D01*
X112846702Y-46045427D01*
X112843017Y-45975819D01*
X112838776Y-45948705D01*
X112838488Y-45948600D01*
X112809454Y-45959155D01*
X112752509Y-45985726D01*
X112725200Y-45999400D01*
X112697760Y-46012266D01*
X112667394Y-46022759D01*
X112628920Y-46031120D01*
X112577155Y-46037591D01*
X112506918Y-46042411D01*
X112413027Y-46045822D01*
X112290301Y-46048065D01*
X112133559Y-46049381D01*
X111937617Y-46050010D01*
X111697296Y-46050195D01*
X111632750Y-46050200D01*
X111375269Y-46049947D01*
X111163749Y-46049071D01*
X110993351Y-46047396D01*
X110859238Y-46044748D01*
X110756571Y-46040950D01*
X110680513Y-46035827D01*
X110626226Y-46029203D01*
X110588872Y-46020903D01*
X110564938Y-46011447D01*
X110490000Y-45972695D01*
X110490000Y-46837600D01*
X111590045Y-46837600D01*
G37*
X111590045Y-46837600D02*
X111861528Y-46837821D01*
X112086618Y-46838583D01*
X112269721Y-46840026D01*
X112415240Y-46842294D01*
X112527583Y-46845531D01*
X112611155Y-46849878D01*
X112670359Y-46855480D01*
X112709603Y-46862478D01*
X112733292Y-46871016D01*
X112739395Y-46874892D01*
X112776943Y-46901178D01*
X112805085Y-46911891D01*
X112825174Y-46901710D01*
X112838563Y-46865312D01*
X112846605Y-46797376D01*
X112850653Y-46692578D01*
X112852060Y-46545598D01*
X112852200Y-46431200D01*
X112851515Y-46280918D01*
X112849608Y-46149727D01*
X112846702Y-46045427D01*
X112843017Y-45975819D01*
X112838776Y-45948705D01*
X112838488Y-45948600D01*
X112809454Y-45959155D01*
X112752509Y-45985726D01*
X112725200Y-45999400D01*
X112697760Y-46012266D01*
X112667394Y-46022759D01*
X112628920Y-46031120D01*
X112577155Y-46037591D01*
X112506918Y-46042411D01*
X112413027Y-46045822D01*
X112290301Y-46048065D01*
X112133559Y-46049381D01*
X111937617Y-46050010D01*
X111697296Y-46050195D01*
X111632750Y-46050200D01*
X111375269Y-46049947D01*
X111163749Y-46049071D01*
X110993351Y-46047396D01*
X110859238Y-46044748D01*
X110756571Y-46040950D01*
X110680513Y-46035827D01*
X110626226Y-46029203D01*
X110588872Y-46020903D01*
X110564938Y-46011447D01*
X110490000Y-45972695D01*
X110490000Y-46837600D01*
X111590045Y-46837600D01*
G36*
X108723960Y-46596941D02*
G01*
X108790395Y-46714545D01*
X108893045Y-46808023D01*
X108979124Y-46851812D01*
X109117614Y-46882422D01*
X109255591Y-46873321D01*
X109377084Y-46825973D01*
X109395850Y-46813588D01*
X109483408Y-46723149D01*
X109543553Y-46604271D01*
X109573418Y-46471333D01*
X109570134Y-46338713D01*
X109530832Y-46220790D01*
X109518244Y-46200006D01*
X109439394Y-46117737D01*
X109330770Y-46049914D01*
X109213295Y-46007747D01*
X109143799Y-45999400D01*
X109034575Y-46018674D01*
X108920110Y-46069190D01*
X108821158Y-46139982D01*
X108772295Y-46195642D01*
X108711876Y-46327861D01*
X108696776Y-46464837D01*
X108723960Y-46596941D01*
G37*
X108723960Y-46596941D02*
X108790395Y-46714545D01*
X108893045Y-46808023D01*
X108979124Y-46851812D01*
X109117614Y-46882422D01*
X109255591Y-46873321D01*
X109377084Y-46825973D01*
X109395850Y-46813588D01*
X109483408Y-46723149D01*
X109543553Y-46604271D01*
X109573418Y-46471333D01*
X109570134Y-46338713D01*
X109530832Y-46220790D01*
X109518244Y-46200006D01*
X109439394Y-46117737D01*
X109330770Y-46049914D01*
X109213295Y-46007747D01*
X109143799Y-45999400D01*
X109034575Y-46018674D01*
X108920110Y-46069190D01*
X108821158Y-46139982D01*
X108772295Y-46195642D01*
X108711876Y-46327861D01*
X108696776Y-46464837D01*
X108723960Y-46596941D01*
%TD*%
D12*
%TO.C,D1*%
X188214000Y-88900000D03*
X188214000Y-85300000D03*
%TD*%
D13*
%TO.C,REF\u002A\u002A*%
X186690000Y-82042000D03*
D14*
X184150000Y-82042000D03*
X186690000Y-79502000D03*
X184150000Y-79502000D03*
X186690000Y-76962000D03*
X184150000Y-76962000D03*
X186690000Y-74422000D03*
X184150000Y-74422000D03*
X186690000Y-71882000D03*
X184150000Y-71882000D03*
X186690000Y-69342000D03*
X184150000Y-69342000D03*
X186690000Y-66802000D03*
X184150000Y-66802000D03*
X186690000Y-64262000D03*
X184150000Y-64262000D03*
X186690000Y-61722000D03*
X184150000Y-61722000D03*
X186690000Y-59182000D03*
X184150000Y-59182000D03*
%TD*%
D15*
%TO.C,Pin 6*%
X148844000Y-46482000D03*
%TD*%
D16*
%TO.C,0805*%
X132016500Y-99123500D03*
X132016500Y-97223500D03*
%TD*%
D17*
%TO.C,REF\u002A\u002A*%
X196596000Y-54205500D03*
X196596000Y-56705500D03*
X196596000Y-59205500D03*
%TD*%
D16*
%TO.C,R2*%
X151130000Y-109535000D03*
X151130000Y-107635000D03*
%TD*%
%TO.C,R2*%
X148590000Y-109547000D03*
X148590000Y-107647000D03*
%TD*%
%TO.C,R2*%
X141605000Y-81588000D03*
X141605000Y-83488000D03*
%TD*%
D15*
%TO.C,Pin 8*%
X148907500Y-50165000D03*
%TD*%
%TO.C,Pin 7*%
X147701000Y-48323500D03*
%TD*%
%TO.C,Pin 1*%
X147574000Y-41084500D03*
%TD*%
D18*
%TO.C,1206*%
X105558000Y-51435000D03*
X108458000Y-51435000D03*
%TD*%
D19*
%TO.C,0603*%
X106870500Y-47625000D03*
X105370500Y-47625000D03*
%TD*%
D20*
%TO.C,0805*%
X105476000Y-49339500D03*
X107376000Y-49339500D03*
%TD*%
D21*
%TO.C,REF\u002A\u002A*%
X140462000Y-67552000D03*
X140462000Y-66052000D03*
%TD*%
D19*
%TO.C,REF\u002A\u002A*%
X142442500Y-63881000D03*
X143942500Y-63881000D03*
%TD*%
D13*
%TO.C,uC RST CTL*%
X141605000Y-74358500D03*
D14*
X141605000Y-76898500D03*
X141605000Y-79438500D03*
%TD*%
D19*
%TO.C,vcc access*%
X182574500Y-93916500D03*
X184074500Y-93916500D03*
%TD*%
%TO.C,vcc access*%
X184074500Y-90868500D03*
X182574500Y-90868500D03*
%TD*%
%TO.C,vcc access*%
X182574500Y-87820500D03*
X184074500Y-87820500D03*
%TD*%
%TO.C,REF\u002A\u002A*%
X182574500Y-92392500D03*
X184074500Y-92392500D03*
%TD*%
%TO.C,REF\u002A\u002A*%
X184074500Y-89344500D03*
X182574500Y-89344500D03*
%TD*%
%TO.C,REF\u002A\u002A*%
X182574500Y-86296500D03*
X184074500Y-86296500D03*
%TD*%
D22*
%TO.C,D1*%
X105239000Y-84772500D03*
X108839000Y-84772500D03*
%TD*%
%TO.C,D1*%
X194649500Y-109029500D03*
X191049500Y-109029500D03*
%TD*%
D15*
%TO.C,Pin 3 *%
X147637500Y-44640500D03*
%TD*%
%TO.C,Pin 2*%
X148844000Y-42862500D03*
%TD*%
D23*
%TO.C,ATTINY85*%
X153670000Y-49784000D03*
X156210000Y-49784000D03*
X158750000Y-49784000D03*
X161290000Y-49784000D03*
X161290000Y-42164000D03*
X158750000Y-42164000D03*
X156210000Y-42164000D03*
D24*
X153670000Y-42164000D03*
%TD*%
D14*
%TO.C,REF\u002A\u002A*%
X187452000Y-102997000D03*
X187452000Y-100457000D03*
X187452000Y-97917000D03*
D13*
X187452000Y-95377000D03*
%TD*%
%TO.C,REF\u002A\u002A*%
X123952000Y-52578000D03*
D14*
X121412000Y-52578000D03*
X118872000Y-52578000D03*
X116332000Y-52578000D03*
%TD*%
D25*
%TO.C,REF\u002A\u002A*%
X161941190Y-126145610D03*
X160350200Y-125486600D03*
X158759210Y-126145610D03*
X158100200Y-127736600D03*
X158759210Y-129327590D03*
X160350200Y-129986600D03*
X161941190Y-129327590D03*
X162600200Y-127736600D03*
D26*
X160350200Y-127736600D03*
%TD*%
D15*
%TO.C,5V Tie*%
X164592000Y-74295000D03*
X164612000Y-71755000D03*
%TD*%
D19*
%TO.C,REF\u002A\u002A*%
X143942500Y-65468500D03*
X142442500Y-65468500D03*
%TD*%
%TO.C,REF\u002A\u002A*%
X156857000Y-46101000D03*
X158357000Y-46101000D03*
%TD*%
D15*
%TO.C,Vout Tie*%
X138049000Y-114046000D03*
X138069000Y-111506000D03*
%TD*%
%TO.C,Vin Tie*%
X164617400Y-64135000D03*
X164597400Y-66675000D03*
%TD*%
D27*
%TO.C,C1*%
X114197000Y-67183000D03*
D28*
X115697000Y-67183000D03*
%TD*%
D15*
%TO.C,3V3 Tie*%
X164572000Y-94615000D03*
X164592000Y-92075000D03*
%TD*%
D14*
%TO.C,RPI2-40*%
X163322000Y-56896000D03*
X163322000Y-59436000D03*
X160782000Y-56896000D03*
X160782000Y-59436000D03*
X158242000Y-56896000D03*
X158242000Y-59436000D03*
X155702000Y-56896000D03*
X155702000Y-59436000D03*
X153162000Y-56896000D03*
X153162000Y-59436000D03*
X150622000Y-56896000D03*
X150622000Y-59436000D03*
X148082000Y-56896000D03*
X148082000Y-59436000D03*
X145542000Y-56896000D03*
X145542000Y-59436000D03*
X143002000Y-56896000D03*
X143002000Y-59436000D03*
X140462000Y-56896000D03*
X140462000Y-59436000D03*
X137922000Y-56896000D03*
X137922000Y-59436000D03*
X135382000Y-56896000D03*
X135382000Y-59436000D03*
X132842000Y-56896000D03*
X132842000Y-59436000D03*
X130302000Y-56896000D03*
X130302000Y-59436000D03*
X127762000Y-56896000D03*
X127762000Y-59436000D03*
X125222000Y-56896000D03*
X125222000Y-59436000D03*
X122682000Y-56896000D03*
X122682000Y-59436000D03*
X120142000Y-56896000D03*
X120142000Y-59436000D03*
X117602000Y-56896000D03*
X117602000Y-59436000D03*
X115062000Y-56896000D03*
D13*
X115062000Y-59436000D03*
%TD*%
D14*
%TO.C,REF\u002A\u002A*%
X128270000Y-52578000D03*
X130810000Y-52578000D03*
X133350000Y-52578000D03*
D13*
X135890000Y-52578000D03*
%TD*%
D29*
%TO.C,OFF*%
X128016000Y-64895000D03*
X128016000Y-69595000D03*
D30*
X128016000Y-74295000D03*
%TD*%
D28*
%TO.C,C2*%
X115722400Y-72263000D03*
D27*
X114222400Y-72263000D03*
%TD*%
D23*
%TO.C,U3*%
X180340000Y-59120000D03*
X180340000Y-61660000D03*
X180340000Y-64200000D03*
X180340000Y-66740000D03*
X180340000Y-69280000D03*
X180340000Y-71820000D03*
X180340000Y-74360000D03*
X180340000Y-76900000D03*
X180340000Y-79440000D03*
X180340000Y-81980000D03*
X180340000Y-84520000D03*
X180340000Y-87060000D03*
X180340000Y-89600000D03*
X180340000Y-92140000D03*
X172720000Y-92140000D03*
X172720000Y-89600000D03*
X172720000Y-87060000D03*
X172720000Y-84520000D03*
X172720000Y-81980000D03*
X172720000Y-79440000D03*
X172720000Y-76900000D03*
X172720000Y-74360000D03*
X172720000Y-71820000D03*
X172720000Y-69280000D03*
X172720000Y-66740000D03*
X172720000Y-64200000D03*
X172720000Y-61660000D03*
D24*
X172720000Y-59120000D03*
%TD*%
D13*
%TO.C,REF\u002A\u002A*%
X137668000Y-71882000D03*
D14*
X137668000Y-69342000D03*
X137668000Y-66802000D03*
X137668000Y-64262000D03*
%TD*%
D31*
%TO.C,d*%
X134366000Y-116586000D03*
D32*
X119126000Y-78486000D03*
X134366000Y-114046000D03*
X119126000Y-81026000D03*
X119126000Y-86106000D03*
X134366000Y-106426000D03*
X119126000Y-88646000D03*
X134366000Y-103886000D03*
X119126000Y-101346000D03*
X119126000Y-103886000D03*
X119126000Y-108966000D03*
X134366000Y-83566000D03*
X119126000Y-111506000D03*
X134366000Y-81026000D03*
X119126000Y-114046000D03*
X134366000Y-78486000D03*
X119126000Y-116586000D03*
%TD*%
D33*
%TO.C,REF\u002A\u002A*%
X184404000Y-127762000D03*
X184404000Y-126262000D03*
%TD*%
D21*
%TO.C,REF\u002A\u002A*%
X180086000Y-126238000D03*
X180086000Y-127738000D03*
%TD*%
%TO.C,REF\u002A\u002A*%
X182118000Y-127750000D03*
X182118000Y-126250000D03*
%TD*%
%TO.C,REF\u002A\u002A*%
X169164000Y-126504000D03*
X169164000Y-128004000D03*
%TD*%
D33*
%TO.C,REF\u002A\u002A*%
X171450000Y-126516000D03*
X171450000Y-128016000D03*
%TD*%
D21*
%TO.C,REF\u002A\u002A*%
X167132000Y-127992000D03*
X167132000Y-126492000D03*
%TD*%
D34*
%TO.C,U4*%
X134620000Y-134874000D03*
X133350000Y-134874000D03*
X132080000Y-134874000D03*
X130810000Y-134874000D03*
X129540000Y-134874000D03*
X128270000Y-134874000D03*
X127000000Y-134874000D03*
X127000000Y-128524000D03*
X128270000Y-128524000D03*
X130810000Y-128524000D03*
X132080000Y-128524000D03*
X133350000Y-128524000D03*
X134620000Y-128524000D03*
X129540000Y-128524000D03*
%TD*%
D21*
%TO.C,REF\u002A\u002A*%
X151130000Y-128778000D03*
X151130000Y-130278000D03*
%TD*%
%TO.C,REF\u002A\u002A*%
X149098000Y-130290000D03*
X149098000Y-128790000D03*
%TD*%
D33*
%TO.C,REF\u002A\u002A*%
X151130000Y-134088000D03*
X151130000Y-132588000D03*
%TD*%
%TO.C,REF\u002A\u002A*%
X141732000Y-130302000D03*
X141732000Y-128802000D03*
%TD*%
%TO.C,REF\u002A\u002A*%
X141732000Y-134088000D03*
X141732000Y-132588000D03*
%TD*%
D21*
%TO.C,REF\u002A\u002A*%
X144272000Y-132600000D03*
X144272000Y-134100000D03*
%TD*%
%TO.C,REF\u002A\u002A*%
X144272000Y-128790000D03*
X144272000Y-130290000D03*
%TD*%
%TO.C,REF\u002A\u002A*%
X146812000Y-130302000D03*
X146812000Y-128802000D03*
%TD*%
%TO.C,REF\u002A\u002A*%
X146812000Y-134100000D03*
X146812000Y-132600000D03*
%TD*%
D24*
%TO.C,C1*%
X128651000Y-110363000D03*
D23*
X126151000Y-110363000D03*
%TD*%
D35*
%TO.C,REF\u002A\u002A*%
X183896000Y-104394000D03*
D36*
X181356000Y-104394000D03*
%TD*%
%TO.C,REF\u002A\u002A*%
X176022000Y-104394000D03*
D35*
X178562000Y-104394000D03*
%TD*%
%TO.C,REF\u002A\u002A*%
X173228000Y-104394000D03*
D36*
X170688000Y-104394000D03*
%TD*%
%TO.C,REF\u002A\u002A*%
X165354000Y-104394000D03*
D35*
X167894000Y-104394000D03*
%TD*%
D13*
%TO.C,REF\u002A\u002A*%
X113284000Y-91186000D03*
D14*
X113284000Y-93726000D03*
X113284000Y-96266000D03*
X113284000Y-98806000D03*
X113284000Y-101346000D03*
X113284000Y-103886000D03*
%TD*%
D35*
%TO.C,REF\u002A\u002A*%
X156768800Y-137439400D03*
D36*
X156768800Y-134899400D03*
%TD*%
D12*
%TO.C,FUSE*%
X187706000Y-128480000D03*
X187706000Y-132080000D03*
%TD*%
D22*
%TO.C,D2*%
X112014000Y-63373000D03*
X115614000Y-63373000D03*
%TD*%
%TO.C,D1*%
X115570000Y-76581000D03*
X111970000Y-76581000D03*
%TD*%
D37*
%TO.C,REF\u002A\u002A*%
X153873200Y-67284600D03*
%TD*%
D24*
%TO.C,REF\u002A\u002A*%
X146215100Y-66700400D03*
D38*
X161455100Y-99720400D03*
X146215100Y-69240400D03*
X161455100Y-97180400D03*
X146215100Y-71780400D03*
X161455100Y-94640400D03*
X146215100Y-74320400D03*
X161455100Y-92100400D03*
X146215100Y-76860400D03*
X161455100Y-89560400D03*
X146215100Y-79400400D03*
X161455100Y-87020400D03*
X146215100Y-81940400D03*
X161455100Y-84480400D03*
X146215100Y-84480400D03*
X161455100Y-81940400D03*
X146215100Y-87020400D03*
X161455100Y-79400400D03*
X146215100Y-89560400D03*
X161455100Y-76860400D03*
X146215100Y-92100400D03*
X161455100Y-74320400D03*
X146215100Y-94640400D03*
X161455100Y-71780400D03*
X146215100Y-97180400D03*
X161455100Y-69240400D03*
X146215100Y-99720400D03*
X161455100Y-66700400D03*
X146215100Y-102260400D03*
X161455100Y-102260400D03*
%TD*%
D17*
%TO.C,REF\u002A\u002A*%
X171704000Y-102108000D03*
D39*
X171704000Y-99568000D03*
%TD*%
D40*
%TO.C,CON2*%
X107950000Y-88060000D03*
D41*
X107950000Y-91870000D03*
X107950000Y-95680000D03*
X107950000Y-99490000D03*
X107950000Y-103300000D03*
X107950000Y-107110000D03*
%TD*%
D42*
%TO.C,REF\u002A\u002A*%
X126746000Y-97282000D03*
X129286000Y-97282000D03*
D43*
X124206000Y-97282000D03*
%TD*%
D35*
%TO.C,R2*%
X129286000Y-93218000D03*
D36*
X126746000Y-93218000D03*
%TD*%
D44*
%TO.C,5v REG*%
X120142000Y-67183000D03*
D45*
X120142000Y-69723000D03*
X120142000Y-72263000D03*
%TD*%
D17*
%TO.C,REF\u002A\u002A*%
X160578800Y-137388600D03*
D39*
X160578800Y-134848600D03*
%TD*%
%TO.C,REF\u002A\u002A*%
X166370000Y-99568000D03*
D17*
X166370000Y-102108000D03*
%TD*%
%TO.C,REF\u002A\u002A*%
X177038000Y-102106000D03*
D39*
X177038000Y-99566000D03*
%TD*%
%TO.C,REF\u002A\u002A*%
X182372000Y-99486000D03*
D17*
X182372000Y-102026000D03*
%TD*%
D41*
%TO.C,CON6*%
X192024000Y-93218000D03*
X192024000Y-97028000D03*
X192024000Y-100838000D03*
D40*
X192024000Y-104648000D03*
%TD*%
D41*
%TO.C,CON3*%
X107950000Y-78430000D03*
D40*
X107950000Y-74620000D03*
%TD*%
%TO.C,CON5*%
X192024000Y-128570000D03*
D41*
X192024000Y-124760000D03*
X192024000Y-120950000D03*
X192024000Y-117140000D03*
X192024000Y-113330000D03*
%TD*%
D40*
%TO.C,CON7*%
X192024000Y-85340000D03*
D41*
X192024000Y-81530000D03*
X192024000Y-77720000D03*
X192024000Y-73910000D03*
X192024000Y-70100000D03*
X192024000Y-66290000D03*
X192024000Y-62480000D03*
X192024000Y-58670000D03*
X192024000Y-54860000D03*
X192024000Y-51050000D03*
%TD*%
D40*
%TO.C,CON1*%
X107950000Y-115062000D03*
D41*
X107950000Y-118872000D03*
X107950000Y-122682000D03*
X107950000Y-126492000D03*
%TD*%
D40*
%TO.C,CON4*%
X107950000Y-61510000D03*
D41*
X107950000Y-65320000D03*
%TD*%
D25*
%TO.C,REF\u002A\u002A*%
X105416980Y-134486020D03*
X103825990Y-133827010D03*
X102235000Y-134486020D03*
X101575990Y-136077010D03*
X102235000Y-137668000D03*
X103825990Y-138327010D03*
X105416980Y-137668000D03*
X106075990Y-136077010D03*
D26*
X103825990Y-136077010D03*
%TD*%
%TO.C,REF\u002A\u002A*%
X196088000Y-136017000D03*
D25*
X198338000Y-136017000D03*
X197678990Y-137607990D03*
X196088000Y-138267000D03*
X194497010Y-137607990D03*
X193838000Y-136017000D03*
X194497010Y-134426010D03*
X196088000Y-133767000D03*
X197678990Y-134426010D03*
%TD*%
%TO.C,REF\u002A\u002A*%
X197678990Y-41843010D03*
X196088000Y-41184000D03*
X194497010Y-41843010D03*
X193838000Y-43434000D03*
X194497010Y-45024990D03*
X196088000Y-45684000D03*
X197678990Y-45024990D03*
X198338000Y-43434000D03*
D26*
X196088000Y-43434000D03*
%TD*%
%TO.C,REF\u002A\u002A*%
X103886000Y-43434000D03*
D25*
X106136000Y-43434000D03*
X105476990Y-45024990D03*
X103886000Y-45684000D03*
X102295010Y-45024990D03*
X101636000Y-43434000D03*
X102295010Y-41843010D03*
X103886000Y-41184000D03*
X105476990Y-41843010D03*
%TD*%
D24*
%TO.C,REF\u002A\u002A*%
X184860000Y-42240000D03*
D38*
X167080000Y-49860000D03*
X182320000Y-42240000D03*
X169620000Y-49860000D03*
X179780000Y-42240000D03*
X172160000Y-49860000D03*
X177240000Y-42240000D03*
X174700000Y-49860000D03*
X174700000Y-42240000D03*
X177240000Y-49860000D03*
X172160000Y-42240000D03*
X179780000Y-49860000D03*
X169620000Y-42240000D03*
X182320000Y-49860000D03*
X167080000Y-42240000D03*
X184860000Y-49860000D03*
%TD*%
D44*
%TO.C,BUZZ1*%
X153309000Y-46101000D03*
D45*
X160909000Y-46101000D03*
%TD*%
D46*
%TO.C,REF\u002A\u002A*%
X179904000Y-130556000D03*
X179904000Y-137056000D03*
X184404000Y-137056000D03*
D47*
X184404000Y-130556000D03*
%TD*%
D46*
%TO.C,REF\u002A\u002A*%
X167050000Y-130650000D03*
X167050000Y-137150000D03*
X171550000Y-137150000D03*
D47*
X171550000Y-130650000D03*
%TD*%
D45*
%TO.C,REF\u002A\u002A*%
X139140000Y-133930000D03*
X139140000Y-131430000D03*
X139140000Y-128930000D03*
X153640000Y-133930000D03*
X153640000Y-128930000D03*
D48*
X146640000Y-137130000D03*
X146640000Y-125730000D03*
%TD*%
D23*
%TO.C,U2*%
X161290000Y-111760000D03*
X161290000Y-119380000D03*
X143510000Y-111760000D03*
X146050000Y-111760000D03*
X148590000Y-111760000D03*
X151130000Y-111760000D03*
X153670000Y-111760000D03*
X156210000Y-111760000D03*
X158750000Y-111760000D03*
X158750000Y-119380000D03*
X156210000Y-119380000D03*
X153670000Y-119380000D03*
X151130000Y-119380000D03*
X148590000Y-119380000D03*
X146050000Y-119380000D03*
D24*
X143510000Y-119380000D03*
%TD*%
D23*
%TO.C,U1*%
X166370000Y-111760000D03*
X168910000Y-111760000D03*
X171450000Y-111760000D03*
X173990000Y-111760000D03*
X176530000Y-111760000D03*
X179070000Y-111760000D03*
X181610000Y-111760000D03*
X181610000Y-119380000D03*
X179070000Y-119380000D03*
X176530000Y-119380000D03*
X173990000Y-119380000D03*
X171450000Y-119380000D03*
X168910000Y-119380000D03*
D24*
X166370000Y-119380000D03*
%TD*%
M02*
