  0
SECTION
  2
HEADER
  9
$ANGBASE
  50
0.0
  9
$ANGDIR
  70
1
  9
$MEASUREMENT
  70
0
  0
ENDSEC
  0
SECTION
  2
TABLES
  0
TABLE
  2
LTYPE
  70
4
  0
LTYPE
  5
40F
  2
CONTINUOUS
  70
0
  3
Solid line
  72
65
  73
0
  40
0.0
  0
LTYPE
  5
410
  2
DASHDOT
 70
0
  3
Dash Dot ____ _ ____ _
 72
65
 73
4
 40
2.0
 49
1.25
 49
-0.25
 49
0.25
 49
-0.25
  0
LTYPE
  5
411
  2
DASHED
 70
0
  3
Dashed __ __ __ __ __
 72
65
 73
2
 40
0.75
 49
0.5
 49
-0.25
  0
LTYPE
  5
43B
  2
DOTTED
 70
0
  3
Dotted .  .  .  .
 72
65
 73
2
 40
0.2
 49
0.0
 49
-0.2
  0
ENDTAB
  0
TABLE
  2
STYLE
  70
4
  0
STYLE
  2
KICAD
  70
0
  40
0
  41
1
  42
1
  50
0
  71
0
  3
isocp.shx
  0
STYLE
  2
KICADB
  70
0
  40
0
  41
1
  42
1
  50
0
  71
0
  3
isocp.shx
  0
STYLE
  2
KICADI
  70
0
  40
0
  41
1
  42
1
  50
15
  71
0
  3
isocp.shx
  0
STYLE
  2
KICADBI
  70
0
  40
0
  41
1
  42
1
  50
15
  71
0
  3
isocp.shx
  0
ENDTAB
  0
TABLE
  2
LAYER
  70
1
  0
LAYER
  2
BLACK
  70
0
  62
7
  6
CONTINUOUS
  0
ENDTAB
  0
ENDSEC
  0
SECTION
  2
ENTITIES
0
LINE
8
BLACK
6
CONTINUOUS
10
7.87402
20
-5.50197
11
7.87402
21
-1.56496
0
LINE
8
BLACK
6
CONTINUOUS
10
3.93701
20
-1.56496
11
7.87402
21
-1.56496
0
LINE
8
BLACK
6
CONTINUOUS
10
3.93701
20
-1.56496
11
3.93701
21
-5.50197
0
LINE
8
BLACK
6
CONTINUOUS
10
3.93701
20
-5.50197
11
7.87402
21
-5.50197
0
LINE
8
BLACK
6
CONTINUOUS
10
5.97926
20
-2.57026
11
6.13674
21
-2.72774
0
LINE
8
BLACK
6
CONTINUOUS
10
6.13674
20
-2.57026
11
5.97926
21
-2.72774
0
LINE
8
BLACK
6
CONTINUOUS
10
4.04879
20
-5.6863
11
4.04879
21
-5.56819
0
LINE
8
BLACK
6
CONTINUOUS
10
4.04879
20
-5.56819
11
4.07691
21
-5.56819
0
LINE
8
BLACK
6
CONTINUOUS
10
4.07691
20
-5.56819
11
4.09379
21
-5.57382
0
LINE
8
BLACK
6
CONTINUOUS
10
4.09379
20
-5.57382
11
4.10503
21
-5.58507
0
LINE
8
BLACK
6
CONTINUOUS
10
4.10503
20
-5.58507
11
4.11066
21
-5.59632
0
LINE
8
BLACK
6
CONTINUOUS
10
4.11066
20
-5.59632
11
4.11628
21
-5.61881
0
LINE
8
BLACK
6
CONTINUOUS
10
4.11628
20
-5.61881
11
4.11628
21
-5.63569
0
LINE
8
BLACK
6
CONTINUOUS
10
4.11628
20
-5.63569
11
4.11066
21
-5.65818
0
LINE
8
BLACK
6
CONTINUOUS
10
4.11066
20
-5.65818
11
4.10503
21
-5.66943
0
LINE
8
BLACK
6
CONTINUOUS
10
4.10503
20
-5.66943
11
4.09379
21
-5.68068
0
LINE
8
BLACK
6
CONTINUOUS
10
4.09379
20
-5.68068
11
4.07691
21
-5.6863
0
LINE
8
BLACK
6
CONTINUOUS
10
4.07691
20
-5.6863
11
4.04879
21
-5.6863
0
LINE
8
BLACK
6
CONTINUOUS
10
4.1669
20
-5.6863
11
4.1669
21
-5.60756
0
LINE
8
BLACK
6
CONTINUOUS
10
4.1669
20
-5.63006
11
4.17253
21
-5.61881
0
LINE
8
BLACK
6
CONTINUOUS
10
4.17253
20
-5.61881
11
4.17815
21
-5.61319
0
LINE
8
BLACK
6
CONTINUOUS
10
4.17815
20
-5.61319
11
4.1894
21
-5.60756
0
LINE
8
BLACK
6
CONTINUOUS
10
4.1894
20
-5.60756
11
4.20065
21
-5.60756
0
LINE
8
BLACK
6
CONTINUOUS
10
4.24002
20
-5.6863
11
4.24002
21
-5.60756
0
LINE
8
BLACK
6
CONTINUOUS
10
4.24002
20
-5.56819
11
4.23439
21
-5.57382
0
LINE
8
BLACK
6
CONTINUOUS
10
4.23439
20
-5.57382
11
4.24002
21
-5.57944
0
LINE
8
BLACK
6
CONTINUOUS
10
4.24002
20
-5.57944
11
4.24564
21
-5.57382
0
LINE
8
BLACK
6
CONTINUOUS
10
4.24564
20
-5.57382
11
4.24002
21
-5.56819
0
LINE
8
BLACK
6
CONTINUOUS
10
4.24002
20
-5.56819
11
4.24002
21
-5.57944
0
LINE
8
BLACK
6
CONTINUOUS
10
4.31313
20
-5.6863
11
4.30188
21
-5.68068
0
LINE
8
BLACK
6
CONTINUOUS
10
4.30188
20
-5.68068
11
4.29626
21
-5.66943
0
LINE
8
BLACK
6
CONTINUOUS
10
4.29626
20
-5.66943
11
4.29626
21
-5.56819
0
LINE
8
BLACK
6
CONTINUOUS
10
4.375
20
-5.6863
11
4.36375
21
-5.68068
0
LINE
8
BLACK
6
CONTINUOUS
10
4.36375
20
-5.68068
11
4.35813
21
-5.66943
0
LINE
8
BLACK
6
CONTINUOUS
10
4.35813
20
-5.66943
11
4.35813
21
-5.56819
0
LINE
8
BLACK
6
CONTINUOUS
10
4.50998
20
-5.6863
11
4.50998
21
-5.56819
0
LINE
8
BLACK
6
CONTINUOUS
10
4.50998
20
-5.56819
11
4.54935
21
-5.65256
0
LINE
8
BLACK
6
CONTINUOUS
10
4.54935
20
-5.65256
11
4.58872
21
-5.56819
0
LINE
8
BLACK
6
CONTINUOUS
10
4.58872
20
-5.56819
11
4.58872
21
-5.6863
0
LINE
8
BLACK
6
CONTINUOUS
10
4.69558
20
-5.6863
11
4.69558
21
-5.62444
0
LINE
8
BLACK
6
CONTINUOUS
10
4.69558
20
-5.62444
11
4.68996
21
-5.61319
0
LINE
8
BLACK
6
CONTINUOUS
10
4.68996
20
-5.61319
11
4.67871
21
-5.60756
0
LINE
8
BLACK
6
CONTINUOUS
10
4.67871
20
-5.60756
11
4.65621
21
-5.60756
0
LINE
8
BLACK
6
CONTINUOUS
10
4.65621
20
-5.60756
11
4.64497
21
-5.61319
0
LINE
8
BLACK
6
CONTINUOUS
10
4.69558
20
-5.68068
11
4.68434
21
-5.6863
0
LINE
8
BLACK
6
CONTINUOUS
10
4.68434
20
-5.6863
11
4.65621
21
-5.6863
0
LINE
8
BLACK
6
CONTINUOUS
10
4.65621
20
-5.6863
11
4.64497
21
-5.68068
0
LINE
8
BLACK
6
CONTINUOUS
10
4.64497
20
-5.68068
11
4.63934
21
-5.66943
0
LINE
8
BLACK
6
CONTINUOUS
10
4.63934
20
-5.66943
11
4.63934
21
-5.65818
0
LINE
8
BLACK
6
CONTINUOUS
10
4.63934
20
-5.65818
11
4.64497
21
-5.64693
0
LINE
8
BLACK
6
CONTINUOUS
10
4.64497
20
-5.64693
11
4.65621
21
-5.64131
0
LINE
8
BLACK
6
CONTINUOUS
10
4.65621
20
-5.64131
11
4.68434
21
-5.64131
0
LINE
8
BLACK
6
CONTINUOUS
10
4.68434
20
-5.64131
11
4.69558
21
-5.63569
0
LINE
8
BLACK
6
CONTINUOUS
10
4.75183
20
-5.60756
11
4.75183
21
-5.72567
0
LINE
8
BLACK
6
CONTINUOUS
10
4.75183
20
-5.61319
11
4.76308
21
-5.60756
0
LINE
8
BLACK
6
CONTINUOUS
10
4.76308
20
-5.60756
11
4.78557
21
-5.60756
0
LINE
8
BLACK
6
CONTINUOUS
10
4.78557
20
-5.60756
11
4.79682
21
-5.61319
0
LINE
8
BLACK
6
CONTINUOUS
10
4.79682
20
-5.61319
11
4.80245
21
-5.61881
0
LINE
8
BLACK
6
CONTINUOUS
10
4.80245
20
-5.61881
11
4.80807
21
-5.63006
0
LINE
8
BLACK
6
CONTINUOUS
10
4.80807
20
-5.63006
11
4.80807
21
-5.66381
0
LINE
8
BLACK
6
CONTINUOUS
10
4.80807
20
-5.66381
11
4.80245
21
-5.67506
0
LINE
8
BLACK
6
CONTINUOUS
10
4.80245
20
-5.67506
11
4.79682
21
-5.68068
0
LINE
8
BLACK
6
CONTINUOUS
10
4.79682
20
-5.68068
11
4.78557
21
-5.6863
0
LINE
8
BLACK
6
CONTINUOUS
10
4.78557
20
-5.6863
11
4.76308
21
-5.6863
0
LINE
8
BLACK
6
CONTINUOUS
10
4.76308
20
-5.6863
11
4.75183
21
-5.68068
0
LINE
8
BLACK
6
CONTINUOUS
10
4.85869
20
-5.67506
11
4.86431
21
-5.68068
0
LINE
8
BLACK
6
CONTINUOUS
10
4.86431
20
-5.68068
11
4.85869
21
-5.6863
0
LINE
8
BLACK
6
CONTINUOUS
10
4.85869
20
-5.6863
11
4.85307
21
-5.68068
0
LINE
8
BLACK
6
CONTINUOUS
10
4.85307
20
-5.68068
11
4.85869
21
-5.67506
0
LINE
8
BLACK
6
CONTINUOUS
10
4.85869
20
-5.67506
11
4.85869
21
-5.6863
0
LINE
8
BLACK
6
CONTINUOUS
10
4.85869
20
-5.61319
11
4.86431
21
-5.61881
0
LINE
8
BLACK
6
CONTINUOUS
10
4.86431
20
-5.61881
11
4.85869
21
-5.62444
0
LINE
8
BLACK
6
CONTINUOUS
10
4.85869
20
-5.62444
11
4.85307
21
-5.61881
0
LINE
8
BLACK
6
CONTINUOUS
10
4.85307
20
-5.61881
11
4.85869
21
-5.61319
0
LINE
8
BLACK
6
CONTINUOUS
10
4.85869
20
-5.61319
11
4.85869
21
-5.62444
0
LINE
8
BLACK
6
CONTINUOUS
10
3.77854
20
-5.80217
11
3.93602
21
-5.95965
0
LINE
8
BLACK
6
CONTINUOUS
10
3.93602
20
-5.80217
11
3.77854
21
-5.95965
0
LINE
8
BLACK
6
CONTINUOUS
10
4.09941
20
-5.8556
11
4.09941
21
-5.93434
0
LINE
8
BLACK
6
CONTINUOUS
10
4.07129
20
-5.8106
11
4.04317
21
-5.89497
0
LINE
8
BLACK
6
CONTINUOUS
10
4.04317
20
-5.89497
11
4.11628
21
-5.89497
0
LINE
8
BLACK
6
CONTINUOUS
10
4.16128
20
-5.92309
11
4.1669
21
-5.92871
0
LINE
8
BLACK
6
CONTINUOUS
10
4.1669
20
-5.92871
11
4.16128
21
-5.93434
0
LINE
8
BLACK
6
CONTINUOUS
10
4.16128
20
-5.93434
11
4.15565
21
-5.92871
0
LINE
8
BLACK
6
CONTINUOUS
10
4.15565
20
-5.92871
11
4.16128
21
-5.92309
0
LINE
8
BLACK
6
CONTINUOUS
10
4.16128
20
-5.92309
11
4.16128
21
-5.93434
0
LINE
8
BLACK
6
CONTINUOUS
10
4.24002
20
-5.81623
11
4.25127
21
-5.81623
0
LINE
8
BLACK
6
CONTINUOUS
10
4.25127
20
-5.81623
11
4.26251
21
-5.82185
0
LINE
8
BLACK
6
CONTINUOUS
10
4.26251
20
-5.82185
11
4.26814
21
-5.82747
0
LINE
8
BLACK
6
CONTINUOUS
10
4.26814
20
-5.82747
11
4.27376
21
-5.83872
0
LINE
8
BLACK
6
CONTINUOUS
10
4.27376
20
-5.83872
11
4.27939
21
-5.86122
0
LINE
8
BLACK
6
CONTINUOUS
10
4.27939
20
-5.86122
11
4.27939
21
-5.88934
0
LINE
8
BLACK
6
CONTINUOUS
10
4.27939
20
-5.88934
11
4.27376
21
-5.91184
0
LINE
8
BLACK
6
CONTINUOUS
10
4.27376
20
-5.91184
11
4.26814
21
-5.92309
0
LINE
8
BLACK
6
CONTINUOUS
10
4.26814
20
-5.92309
11
4.26251
21
-5.92871
0
LINE
8
BLACK
6
CONTINUOUS
10
4.26251
20
-5.92871
11
4.25127
21
-5.93434
0
LINE
8
BLACK
6
CONTINUOUS
10
4.25127
20
-5.93434
11
4.24002
21
-5.93434
0
LINE
8
BLACK
6
CONTINUOUS
10
4.24002
20
-5.93434
11
4.22877
21
-5.92871
0
LINE
8
BLACK
6
CONTINUOUS
10
4.22877
20
-5.92871
11
4.22314
21
-5.92309
0
LINE
8
BLACK
6
CONTINUOUS
10
4.22314
20
-5.92309
11
4.21752
21
-5.91184
0
LINE
8
BLACK
6
CONTINUOUS
10
4.21752
20
-5.91184
11
4.2119
21
-5.88934
0
LINE
8
BLACK
6
CONTINUOUS
10
4.2119
20
-5.88934
11
4.2119
21
-5.86122
0
LINE
8
BLACK
6
CONTINUOUS
10
4.2119
20
-5.86122
11
4.21752
21
-5.83872
0
LINE
8
BLACK
6
CONTINUOUS
10
4.21752
20
-5.83872
11
4.22314
21
-5.82747
0
LINE
8
BLACK
6
CONTINUOUS
10
4.22314
20
-5.82747
11
4.22877
21
-5.82185
0
LINE
8
BLACK
6
CONTINUOUS
10
4.22877
20
-5.82185
11
4.24002
21
-5.81623
0
LINE
8
BLACK
6
CONTINUOUS
10
4.3525
20
-5.81623
11
4.36375
21
-5.81623
0
LINE
8
BLACK
6
CONTINUOUS
10
4.36375
20
-5.81623
11
4.375
21
-5.82185
0
LINE
8
BLACK
6
CONTINUOUS
10
4.375
20
-5.82185
11
4.38062
21
-5.82747
0
LINE
8
BLACK
6
CONTINUOUS
10
4.38062
20
-5.82747
11
4.38625
21
-5.83872
0
LINE
8
BLACK
6
CONTINUOUS
10
4.38625
20
-5.83872
11
4.39187
21
-5.86122
0
LINE
8
BLACK
6
CONTINUOUS
10
4.39187
20
-5.86122
11
4.39187
21
-5.88934
0
LINE
8
BLACK
6
CONTINUOUS
10
4.39187
20
-5.88934
11
4.38625
21
-5.91184
0
LINE
8
BLACK
6
CONTINUOUS
10
4.38625
20
-5.91184
11
4.38062
21
-5.92309
0
LINE
8
BLACK
6
CONTINUOUS
10
4.38062
20
-5.92309
11
4.375
21
-5.92871
0
LINE
8
BLACK
6
CONTINUOUS
10
4.375
20
-5.92871
11
4.36375
21
-5.93434
0
LINE
8
BLACK
6
CONTINUOUS
10
4.36375
20
-5.93434
11
4.3525
21
-5.93434
0
LINE
8
BLACK
6
CONTINUOUS
10
4.3525
20
-5.93434
11
4.34125
21
-5.92871
0
LINE
8
BLACK
6
CONTINUOUS
10
4.34125
20
-5.92871
11
4.33563
21
-5.92309
0
LINE
8
BLACK
6
CONTINUOUS
10
4.33563
20
-5.92309
11
4.33001
21
-5.91184
0
LINE
8
BLACK
6
CONTINUOUS
10
4.33001
20
-5.91184
11
4.32438
21
-5.88934
0
LINE
8
BLACK
6
CONTINUOUS
10
4.32438
20
-5.88934
11
4.32438
21
-5.86122
0
LINE
8
BLACK
6
CONTINUOUS
10
4.32438
20
-5.86122
11
4.33001
21
-5.83872
0
LINE
8
BLACK
6
CONTINUOUS
10
4.33001
20
-5.83872
11
4.33563
21
-5.82747
0
LINE
8
BLACK
6
CONTINUOUS
10
4.33563
20
-5.82747
11
4.34125
21
-5.82185
0
LINE
8
BLACK
6
CONTINUOUS
10
4.34125
20
-5.82185
11
4.3525
21
-5.81623
0
LINE
8
BLACK
6
CONTINUOUS
10
4.44249
20
-5.93434
11
4.44249
21
-5.8556
0
LINE
8
BLACK
6
CONTINUOUS
10
4.44249
20
-5.86684
11
4.44812
21
-5.86122
0
LINE
8
BLACK
6
CONTINUOUS
10
4.44812
20
-5.86122
11
4.45936
21
-5.8556
0
LINE
8
BLACK
6
CONTINUOUS
10
4.45936
20
-5.8556
11
4.47624
21
-5.8556
0
LINE
8
BLACK
6
CONTINUOUS
10
4.47624
20
-5.8556
11
4.48749
21
-5.86122
0
LINE
8
BLACK
6
CONTINUOUS
10
4.48749
20
-5.86122
11
4.49311
21
-5.87247
0
LINE
8
BLACK
6
CONTINUOUS
10
4.49311
20
-5.87247
11
4.49311
21
-5.93434
0
LINE
8
BLACK
6
CONTINUOUS
10
4.49311
20
-5.87247
11
4.49873
21
-5.86122
0
LINE
8
BLACK
6
CONTINUOUS
10
4.49873
20
-5.86122
11
4.50998
21
-5.8556
0
LINE
8
BLACK
6
CONTINUOUS
10
4.50998
20
-5.8556
11
4.52686
21
-5.8556
0
LINE
8
BLACK
6
CONTINUOUS
10
4.52686
20
-5.8556
11
4.5381
21
-5.86122
0
LINE
8
BLACK
6
CONTINUOUS
10
4.5381
20
-5.86122
11
4.54373
21
-5.87247
0
LINE
8
BLACK
6
CONTINUOUS
10
4.54373
20
-5.87247
11
4.54373
21
-5.93434
0
LINE
8
BLACK
6
CONTINUOUS
10
4.59997
20
-5.93434
11
4.59997
21
-5.8556
0
LINE
8
BLACK
6
CONTINUOUS
10
4.59997
20
-5.86684
11
4.6056
21
-5.86122
0
LINE
8
BLACK
6
CONTINUOUS
10
4.6056
20
-5.86122
11
4.61684
21
-5.8556
0
LINE
8
BLACK
6
CONTINUOUS
10
4.61684
20
-5.8556
11
4.63372
21
-5.8556
0
LINE
8
BLACK
6
CONTINUOUS
10
4.63372
20
-5.8556
11
4.64497
21
-5.86122
0
LINE
8
BLACK
6
CONTINUOUS
10
4.64497
20
-5.86122
11
4.65059
21
-5.87247
0
LINE
8
BLACK
6
CONTINUOUS
10
4.65059
20
-5.87247
11
4.65059
21
-5.93434
0
LINE
8
BLACK
6
CONTINUOUS
10
4.65059
20
-5.87247
11
4.65621
21
-5.86122
0
LINE
8
BLACK
6
CONTINUOUS
10
4.65621
20
-5.86122
11
4.66746
21
-5.8556
0
LINE
8
BLACK
6
CONTINUOUS
10
4.66746
20
-5.8556
11
4.68434
21
-5.8556
0
LINE
8
BLACK
6
CONTINUOUS
10
4.68434
20
-5.8556
11
4.69558
21
-5.86122
0
LINE
8
BLACK
6
CONTINUOUS
10
4.69558
20
-5.86122
11
4.70121
21
-5.87247
0
LINE
8
BLACK
6
CONTINUOUS
10
4.70121
20
-5.87247
11
4.70121
21
-5.93434
0
LINE
8
BLACK
6
CONTINUOUS
10
4.93181
20
-5.8106
11
4.83057
21
-5.96246
0
LINE
8
BLACK
6
CONTINUOUS
10
5.08366
20
-5.81623
11
5.09491
21
-5.81623
0
LINE
8
BLACK
6
CONTINUOUS
10
5.09491
20
-5.81623
11
5.10616
21
-5.82185
0
LINE
8
BLACK
6
CONTINUOUS
10
5.10616
20
-5.82185
11
5.11178
21
-5.82747
0
LINE
8
BLACK
6
CONTINUOUS
10
5.11178
20
-5.82747
11
5.11741
21
-5.83872
0
LINE
8
BLACK
6
CONTINUOUS
10
5.11741
20
-5.83872
11
5.12303
21
-5.86122
0
LINE
8
BLACK
6
CONTINUOUS
10
5.12303
20
-5.86122
11
5.12303
21
-5.88934
0
LINE
8
BLACK
6
CONTINUOUS
10
5.12303
20
-5.88934
11
5.11741
21
-5.91184
0
LINE
8
BLACK
6
CONTINUOUS
10
5.11741
20
-5.91184
11
5.11178
21
-5.92309
0
LINE
8
BLACK
6
CONTINUOUS
10
5.11178
20
-5.92309
11
5.10616
21
-5.92871
0
LINE
8
BLACK
6
CONTINUOUS
10
5.10616
20
-5.92871
11
5.09491
21
-5.93434
0
LINE
8
BLACK
6
CONTINUOUS
10
5.09491
20
-5.93434
11
5.08366
21
-5.93434
0
LINE
8
BLACK
6
CONTINUOUS
10
5.08366
20
-5.93434
11
5.07241
21
-5.92871
0
LINE
8
BLACK
6
CONTINUOUS
10
5.07241
20
-5.92871
11
5.06679
21
-5.92309
0
LINE
8
BLACK
6
CONTINUOUS
10
5.06679
20
-5.92309
11
5.06116
21
-5.91184
0
LINE
8
BLACK
6
CONTINUOUS
10
5.06116
20
-5.91184
11
5.05554
21
-5.88934
0
LINE
8
BLACK
6
CONTINUOUS
10
5.05554
20
-5.88934
11
5.05554
21
-5.86122
0
LINE
8
BLACK
6
CONTINUOUS
10
5.05554
20
-5.86122
11
5.06116
21
-5.83872
0
LINE
8
BLACK
6
CONTINUOUS
10
5.06116
20
-5.83872
11
5.06679
21
-5.82747
0
LINE
8
BLACK
6
CONTINUOUS
10
5.06679
20
-5.82747
11
5.07241
21
-5.82185
0
LINE
8
BLACK
6
CONTINUOUS
10
5.07241
20
-5.82185
11
5.08366
21
-5.81623
0
LINE
8
BLACK
6
CONTINUOUS
10
5.17365
20
-5.92309
11
5.17927
21
-5.92871
0
LINE
8
BLACK
6
CONTINUOUS
10
5.17927
20
-5.92871
11
5.17365
21
-5.93434
0
LINE
8
BLACK
6
CONTINUOUS
10
5.17365
20
-5.93434
11
5.16803
21
-5.92871
0
LINE
8
BLACK
6
CONTINUOUS
10
5.16803
20
-5.92871
11
5.17365
21
-5.92309
0
LINE
8
BLACK
6
CONTINUOUS
10
5.17365
20
-5.92309
11
5.17365
21
-5.93434
0
LINE
8
BLACK
6
CONTINUOUS
10
5.29176
20
-5.93434
11
5.22427
21
-5.93434
0
LINE
8
BLACK
6
CONTINUOUS
10
5.25801
20
-5.93434
11
5.25801
21
-5.81623
0
LINE
8
BLACK
6
CONTINUOUS
10
5.25801
20
-5.81623
11
5.24677
21
-5.8331
0
LINE
8
BLACK
6
CONTINUOUS
10
5.24677
20
-5.8331
11
5.23552
21
-5.84435
0
LINE
8
BLACK
6
CONTINUOUS
10
5.23552
20
-5.84435
11
5.22427
21
-5.84997
0
LINE
8
BLACK
6
CONTINUOUS
10
5.39862
20
-5.81623
11
5.34238
21
-5.81623
0
LINE
8
BLACK
6
CONTINUOUS
10
5.34238
20
-5.81623
11
5.33675
21
-5.87247
0
LINE
8
BLACK
6
CONTINUOUS
10
5.33675
20
-5.87247
11
5.34238
21
-5.86684
0
LINE
8
BLACK
6
CONTINUOUS
10
5.34238
20
-5.86684
11
5.35363
21
-5.86122
0
LINE
8
BLACK
6
CONTINUOUS
10
5.35363
20
-5.86122
11
5.38175
21
-5.86122
0
LINE
8
BLACK
6
CONTINUOUS
10
5.38175
20
-5.86122
11
5.393
21
-5.86684
0
LINE
8
BLACK
6
CONTINUOUS
10
5.393
20
-5.86684
11
5.39862
21
-5.87247
0
LINE
8
BLACK
6
CONTINUOUS
10
5.39862
20
-5.87247
11
5.40425
21
-5.88372
0
LINE
8
BLACK
6
CONTINUOUS
10
5.40425
20
-5.88372
11
5.40425
21
-5.91184
0
LINE
8
BLACK
6
CONTINUOUS
10
5.40425
20
-5.91184
11
5.39862
21
-5.92309
0
LINE
8
BLACK
6
CONTINUOUS
10
5.39862
20
-5.92309
11
5.393
21
-5.92871
0
LINE
8
BLACK
6
CONTINUOUS
10
5.393
20
-5.92871
11
5.38175
21
-5.93434
0
LINE
8
BLACK
6
CONTINUOUS
10
5.38175
20
-5.93434
11
5.35363
21
-5.93434
0
LINE
8
BLACK
6
CONTINUOUS
10
5.35363
20
-5.93434
11
5.34238
21
-5.92871
0
LINE
8
BLACK
6
CONTINUOUS
10
5.34238
20
-5.92871
11
5.33675
21
-5.92309
0
LINE
8
BLACK
6
CONTINUOUS
10
5.44362
20
-5.81623
11
5.52236
21
-5.81623
0
LINE
8
BLACK
6
CONTINUOUS
10
5.52236
20
-5.81623
11
5.47174
21
-5.93434
0
LINE
8
BLACK
6
CONTINUOUS
10
5.56173
20
-5.81623
11
5.56173
21
-5.83872
0
LINE
8
BLACK
6
CONTINUOUS
10
5.60672
20
-5.81623
11
5.60672
21
-5.83872
0
LINE
8
BLACK
6
CONTINUOUS
10
5.78107
20
-5.97933
11
5.77545
21
-5.97371
0
LINE
8
BLACK
6
CONTINUOUS
10
5.77545
20
-5.97371
11
5.7642
21
-5.95683
0
LINE
8
BLACK
6
CONTINUOUS
10
5.7642
20
-5.95683
11
5.75858
21
-5.94558
0
LINE
8
BLACK
6
CONTINUOUS
10
5.75858
20
-5.94558
11
5.75295
21
-5.92871
0
LINE
8
BLACK
6
CONTINUOUS
10
5.75295
20
-5.92871
11
5.74733
21
-5.90059
0
LINE
8
BLACK
6
CONTINUOUS
10
5.74733
20
-5.90059
11
5.74733
21
-5.87809
0
LINE
8
BLACK
6
CONTINUOUS
10
5.74733
20
-5.87809
11
5.75295
21
-5.84997
0
LINE
8
BLACK
6
CONTINUOUS
10
5.75295
20
-5.84997
11
5.75858
21
-5.8331
0
LINE
8
BLACK
6
CONTINUOUS
10
5.75858
20
-5.8331
11
5.7642
21
-5.82185
0
LINE
8
BLACK
6
CONTINUOUS
10
5.7642
20
-5.82185
11
5.77545
21
-5.80498
0
LINE
8
BLACK
6
CONTINUOUS
10
5.77545
20
-5.80498
11
5.78107
21
-5.79935
0
LINE
8
BLACK
6
CONTINUOUS
10
5.88794
20
-5.93434
11
5.82044
21
-5.93434
0
LINE
8
BLACK
6
CONTINUOUS
10
5.85419
20
-5.93434
11
5.85419
21
-5.81623
0
LINE
8
BLACK
6
CONTINUOUS
10
5.85419
20
-5.81623
11
5.84294
21
-5.8331
0
LINE
8
BLACK
6
CONTINUOUS
10
5.84294
20
-5.8331
11
5.83169
21
-5.84435
0
LINE
8
BLACK
6
CONTINUOUS
10
5.83169
20
-5.84435
11
5.82044
21
-5.84997
0
LINE
8
BLACK
6
CONTINUOUS
10
6.02854
20
-5.93434
11
6.02854
21
-5.81623
0
LINE
8
BLACK
6
CONTINUOUS
10
6.07916
20
-5.93434
11
6.07916
21
-5.87247
0
LINE
8
BLACK
6
CONTINUOUS
10
6.07916
20
-5.87247
11
6.07354
21
-5.86122
0
LINE
8
BLACK
6
CONTINUOUS
10
6.07354
20
-5.86122
11
6.06229
21
-5.8556
0
LINE
8
BLACK
6
CONTINUOUS
10
6.06229
20
-5.8556
11
6.04542
21
-5.8556
0
LINE
8
BLACK
6
CONTINUOUS
10
6.04542
20
-5.8556
11
6.03417
21
-5.86122
0
LINE
8
BLACK
6
CONTINUOUS
10
6.03417
20
-5.86122
11
6.02854
21
-5.86684
0
LINE
8
BLACK
6
CONTINUOUS
10
6.15228
20
-5.93434
11
6.14103
21
-5.92871
0
LINE
8
BLACK
6
CONTINUOUS
10
6.14103
20
-5.92871
11
6.1354
21
-5.92309
0
LINE
8
BLACK
6
CONTINUOUS
10
6.1354
20
-5.92309
11
6.12978
21
-5.91184
0
LINE
8
BLACK
6
CONTINUOUS
10
6.12978
20
-5.91184
11
6.12978
21
-5.87809
0
LINE
8
BLACK
6
CONTINUOUS
10
6.12978
20
-5.87809
11
6.1354
21
-5.86684
0
LINE
8
BLACK
6
CONTINUOUS
10
6.1354
20
-5.86684
11
6.14103
21
-5.86122
0
LINE
8
BLACK
6
CONTINUOUS
10
6.14103
20
-5.86122
11
6.15228
21
-5.8556
0
LINE
8
BLACK
6
CONTINUOUS
10
6.15228
20
-5.8556
11
6.16915
21
-5.8556
0
LINE
8
BLACK
6
CONTINUOUS
10
6.16915
20
-5.8556
11
6.1804
21
-5.86122
0
LINE
8
BLACK
6
CONTINUOUS
10
6.1804
20
-5.86122
11
6.18602
21
-5.86684
0
LINE
8
BLACK
6
CONTINUOUS
10
6.18602
20
-5.86684
11
6.19165
21
-5.87809
0
LINE
8
BLACK
6
CONTINUOUS
10
6.19165
20
-5.87809
11
6.19165
21
-5.91184
0
LINE
8
BLACK
6
CONTINUOUS
10
6.19165
20
-5.91184
11
6.18602
21
-5.92309
0
LINE
8
BLACK
6
CONTINUOUS
10
6.18602
20
-5.92309
11
6.1804
21
-5.92871
0
LINE
8
BLACK
6
CONTINUOUS
10
6.1804
20
-5.92871
11
6.16915
21
-5.93434
0
LINE
8
BLACK
6
CONTINUOUS
10
6.16915
20
-5.93434
11
6.15228
21
-5.93434
0
LINE
8
BLACK
6
CONTINUOUS
10
6.25914
20
-5.93434
11
6.24789
21
-5.92871
0
LINE
8
BLACK
6
CONTINUOUS
10
6.24789
20
-5.92871
11
6.24227
21
-5.91746
0
LINE
8
BLACK
6
CONTINUOUS
10
6.24227
20
-5.91746
11
6.24227
21
-5.81623
0
LINE
8
BLACK
6
CONTINUOUS
10
6.34913
20
-5.92871
11
6.33788
21
-5.93434
0
LINE
8
BLACK
6
CONTINUOUS
10
6.33788
20
-5.93434
11
6.31538
21
-5.93434
0
LINE
8
BLACK
6
CONTINUOUS
10
6.31538
20
-5.93434
11
6.30413
21
-5.92871
0
LINE
8
BLACK
6
CONTINUOUS
10
6.30413
20
-5.92871
11
6.29851
21
-5.91746
0
LINE
8
BLACK
6
CONTINUOUS
10
6.29851
20
-5.91746
11
6.29851
21
-5.87247
0
LINE
8
BLACK
6
CONTINUOUS
10
6.29851
20
-5.87247
11
6.30413
21
-5.86122
0
LINE
8
BLACK
6
CONTINUOUS
10
6.30413
20
-5.86122
11
6.31538
21
-5.8556
0
LINE
8
BLACK
6
CONTINUOUS
10
6.31538
20
-5.8556
11
6.33788
21
-5.8556
0
LINE
8
BLACK
6
CONTINUOUS
10
6.33788
20
-5.8556
11
6.34913
21
-5.86122
0
LINE
8
BLACK
6
CONTINUOUS
10
6.34913
20
-5.86122
11
6.35475
21
-5.87247
0
LINE
8
BLACK
6
CONTINUOUS
10
6.35475
20
-5.87247
11
6.35475
21
-5.88372
0
LINE
8
BLACK
6
CONTINUOUS
10
6.35475
20
-5.88372
11
6.29851
21
-5.89497
0
LINE
8
BLACK
6
CONTINUOUS
10
6.39412
20
-5.97933
11
6.39975
21
-5.97371
0
LINE
8
BLACK
6
CONTINUOUS
10
6.39975
20
-5.97371
11
6.411
21
-5.95683
0
LINE
8
BLACK
6
CONTINUOUS
10
6.411
20
-5.95683
11
6.41662
21
-5.94558
0
LINE
8
BLACK
6
CONTINUOUS
10
6.41662
20
-5.94558
11
6.42224
21
-5.92871
0
LINE
8
BLACK
6
CONTINUOUS
10
6.42224
20
-5.92871
11
6.42787
21
-5.90059
0
LINE
8
BLACK
6
CONTINUOUS
10
6.42787
20
-5.90059
11
6.42787
21
-5.87809
0
LINE
8
BLACK
6
CONTINUOUS
10
6.42787
20
-5.87809
11
6.42224
21
-5.84997
0
LINE
8
BLACK
6
CONTINUOUS
10
6.42224
20
-5.84997
11
6.41662
21
-5.8331
0
LINE
8
BLACK
6
CONTINUOUS
10
6.41662
20
-5.8331
11
6.411
21
-5.82185
0
LINE
8
BLACK
6
CONTINUOUS
10
6.411
20
-5.82185
11
6.39975
21
-5.80498
0
LINE
8
BLACK
6
CONTINUOUS
10
6.39975
20
-5.80498
11
6.39412
21
-5.79935
0
LINE
8
BLACK
6
CONTINUOUS
10
6.60785
20
-5.97933
11
6.60222
21
-5.97371
0
LINE
8
BLACK
6
CONTINUOUS
10
6.60222
20
-5.97371
11
6.59097
21
-5.95683
0
LINE
8
BLACK
6
CONTINUOUS
10
6.59097
20
-5.95683
11
6.58535
21
-5.94558
0
LINE
8
BLACK
6
CONTINUOUS
10
6.58535
20
-5.94558
11
6.57972
21
-5.92871
0
LINE
8
BLACK
6
CONTINUOUS
10
6.57972
20
-5.92871
11
6.5741
21
-5.90059
0
LINE
8
BLACK
6
CONTINUOUS
10
6.5741
20
-5.90059
11
6.5741
21
-5.87809
0
LINE
8
BLACK
6
CONTINUOUS
10
6.5741
20
-5.87809
11
6.57972
21
-5.84997
0
LINE
8
BLACK
6
CONTINUOUS
10
6.57972
20
-5.84997
11
6.58535
21
-5.8331
0
LINE
8
BLACK
6
CONTINUOUS
10
6.58535
20
-5.8331
11
6.59097
21
-5.82185
0
LINE
8
BLACK
6
CONTINUOUS
10
6.59097
20
-5.82185
11
6.60222
21
-5.80498
0
LINE
8
BLACK
6
CONTINUOUS
10
6.60222
20
-5.80498
11
6.60785
21
-5.79935
0
LINE
8
BLACK
6
CONTINUOUS
10
6.65284
20
-5.8556
11
6.65284
21
-5.93434
0
LINE
8
BLACK
6
CONTINUOUS
10
6.65284
20
-5.86684
11
6.65846
21
-5.86122
0
LINE
8
BLACK
6
CONTINUOUS
10
6.65846
20
-5.86122
11
6.66971
21
-5.8556
0
LINE
8
BLACK
6
CONTINUOUS
10
6.66971
20
-5.8556
11
6.68659
21
-5.8556
0
LINE
8
BLACK
6
CONTINUOUS
10
6.68659
20
-5.8556
11
6.69783
21
-5.86122
0
LINE
8
BLACK
6
CONTINUOUS
10
6.69783
20
-5.86122
11
6.70346
21
-5.87247
0
LINE
8
BLACK
6
CONTINUOUS
10
6.70346
20
-5.87247
11
6.70346
21
-5.93434
0
LINE
8
BLACK
6
CONTINUOUS
10
6.77657
20
-5.93434
11
6.76533
21
-5.92871
0
LINE
8
BLACK
6
CONTINUOUS
10
6.76533
20
-5.92871
11
6.7597
21
-5.92309
0
LINE
8
BLACK
6
CONTINUOUS
10
6.7597
20
-5.92309
11
6.75408
21
-5.91184
0
LINE
8
BLACK
6
CONTINUOUS
10
6.75408
20
-5.91184
11
6.75408
21
-5.87809
0
LINE
8
BLACK
6
CONTINUOUS
10
6.75408
20
-5.87809
11
6.7597
21
-5.86684
0
LINE
8
BLACK
6
CONTINUOUS
10
6.7597
20
-5.86684
11
6.76533
21
-5.86122
0
LINE
8
BLACK
6
CONTINUOUS
10
6.76533
20
-5.86122
11
6.77657
21
-5.8556
0
LINE
8
BLACK
6
CONTINUOUS
10
6.77657
20
-5.8556
11
6.79345
21
-5.8556
0
LINE
8
BLACK
6
CONTINUOUS
10
6.79345
20
-5.8556
11
6.8047
21
-5.86122
0
LINE
8
BLACK
6
CONTINUOUS
10
6.8047
20
-5.86122
11
6.81032
21
-5.86684
0
LINE
8
BLACK
6
CONTINUOUS
10
6.81032
20
-5.86684
11
6.81594
21
-5.87809
0
LINE
8
BLACK
6
CONTINUOUS
10
6.81594
20
-5.87809
11
6.81594
21
-5.91184
0
LINE
8
BLACK
6
CONTINUOUS
10
6.81594
20
-5.91184
11
6.81032
21
-5.92309
0
LINE
8
BLACK
6
CONTINUOUS
10
6.81032
20
-5.92309
11
6.8047
21
-5.92871
0
LINE
8
BLACK
6
CONTINUOUS
10
6.8047
20
-5.92871
11
6.79345
21
-5.93434
0
LINE
8
BLACK
6
CONTINUOUS
10
6.79345
20
-5.93434
11
6.77657
21
-5.93434
0
LINE
8
BLACK
6
CONTINUOUS
10
6.84969
20
-5.8556
11
6.89468
21
-5.8556
0
LINE
8
BLACK
6
CONTINUOUS
10
6.86656
20
-5.81623
11
6.86656
21
-5.91746
0
LINE
8
BLACK
6
CONTINUOUS
10
6.86656
20
-5.91746
11
6.87219
21
-5.92871
0
LINE
8
BLACK
6
CONTINUOUS
10
6.87219
20
-5.92871
11
6.88344
21
-5.93434
0
LINE
8
BLACK
6
CONTINUOUS
10
6.88344
20
-5.93434
11
6.89468
21
-5.93434
0
LINE
8
BLACK
6
CONTINUOUS
10
7.02404
20
-5.8556
11
7.02404
21
-5.97371
0
LINE
8
BLACK
6
CONTINUOUS
10
7.02404
20
-5.86122
11
7.03529
21
-5.8556
0
LINE
8
BLACK
6
CONTINUOUS
10
7.03529
20
-5.8556
11
7.05779
21
-5.8556
0
LINE
8
BLACK
6
CONTINUOUS
10
7.05779
20
-5.8556
11
7.06904
21
-5.86122
0
LINE
8
BLACK
6
CONTINUOUS
10
7.06904
20
-5.86122
11
7.07466
21
-5.86684
0
LINE
8
BLACK
6
CONTINUOUS
10
7.07466
20
-5.86684
11
7.08029
21
-5.87809
0
LINE
8
BLACK
6
CONTINUOUS
10
7.08029
20
-5.87809
11
7.08029
21
-5.91184
0
LINE
8
BLACK
6
CONTINUOUS
10
7.08029
20
-5.91184
11
7.07466
21
-5.92309
0
LINE
8
BLACK
6
CONTINUOUS
10
7.07466
20
-5.92309
11
7.06904
21
-5.92871
0
LINE
8
BLACK
6
CONTINUOUS
10
7.06904
20
-5.92871
11
7.05779
21
-5.93434
0
LINE
8
BLACK
6
CONTINUOUS
10
7.05779
20
-5.93434
11
7.03529
21
-5.93434
0
LINE
8
BLACK
6
CONTINUOUS
10
7.03529
20
-5.93434
11
7.02404
21
-5.92871
0
LINE
8
BLACK
6
CONTINUOUS
10
7.14778
20
-5.93434
11
7.13653
21
-5.92871
0
LINE
8
BLACK
6
CONTINUOUS
10
7.13653
20
-5.92871
11
7.13091
21
-5.91746
0
LINE
8
BLACK
6
CONTINUOUS
10
7.13091
20
-5.91746
11
7.13091
21
-5.81623
0
LINE
8
BLACK
6
CONTINUOUS
10
7.24339
20
-5.93434
11
7.24339
21
-5.87247
0
LINE
8
BLACK
6
CONTINUOUS
10
7.24339
20
-5.87247
11
7.23777
21
-5.86122
0
LINE
8
BLACK
6
CONTINUOUS
10
7.23777
20
-5.86122
11
7.22652
21
-5.8556
0
LINE
8
BLACK
6
CONTINUOUS
10
7.22652
20
-5.8556
11
7.20402
21
-5.8556
0
LINE
8
BLACK
6
CONTINUOUS
10
7.20402
20
-5.8556
11
7.19277
21
-5.86122
0
LINE
8
BLACK
6
CONTINUOUS
10
7.24339
20
-5.92871
11
7.23214
21
-5.93434
0
LINE
8
BLACK
6
CONTINUOUS
10
7.23214
20
-5.93434
11
7.20402
21
-5.93434
0
LINE
8
BLACK
6
CONTINUOUS
10
7.20402
20
-5.93434
11
7.19277
21
-5.92871
0
LINE
8
BLACK
6
CONTINUOUS
10
7.19277
20
-5.92871
11
7.18715
21
-5.91746
0
LINE
8
BLACK
6
CONTINUOUS
10
7.18715
20
-5.91746
11
7.18715
21
-5.90621
0
LINE
8
BLACK
6
CONTINUOUS
10
7.18715
20
-5.90621
11
7.19277
21
-5.89497
0
LINE
8
BLACK
6
CONTINUOUS
10
7.19277
20
-5.89497
11
7.20402
21
-5.88934
0
LINE
8
BLACK
6
CONTINUOUS
10
7.20402
20
-5.88934
11
7.23214
21
-5.88934
0
LINE
8
BLACK
6
CONTINUOUS
10
7.23214
20
-5.88934
11
7.24339
21
-5.88372
0
LINE
8
BLACK
6
CONTINUOUS
10
7.28276
20
-5.8556
11
7.32776
21
-5.8556
0
LINE
8
BLACK
6
CONTINUOUS
10
7.29963
20
-5.81623
11
7.29963
21
-5.91746
0
LINE
8
BLACK
6
CONTINUOUS
10
7.29963
20
-5.91746
11
7.30526
21
-5.92871
0
LINE
8
BLACK
6
CONTINUOUS
10
7.30526
20
-5.92871
11
7.31651
21
-5.93434
0
LINE
8
BLACK
6
CONTINUOUS
10
7.31651
20
-5.93434
11
7.32776
21
-5.93434
0
LINE
8
BLACK
6
CONTINUOUS
10
7.41212
20
-5.92871
11
7.40087
21
-5.93434
0
LINE
8
BLACK
6
CONTINUOUS
10
7.40087
20
-5.93434
11
7.37837
21
-5.93434
0
LINE
8
BLACK
6
CONTINUOUS
10
7.37837
20
-5.93434
11
7.36713
21
-5.92871
0
LINE
8
BLACK
6
CONTINUOUS
10
7.36713
20
-5.92871
11
7.3615
21
-5.91746
0
LINE
8
BLACK
6
CONTINUOUS
10
7.3615
20
-5.91746
11
7.3615
21
-5.87247
0
LINE
8
BLACK
6
CONTINUOUS
10
7.3615
20
-5.87247
11
7.36713
21
-5.86122
0
LINE
8
BLACK
6
CONTINUOUS
10
7.36713
20
-5.86122
11
7.37837
21
-5.8556
0
LINE
8
BLACK
6
CONTINUOUS
10
7.37837
20
-5.8556
11
7.40087
21
-5.8556
0
LINE
8
BLACK
6
CONTINUOUS
10
7.40087
20
-5.8556
11
7.41212
21
-5.86122
0
LINE
8
BLACK
6
CONTINUOUS
10
7.41212
20
-5.86122
11
7.41774
21
-5.87247
0
LINE
8
BLACK
6
CONTINUOUS
10
7.41774
20
-5.87247
11
7.41774
21
-5.88372
0
LINE
8
BLACK
6
CONTINUOUS
10
7.41774
20
-5.88372
11
7.3615
21
-5.89497
0
LINE
8
BLACK
6
CONTINUOUS
10
7.51898
20
-5.93434
11
7.51898
21
-5.81623
0
LINE
8
BLACK
6
CONTINUOUS
10
7.51898
20
-5.92871
11
7.50773
21
-5.93434
0
LINE
8
BLACK
6
CONTINUOUS
10
7.50773
20
-5.93434
11
7.48524
21
-5.93434
0
LINE
8
BLACK
6
CONTINUOUS
10
7.48524
20
-5.93434
11
7.47399
21
-5.92871
0
LINE
8
BLACK
6
CONTINUOUS
10
7.47399
20
-5.92871
11
7.46836
21
-5.92309
0
LINE
8
BLACK
6
CONTINUOUS
10
7.46836
20
-5.92309
11
7.46274
21
-5.91184
0
LINE
8
BLACK
6
CONTINUOUS
10
7.46274
20
-5.91184
11
7.46274
21
-5.87809
0
LINE
8
BLACK
6
CONTINUOUS
10
7.46274
20
-5.87809
11
7.46836
21
-5.86684
0
LINE
8
BLACK
6
CONTINUOUS
10
7.46836
20
-5.86684
11
7.47399
21
-5.86122
0
LINE
8
BLACK
6
CONTINUOUS
10
7.47399
20
-5.86122
11
7.48524
21
-5.8556
0
LINE
8
BLACK
6
CONTINUOUS
10
7.48524
20
-5.8556
11
7.50773
21
-5.8556
0
LINE
8
BLACK
6
CONTINUOUS
10
7.50773
20
-5.8556
11
7.51898
21
-5.86122
0
LINE
8
BLACK
6
CONTINUOUS
10
7.56398
20
-5.97933
11
7.5696
21
-5.97371
0
LINE
8
BLACK
6
CONTINUOUS
10
7.5696
20
-5.97371
11
7.58085
21
-5.95683
0
LINE
8
BLACK
6
CONTINUOUS
10
7.58085
20
-5.95683
11
7.58647
21
-5.94558
0
LINE
8
BLACK
6
CONTINUOUS
10
7.58647
20
-5.94558
11
7.5921
21
-5.92871
0
LINE
8
BLACK
6
CONTINUOUS
10
7.5921
20
-5.92871
11
7.59772
21
-5.90059
0
LINE
8
BLACK
6
CONTINUOUS
10
7.59772
20
-5.90059
11
7.59772
21
-5.87809
0
LINE
8
BLACK
6
CONTINUOUS
10
7.59772
20
-5.87809
11
7.5921
21
-5.84997
0
LINE
8
BLACK
6
CONTINUOUS
10
7.5921
20
-5.84997
11
7.58647
21
-5.8331
0
LINE
8
BLACK
6
CONTINUOUS
10
7.58647
20
-5.8331
11
7.58085
21
-5.82185
0
LINE
8
BLACK
6
CONTINUOUS
10
7.58085
20
-5.82185
11
7.5696
21
-5.80498
0
LINE
8
BLACK
6
CONTINUOUS
10
7.5696
20
-5.80498
11
7.56398
21
-5.79935
  0
ENDSEC
  0
EOF
