M48
; DRILL file {KiCad (5.1.6)-1} date 11/11/20 20:01:26
; FORMAT={-:-/ absolute / metric / decimal}
; #@! TF.CreationDate,2020-11-11T20:01:26+11:00
; #@! TF.GenerationSoftware,Kicad,Pcbnew,(5.1.6)-1
; #@! TF.FileFunction,Plated,1,4,PTH
FMAT,2
METRIC
T1C0.400
T2C0.500
T3C0.600
T4C0.700
T5C0.762
T6C0.800
T7C0.900
T8C1.000
T9C1.200
T10C1.800
T11C1.850
T12C3.000
%
G90
G05
T1
X111.125Y-57.023
X113.081Y-41.377
X119.062Y-127.825
X123.126Y-102.431
X127.0Y-137.16
X127.508Y-117.538
X130.556Y-117.538
X132.017Y-95.504
X132.08Y-117.538
X133.667Y-101.346
X134.62Y-127.0
X135.407Y-41.377
X139.598Y-87.02
X140.462Y-69.278
X140.589Y-88.265
X142.43Y-66.802
X146.812Y-131.572
X148.59Y-98.425
X156.21Y-107.632
X158.75Y-106.934
X161.29Y-106.236
X163.322Y-114.554
X163.322Y-119.126
X165.227Y-42.291
X165.227Y-49.911
X168.148Y-78.613
X169.164Y-129.794
X169.418Y-78.613
X175.006Y-84.582
X182.118Y-129.794
X183.325Y-86.296
X185.039Y-86.296
X186.69Y-42.291
X186.69Y-49.911
X188.214Y-90.424
X188.278Y-108.966
T2
X101.636Y-43.434
X102.295Y-41.843
X102.295Y-45.025
X103.886Y-41.184
X103.886Y-45.684
X105.477Y-41.843
X105.477Y-45.025
X106.136Y-43.434
X193.838Y-136.017
X194.497Y-134.426
X194.497Y-137.608
X196.088Y-133.767
X196.088Y-138.267
X197.679Y-134.426
X197.679Y-137.608
X198.338Y-136.017
X158.1Y-127.737
X158.759Y-126.146
X158.759Y-129.328
X160.35Y-125.487
X160.35Y-129.987
X161.941Y-126.146
X161.941Y-129.328
X162.6Y-127.737
X193.838Y-43.434
X194.497Y-41.843
X194.497Y-45.025
X196.088Y-41.184
X196.088Y-45.684
X197.679Y-41.843
X197.679Y-45.025
X198.338Y-43.434
X101.576Y-136.077
X102.235Y-134.486
X102.235Y-137.668
X103.826Y-133.827
X103.826Y-138.327
X105.417Y-134.486
X105.417Y-137.668
X106.076Y-136.077
T3
X114.222Y-72.263
X115.722Y-72.263
X114.197Y-67.183
X115.697Y-67.183
T4
X126.746Y-93.218
X129.286Y-93.218
X165.354Y-104.394
X167.894Y-104.394
X170.688Y-104.394
X173.228Y-104.394
X181.356Y-104.394
X183.896Y-104.394
X156.769Y-134.899
X156.769Y-137.439
X176.022Y-104.394
X178.562Y-104.394
T5
X164.612Y-71.755
X138.049Y-114.046
X138.069Y-111.506
X164.597Y-66.675
X164.617Y-64.135
X164.572Y-94.615
X164.592Y-92.075
X164.592Y-74.295
T6
X191.77Y-132.334
X167.08Y-42.24
X167.08Y-49.86
X169.62Y-42.24
X169.62Y-49.86
X172.16Y-42.24
X172.16Y-49.86
X174.7Y-42.24
X174.7Y-49.86
X177.24Y-42.24
X177.24Y-49.86
X179.78Y-42.24
X179.78Y-49.86
X182.32Y-42.24
X182.32Y-49.86
X184.86Y-42.24
X184.86Y-49.86
X146.215Y-66.7
X146.215Y-69.24
X146.215Y-71.78
X146.215Y-74.32
X146.215Y-76.86
X146.215Y-79.4
X146.215Y-81.94
X146.215Y-84.48
X146.215Y-87.02
X146.215Y-89.56
X146.215Y-92.1
X146.215Y-94.64
X146.215Y-97.18
X146.215Y-99.72
X146.215Y-102.26
X161.455Y-66.7
X161.455Y-69.24
X161.455Y-71.78
X161.455Y-74.32
X161.455Y-76.86
X161.455Y-79.4
X161.455Y-81.94
X161.455Y-84.48
X161.455Y-87.02
X161.455Y-89.56
X161.455Y-92.1
X161.455Y-94.64
X161.455Y-97.18
X161.455Y-99.72
X161.455Y-102.26
X119.126Y-78.486
X119.126Y-81.026
X119.126Y-86.106
X119.126Y-88.646
X119.126Y-101.346
X119.126Y-103.886
X119.126Y-108.966
X119.126Y-111.506
X119.126Y-114.046
X119.126Y-116.586
X134.366Y-78.486
X134.366Y-81.026
X134.366Y-83.566
X134.366Y-103.886
X134.366Y-106.426
X134.366Y-114.046
X134.366Y-116.586
X126.151Y-110.363
X128.651Y-110.363
X124.206Y-97.282
X126.746Y-97.282
X129.286Y-97.282
T7
X177.038Y-99.566
X177.038Y-102.106
X182.372Y-99.486
X182.372Y-102.026
X171.704Y-99.568
X171.704Y-102.108
X166.37Y-99.568
X166.37Y-102.108
X160.579Y-134.849
X160.579Y-137.389
T8
X166.37Y-111.76
X166.37Y-119.38
X168.91Y-111.76
X168.91Y-119.38
X171.45Y-111.76
X171.45Y-119.38
X173.99Y-111.76
X173.99Y-119.38
X176.53Y-111.76
X176.53Y-119.38
X179.07Y-111.76
X179.07Y-119.38
X181.61Y-111.76
X181.61Y-119.38
X187.452Y-95.377
X187.452Y-97.917
X187.452Y-100.457
X187.452Y-102.997
X143.51Y-111.76
X143.51Y-119.38
X146.05Y-111.76
X146.05Y-119.38
X148.59Y-111.76
X148.59Y-119.38
X151.13Y-111.76
X151.13Y-119.38
X153.67Y-111.76
X153.67Y-119.38
X156.21Y-111.76
X156.21Y-119.38
X158.75Y-111.76
X158.75Y-119.38
X161.29Y-111.76
X161.29Y-119.38
X120.142Y-67.183
X120.142Y-69.723
X120.142Y-72.263
X115.062Y-56.896
X115.062Y-59.436
X117.602Y-56.896
X117.602Y-59.436
X120.142Y-56.896
X120.142Y-59.436
X122.682Y-56.896
X122.682Y-59.436
X125.222Y-56.896
X125.222Y-59.436
X127.762Y-56.896
X127.762Y-59.436
X130.302Y-56.896
X130.302Y-59.436
X132.842Y-56.896
X132.842Y-59.436
X135.382Y-56.896
X135.382Y-59.436
X137.922Y-56.896
X137.922Y-59.436
X140.462Y-56.896
X140.462Y-59.436
X143.002Y-56.896
X143.002Y-59.436
X145.542Y-56.896
X145.542Y-59.436
X148.082Y-56.896
X148.082Y-59.436
X150.622Y-56.896
X150.622Y-59.436
X153.162Y-56.896
X153.162Y-59.436
X155.702Y-56.896
X155.702Y-59.436
X158.242Y-56.896
X158.242Y-59.436
X160.782Y-56.896
X160.782Y-59.436
X163.322Y-56.896
X163.322Y-59.436
X184.15Y-59.182
X184.15Y-61.722
X184.15Y-64.262
X184.15Y-66.802
X184.15Y-69.342
X184.15Y-71.882
X184.15Y-74.422
X184.15Y-76.962
X184.15Y-79.502
X184.15Y-82.042
X186.69Y-59.182
X186.69Y-61.722
X186.69Y-64.262
X186.69Y-66.802
X186.69Y-69.342
X186.69Y-71.882
X186.69Y-74.422
X186.69Y-76.962
X186.69Y-79.502
X186.69Y-82.042
X153.309Y-46.101
X160.909Y-46.101
X137.668Y-64.262
X137.668Y-66.802
X137.668Y-69.342
X137.668Y-71.882
X116.332Y-52.578
X118.872Y-52.578
X121.412Y-52.578
X123.952Y-52.578
X113.284Y-91.186
X113.284Y-93.726
X113.284Y-96.266
X113.284Y-98.806
X113.284Y-101.346
X113.284Y-103.886
X172.72Y-59.12
X172.72Y-61.66
X172.72Y-64.2
X172.72Y-66.74
X172.72Y-69.28
X172.72Y-71.82
X172.72Y-74.36
X172.72Y-76.9
X172.72Y-79.44
X172.72Y-81.98
X172.72Y-84.52
X172.72Y-87.06
X172.72Y-89.6
X172.72Y-92.14
X180.34Y-59.12
X180.34Y-61.66
X180.34Y-64.2
X180.34Y-66.74
X180.34Y-69.28
X180.34Y-71.82
X180.34Y-74.36
X180.34Y-76.9
X180.34Y-79.44
X180.34Y-81.98
X180.34Y-84.52
X180.34Y-87.06
X180.34Y-89.6
X180.34Y-92.14
X141.605Y-74.358
X141.605Y-76.898
X141.605Y-79.438
X128.27Y-52.578
X130.81Y-52.578
X133.35Y-52.578
X135.89Y-52.578
X153.67Y-42.164
X153.67Y-49.784
X156.21Y-42.164
X156.21Y-49.784
X158.75Y-42.164
X158.75Y-49.784
X161.29Y-42.164
X161.29Y-49.784
X139.14Y-128.93
X139.14Y-131.43
X139.14Y-133.93
X153.64Y-128.93
X153.64Y-133.93
X196.596Y-54.206
X196.596Y-56.706
X196.596Y-59.206
T9
X179.904Y-130.556
X179.904Y-137.056
X184.404Y-130.556
X184.404Y-137.056
X192.024Y-93.218
X192.024Y-97.028
X192.024Y-100.838
X192.024Y-104.648
X107.95Y-88.06
X107.95Y-91.87
X107.95Y-95.68
X107.95Y-99.49
X107.95Y-103.3
X107.95Y-107.11
X107.95Y-115.062
X107.95Y-118.872
X107.95Y-122.682
X107.95Y-126.492
X107.95Y-61.51
X107.95Y-65.32
X107.95Y-74.62
X107.95Y-78.43
X167.05Y-130.65
X167.05Y-137.15
X171.55Y-130.65
X171.55Y-137.15
X192.024Y-51.05
X192.024Y-54.86
X192.024Y-58.67
X192.024Y-62.48
X192.024Y-66.29
X192.024Y-70.1
X192.024Y-73.91
X192.024Y-77.72
X192.024Y-81.53
X192.024Y-85.34
X192.024Y-113.33
X192.024Y-117.14
X192.024Y-120.95
X192.024Y-124.76
X192.024Y-128.57
T11
X128.016Y-64.895
X128.016Y-69.595
X128.016Y-74.295
T12
X196.088Y-43.434
X103.886Y-43.434
X196.088Y-136.017
X160.35Y-127.737
X103.826Y-136.077
T10
G00X147.04Y-125.73
M15
G01X146.24Y-125.73
M16
G05
G00X147.04Y-137.13
M15
G01X146.24Y-137.13
M16
G05
T0
M30
