  0
SECTION
  2
HEADER
  9
$ANGBASE
  50
0.0
  9
$ANGDIR
  70
1
  9
$MEASUREMENT
  70
1
  0
ENDSEC
  0
SECTION
  2
TABLES
  0
TABLE
  2
LTYPE
  70
4
  0
LTYPE
  5
40F
  2
CONTINUOUS
  70
0
  3
Solid line
  72
65
  73
0
  40
0.0
  0
LTYPE
  5
410
  2
DASHDOT
 70
0
  3
Dash Dot ____ _ ____ _
 72
65
 73
4
 40
2.0
 49
1.25
 49
-0.25
 49
0.25
 49
-0.25
  0
LTYPE
  5
411
  2
DASHED
 70
0
  3
Dashed __ __ __ __ __
 72
65
 73
2
 40
0.75
 49
0.5
 49
-0.25
  0
LTYPE
  5
43B
  2
DOTTED
 70
0
  3
Dotted .  .  .  .
 72
65
 73
2
 40
0.2
 49
0.0
 49
-0.2
  0
ENDTAB
  0
TABLE
  2
STYLE
  70
4
  0
STYLE
  2
KICAD
  70
0
  40
0
  41
1
  42
1
  50
0
  71
0
  3
isocp.shx
  0
STYLE
  2
KICADB
  70
0
  40
0
  41
1
  42
1
  50
0
  71
0
  3
isocp.shx
  0
STYLE
  2
KICADI
  70
0
  40
0
  41
1
  42
1
  50
15
  71
0
  3
isocp.shx
  0
STYLE
  2
KICADBI
  70
0
  40
0
  41
1
  42
1
  50
15
  71
0
  3
isocp.shx
  0
ENDTAB
  0
TABLE
  2
LAYER
  70
1
  0
LAYER
  2
BLACK
  70
0
  62
7
  6
CONTINUOUS
  0
ENDTAB
  0
ENDSEC
  0
SECTION
  2
ENTITIES
0
LINE
8
BLACK
6
CONTINUOUS
10
200
20
-139.75
11
200
21
-39.75
0
LINE
8
BLACK
6
CONTINUOUS
10
100
20
-39.75
11
200
21
-39.75
0
LINE
8
BLACK
6
CONTINUOUS
10
100
20
-39.75
11
100
21
-139.75
0
LINE
8
BLACK
6
CONTINUOUS
10
100
20
-139.75
11
200
21
-139.75
0
LINE
8
BLACK
6
CONTINUOUS
10
151.873
20
-65.2846
11
155.873
21
-69.2846
0
LINE
8
BLACK
6
CONTINUOUS
10
155.873
20
-65.2846
11
151.873
21
-69.2846
0
LINE
8
BLACK
6
CONTINUOUS
10
102.839
20
-144.432
11
102.839
21
-141.432
0
LINE
8
BLACK
6
CONTINUOUS
10
102.839
20
-141.432
11
103.554
21
-141.432
0
LINE
8
BLACK
6
CONTINUOUS
10
103.554
20
-141.432
11
103.982
21
-141.575
0
LINE
8
BLACK
6
CONTINUOUS
10
103.982
20
-141.575
11
104.268
21
-141.861
0
LINE
8
BLACK
6
CONTINUOUS
10
104.268
20
-141.861
11
104.411
21
-142.146
0
LINE
8
BLACK
6
CONTINUOUS
10
104.411
20
-142.146
11
104.554
21
-142.718
0
LINE
8
BLACK
6
CONTINUOUS
10
104.554
20
-142.718
11
104.554
21
-143.146
0
LINE
8
BLACK
6
CONTINUOUS
10
104.554
20
-143.146
11
104.411
21
-143.718
0
LINE
8
BLACK
6
CONTINUOUS
10
104.411
20
-143.718
11
104.268
21
-144.004
0
LINE
8
BLACK
6
CONTINUOUS
10
104.268
20
-144.004
11
103.982
21
-144.289
0
LINE
8
BLACK
6
CONTINUOUS
10
103.982
20
-144.289
11
103.554
21
-144.432
0
LINE
8
BLACK
6
CONTINUOUS
10
103.554
20
-144.432
11
102.839
21
-144.432
0
LINE
8
BLACK
6
CONTINUOUS
10
105.839
20
-144.432
11
105.839
21
-142.432
0
LINE
8
BLACK
6
CONTINUOUS
10
105.839
20
-143.004
11
105.982
21
-142.718
0
LINE
8
BLACK
6
CONTINUOUS
10
105.982
20
-142.718
11
106.125
21
-142.575
0
LINE
8
BLACK
6
CONTINUOUS
10
106.125
20
-142.575
11
106.411
21
-142.432
0
LINE
8
BLACK
6
CONTINUOUS
10
106.411
20
-142.432
11
106.696
21
-142.432
0
LINE
8
BLACK
6
CONTINUOUS
10
107.696
20
-144.432
11
107.696
21
-142.432
0
LINE
8
BLACK
6
CONTINUOUS
10
107.696
20
-141.432
11
107.554
21
-141.575
0
LINE
8
BLACK
6
CONTINUOUS
10
107.554
20
-141.575
11
107.696
21
-141.718
0
LINE
8
BLACK
6
CONTINUOUS
10
107.696
20
-141.718
11
107.839
21
-141.575
0
LINE
8
BLACK
6
CONTINUOUS
10
107.839
20
-141.575
11
107.696
21
-141.432
0
LINE
8
BLACK
6
CONTINUOUS
10
107.696
20
-141.432
11
107.696
21
-141.718
0
LINE
8
BLACK
6
CONTINUOUS
10
109.554
20
-144.432
11
109.268
21
-144.289
0
LINE
8
BLACK
6
CONTINUOUS
10
109.268
20
-144.289
11
109.125
21
-144.004
0
LINE
8
BLACK
6
CONTINUOUS
10
109.125
20
-144.004
11
109.125
21
-141.432
0
LINE
8
BLACK
6
CONTINUOUS
10
111.125
20
-144.432
11
110.839
21
-144.289
0
LINE
8
BLACK
6
CONTINUOUS
10
110.839
20
-144.289
11
110.696
21
-144.004
0
LINE
8
BLACK
6
CONTINUOUS
10
110.696
20
-144.004
11
110.696
21
-141.432
0
LINE
8
BLACK
6
CONTINUOUS
10
114.554
20
-144.432
11
114.554
21
-141.432
0
LINE
8
BLACK
6
CONTINUOUS
10
114.554
20
-141.432
11
115.554
21
-143.575
0
LINE
8
BLACK
6
CONTINUOUS
10
115.554
20
-143.575
11
116.554
21
-141.432
0
LINE
8
BLACK
6
CONTINUOUS
10
116.554
20
-141.432
11
116.554
21
-144.432
0
LINE
8
BLACK
6
CONTINUOUS
10
119.268
20
-144.432
11
119.268
21
-142.861
0
LINE
8
BLACK
6
CONTINUOUS
10
119.268
20
-142.861
11
119.125
21
-142.575
0
LINE
8
BLACK
6
CONTINUOUS
10
119.125
20
-142.575
11
118.839
21
-142.432
0
LINE
8
BLACK
6
CONTINUOUS
10
118.839
20
-142.432
11
118.268
21
-142.432
0
LINE
8
BLACK
6
CONTINUOUS
10
118.268
20
-142.432
11
117.982
21
-142.575
0
LINE
8
BLACK
6
CONTINUOUS
10
119.268
20
-144.289
11
118.982
21
-144.432
0
LINE
8
BLACK
6
CONTINUOUS
10
118.982
20
-144.432
11
118.268
21
-144.432
0
LINE
8
BLACK
6
CONTINUOUS
10
118.268
20
-144.432
11
117.982
21
-144.289
0
LINE
8
BLACK
6
CONTINUOUS
10
117.982
20
-144.289
11
117.839
21
-144.004
0
LINE
8
BLACK
6
CONTINUOUS
10
117.839
20
-144.004
11
117.839
21
-143.718
0
LINE
8
BLACK
6
CONTINUOUS
10
117.839
20
-143.718
11
117.982
21
-143.432
0
LINE
8
BLACK
6
CONTINUOUS
10
117.982
20
-143.432
11
118.268
21
-143.289
0
LINE
8
BLACK
6
CONTINUOUS
10
118.268
20
-143.289
11
118.982
21
-143.289
0
LINE
8
BLACK
6
CONTINUOUS
10
118.982
20
-143.289
11
119.268
21
-143.146
0
LINE
8
BLACK
6
CONTINUOUS
10
120.696
20
-142.432
11
120.696
21
-145.432
0
LINE
8
BLACK
6
CONTINUOUS
10
120.696
20
-142.575
11
120.982
21
-142.432
0
LINE
8
BLACK
6
CONTINUOUS
10
120.982
20
-142.432
11
121.554
21
-142.432
0
LINE
8
BLACK
6
CONTINUOUS
10
121.554
20
-142.432
11
121.839
21
-142.575
0
LINE
8
BLACK
6
CONTINUOUS
10
121.839
20
-142.575
11
121.982
21
-142.718
0
LINE
8
BLACK
6
CONTINUOUS
10
121.982
20
-142.718
11
122.125
21
-143.004
0
LINE
8
BLACK
6
CONTINUOUS
10
122.125
20
-143.004
11
122.125
21
-143.861
0
LINE
8
BLACK
6
CONTINUOUS
10
122.125
20
-143.861
11
121.982
21
-144.146
0
LINE
8
BLACK
6
CONTINUOUS
10
121.982
20
-144.146
11
121.839
21
-144.289
0
LINE
8
BLACK
6
CONTINUOUS
10
121.839
20
-144.289
11
121.554
21
-144.432
0
LINE
8
BLACK
6
CONTINUOUS
10
121.554
20
-144.432
11
120.982
21
-144.432
0
LINE
8
BLACK
6
CONTINUOUS
10
120.982
20
-144.432
11
120.696
21
-144.289
0
LINE
8
BLACK
6
CONTINUOUS
10
123.411
20
-144.146
11
123.554
21
-144.289
0
LINE
8
BLACK
6
CONTINUOUS
10
123.554
20
-144.289
11
123.411
21
-144.432
0
LINE
8
BLACK
6
CONTINUOUS
10
123.411
20
-144.432
11
123.268
21
-144.289
0
LINE
8
BLACK
6
CONTINUOUS
10
123.268
20
-144.289
11
123.411
21
-144.146
0
LINE
8
BLACK
6
CONTINUOUS
10
123.411
20
-144.146
11
123.411
21
-144.432
0
LINE
8
BLACK
6
CONTINUOUS
10
123.411
20
-142.575
11
123.554
21
-142.718
0
LINE
8
BLACK
6
CONTINUOUS
10
123.554
20
-142.718
11
123.411
21
-142.861
0
LINE
8
BLACK
6
CONTINUOUS
10
123.411
20
-142.861
11
123.268
21
-142.718
0
LINE
8
BLACK
6
CONTINUOUS
10
123.268
20
-142.718
11
123.411
21
-142.575
0
LINE
8
BLACK
6
CONTINUOUS
10
123.411
20
-142.575
11
123.411
21
-142.861
0
LINE
8
BLACK
6
CONTINUOUS
10
95.975
20
-147.375
11
99.975
21
-151.375
0
LINE
8
BLACK
6
CONTINUOUS
10
99.975
20
-147.375
11
95.975
21
-151.375
0
LINE
8
BLACK
6
CONTINUOUS
10
104.125
20
-148.732
11
104.125
21
-150.732
0
LINE
8
BLACK
6
CONTINUOUS
10
103.411
20
-147.589
11
102.696
21
-149.732
0
LINE
8
BLACK
6
CONTINUOUS
10
102.696
20
-149.732
11
104.554
21
-149.732
0
LINE
8
BLACK
6
CONTINUOUS
10
105.696
20
-150.446
11
105.839
21
-150.589
0
LINE
8
BLACK
6
CONTINUOUS
10
105.839
20
-150.589
11
105.696
21
-150.732
0
LINE
8
BLACK
6
CONTINUOUS
10
105.696
20
-150.732
11
105.554
21
-150.589
0
LINE
8
BLACK
6
CONTINUOUS
10
105.554
20
-150.589
11
105.696
21
-150.446
0
LINE
8
BLACK
6
CONTINUOUS
10
105.696
20
-150.446
11
105.696
21
-150.732
0
LINE
8
BLACK
6
CONTINUOUS
10
107.696
20
-147.732
11
107.982
21
-147.732
0
LINE
8
BLACK
6
CONTINUOUS
10
107.982
20
-147.732
11
108.268
21
-147.875
0
LINE
8
BLACK
6
CONTINUOUS
10
108.268
20
-147.875
11
108.411
21
-148.018
0
LINE
8
BLACK
6
CONTINUOUS
10
108.411
20
-148.018
11
108.554
21
-148.304
0
LINE
8
BLACK
6
CONTINUOUS
10
108.554
20
-148.304
11
108.696
21
-148.875
0
LINE
8
BLACK
6
CONTINUOUS
10
108.696
20
-148.875
11
108.696
21
-149.589
0
LINE
8
BLACK
6
CONTINUOUS
10
108.696
20
-149.589
11
108.554
21
-150.161
0
LINE
8
BLACK
6
CONTINUOUS
10
108.554
20
-150.161
11
108.411
21
-150.446
0
LINE
8
BLACK
6
CONTINUOUS
10
108.411
20
-150.446
11
108.268
21
-150.589
0
LINE
8
BLACK
6
CONTINUOUS
10
108.268
20
-150.589
11
107.982
21
-150.732
0
LINE
8
BLACK
6
CONTINUOUS
10
107.982
20
-150.732
11
107.696
21
-150.732
0
LINE
8
BLACK
6
CONTINUOUS
10
107.696
20
-150.732
11
107.411
21
-150.589
0
LINE
8
BLACK
6
CONTINUOUS
10
107.411
20
-150.589
11
107.268
21
-150.446
0
LINE
8
BLACK
6
CONTINUOUS
10
107.268
20
-150.446
11
107.125
21
-150.161
0
LINE
8
BLACK
6
CONTINUOUS
10
107.125
20
-150.161
11
106.982
21
-149.589
0
LINE
8
BLACK
6
CONTINUOUS
10
106.982
20
-149.589
11
106.982
21
-148.875
0
LINE
8
BLACK
6
CONTINUOUS
10
106.982
20
-148.875
11
107.125
21
-148.304
0
LINE
8
BLACK
6
CONTINUOUS
10
107.125
20
-148.304
11
107.268
21
-148.018
0
LINE
8
BLACK
6
CONTINUOUS
10
107.268
20
-148.018
11
107.411
21
-147.875
0
LINE
8
BLACK
6
CONTINUOUS
10
107.411
20
-147.875
11
107.696
21
-147.732
0
LINE
8
BLACK
6
CONTINUOUS
10
110.554
20
-147.732
11
110.839
21
-147.732
0
LINE
8
BLACK
6
CONTINUOUS
10
110.839
20
-147.732
11
111.125
21
-147.875
0
LINE
8
BLACK
6
CONTINUOUS
10
111.125
20
-147.875
11
111.268
21
-148.018
0
LINE
8
BLACK
6
CONTINUOUS
10
111.268
20
-148.018
11
111.411
21
-148.304
0
LINE
8
BLACK
6
CONTINUOUS
10
111.411
20
-148.304
11
111.554
21
-148.875
0
LINE
8
BLACK
6
CONTINUOUS
10
111.554
20
-148.875
11
111.554
21
-149.589
0
LINE
8
BLACK
6
CONTINUOUS
10
111.554
20
-149.589
11
111.411
21
-150.161
0
LINE
8
BLACK
6
CONTINUOUS
10
111.411
20
-150.161
11
111.268
21
-150.446
0
LINE
8
BLACK
6
CONTINUOUS
10
111.268
20
-150.446
11
111.125
21
-150.589
0
LINE
8
BLACK
6
CONTINUOUS
10
111.125
20
-150.589
11
110.839
21
-150.732
0
LINE
8
BLACK
6
CONTINUOUS
10
110.839
20
-150.732
11
110.554
21
-150.732
0
LINE
8
BLACK
6
CONTINUOUS
10
110.554
20
-150.732
11
110.268
21
-150.589
0
LINE
8
BLACK
6
CONTINUOUS
10
110.268
20
-150.589
11
110.125
21
-150.446
0
LINE
8
BLACK
6
CONTINUOUS
10
110.125
20
-150.446
11
109.982
21
-150.161
0
LINE
8
BLACK
6
CONTINUOUS
10
109.982
20
-150.161
11
109.839
21
-149.589
0
LINE
8
BLACK
6
CONTINUOUS
10
109.839
20
-149.589
11
109.839
21
-148.875
0
LINE
8
BLACK
6
CONTINUOUS
10
109.839
20
-148.875
11
109.982
21
-148.304
0
LINE
8
BLACK
6
CONTINUOUS
10
109.982
20
-148.304
11
110.125
21
-148.018
0
LINE
8
BLACK
6
CONTINUOUS
10
110.125
20
-148.018
11
110.268
21
-147.875
0
LINE
8
BLACK
6
CONTINUOUS
10
110.268
20
-147.875
11
110.554
21
-147.732
0
LINE
8
BLACK
6
CONTINUOUS
10
112.839
20
-150.732
11
112.839
21
-148.732
0
LINE
8
BLACK
6
CONTINUOUS
10
112.839
20
-149.018
11
112.982
21
-148.875
0
LINE
8
BLACK
6
CONTINUOUS
10
112.982
20
-148.875
11
113.268
21
-148.732
0
LINE
8
BLACK
6
CONTINUOUS
10
113.268
20
-148.732
11
113.696
21
-148.732
0
LINE
8
BLACK
6
CONTINUOUS
10
113.696
20
-148.732
11
113.982
21
-148.875
0
LINE
8
BLACK
6
CONTINUOUS
10
113.982
20
-148.875
11
114.125
21
-149.161
0
LINE
8
BLACK
6
CONTINUOUS
10
114.125
20
-149.161
11
114.125
21
-150.732
0
LINE
8
BLACK
6
CONTINUOUS
10
114.125
20
-149.161
11
114.268
21
-148.875
0
LINE
8
BLACK
6
CONTINUOUS
10
114.268
20
-148.875
11
114.554
21
-148.732
0
LINE
8
BLACK
6
CONTINUOUS
10
114.554
20
-148.732
11
114.982
21
-148.732
0
LINE
8
BLACK
6
CONTINUOUS
10
114.982
20
-148.732
11
115.268
21
-148.875
0
LINE
8
BLACK
6
CONTINUOUS
10
115.268
20
-148.875
11
115.411
21
-149.161
0
LINE
8
BLACK
6
CONTINUOUS
10
115.411
20
-149.161
11
115.411
21
-150.732
0
LINE
8
BLACK
6
CONTINUOUS
10
116.839
20
-150.732
11
116.839
21
-148.732
0
LINE
8
BLACK
6
CONTINUOUS
10
116.839
20
-149.018
11
116.982
21
-148.875
0
LINE
8
BLACK
6
CONTINUOUS
10
116.982
20
-148.875
11
117.268
21
-148.732
0
LINE
8
BLACK
6
CONTINUOUS
10
117.268
20
-148.732
11
117.696
21
-148.732
0
LINE
8
BLACK
6
CONTINUOUS
10
117.696
20
-148.732
11
117.982
21
-148.875
0
LINE
8
BLACK
6
CONTINUOUS
10
117.982
20
-148.875
11
118.125
21
-149.161
0
LINE
8
BLACK
6
CONTINUOUS
10
118.125
20
-149.161
11
118.125
21
-150.732
0
LINE
8
BLACK
6
CONTINUOUS
10
118.125
20
-149.161
11
118.268
21
-148.875
0
LINE
8
BLACK
6
CONTINUOUS
10
118.268
20
-148.875
11
118.554
21
-148.732
0
LINE
8
BLACK
6
CONTINUOUS
10
118.554
20
-148.732
11
118.982
21
-148.732
0
LINE
8
BLACK
6
CONTINUOUS
10
118.982
20
-148.732
11
119.268
21
-148.875
0
LINE
8
BLACK
6
CONTINUOUS
10
119.268
20
-148.875
11
119.411
21
-149.161
0
LINE
8
BLACK
6
CONTINUOUS
10
119.411
20
-149.161
11
119.411
21
-150.732
0
LINE
8
BLACK
6
CONTINUOUS
10
125.268
20
-147.589
11
122.696
21
-151.446
0
LINE
8
BLACK
6
CONTINUOUS
10
129.125
20
-147.732
11
129.411
21
-147.732
0
LINE
8
BLACK
6
CONTINUOUS
10
129.411
20
-147.732
11
129.696
21
-147.875
0
LINE
8
BLACK
6
CONTINUOUS
10
129.696
20
-147.875
11
129.839
21
-148.018
0
LINE
8
BLACK
6
CONTINUOUS
10
129.839
20
-148.018
11
129.982
21
-148.304
0
LINE
8
BLACK
6
CONTINUOUS
10
129.982
20
-148.304
11
130.125
21
-148.875
0
LINE
8
BLACK
6
CONTINUOUS
10
130.125
20
-148.875
11
130.125
21
-149.589
0
LINE
8
BLACK
6
CONTINUOUS
10
130.125
20
-149.589
11
129.982
21
-150.161
0
LINE
8
BLACK
6
CONTINUOUS
10
129.982
20
-150.161
11
129.839
21
-150.446
0
LINE
8
BLACK
6
CONTINUOUS
10
129.839
20
-150.446
11
129.696
21
-150.589
0
LINE
8
BLACK
6
CONTINUOUS
10
129.696
20
-150.589
11
129.411
21
-150.732
0
LINE
8
BLACK
6
CONTINUOUS
10
129.411
20
-150.732
11
129.125
21
-150.732
0
LINE
8
BLACK
6
CONTINUOUS
10
129.125
20
-150.732
11
128.839
21
-150.589
0
LINE
8
BLACK
6
CONTINUOUS
10
128.839
20
-150.589
11
128.696
21
-150.446
0
LINE
8
BLACK
6
CONTINUOUS
10
128.696
20
-150.446
11
128.554
21
-150.161
0
LINE
8
BLACK
6
CONTINUOUS
10
128.554
20
-150.161
11
128.411
21
-149.589
0
LINE
8
BLACK
6
CONTINUOUS
10
128.411
20
-149.589
11
128.411
21
-148.875
0
LINE
8
BLACK
6
CONTINUOUS
10
128.411
20
-148.875
11
128.554
21
-148.304
0
LINE
8
BLACK
6
CONTINUOUS
10
128.554
20
-148.304
11
128.696
21
-148.018
0
LINE
8
BLACK
6
CONTINUOUS
10
128.696
20
-148.018
11
128.839
21
-147.875
0
LINE
8
BLACK
6
CONTINUOUS
10
128.839
20
-147.875
11
129.125
21
-147.732
0
LINE
8
BLACK
6
CONTINUOUS
10
131.411
20
-150.446
11
131.554
21
-150.589
0
LINE
8
BLACK
6
CONTINUOUS
10
131.554
20
-150.589
11
131.411
21
-150.732
0
LINE
8
BLACK
6
CONTINUOUS
10
131.411
20
-150.732
11
131.268
21
-150.589
0
LINE
8
BLACK
6
CONTINUOUS
10
131.268
20
-150.589
11
131.411
21
-150.446
0
LINE
8
BLACK
6
CONTINUOUS
10
131.411
20
-150.446
11
131.411
21
-150.732
0
LINE
8
BLACK
6
CONTINUOUS
10
134.411
20
-150.732
11
132.696
21
-150.732
0
LINE
8
BLACK
6
CONTINUOUS
10
133.554
20
-150.732
11
133.554
21
-147.732
0
LINE
8
BLACK
6
CONTINUOUS
10
133.554
20
-147.732
11
133.268
21
-148.161
0
LINE
8
BLACK
6
CONTINUOUS
10
133.268
20
-148.161
11
132.982
21
-148.446
0
LINE
8
BLACK
6
CONTINUOUS
10
132.982
20
-148.446
11
132.696
21
-148.589
0
LINE
8
BLACK
6
CONTINUOUS
10
137.125
20
-147.732
11
135.696
21
-147.732
0
LINE
8
BLACK
6
CONTINUOUS
10
135.696
20
-147.732
11
135.554
21
-149.161
0
LINE
8
BLACK
6
CONTINUOUS
10
135.554
20
-149.161
11
135.696
21
-149.018
0
LINE
8
BLACK
6
CONTINUOUS
10
135.696
20
-149.018
11
135.982
21
-148.875
0
LINE
8
BLACK
6
CONTINUOUS
10
135.982
20
-148.875
11
136.696
21
-148.875
0
LINE
8
BLACK
6
CONTINUOUS
10
136.696
20
-148.875
11
136.982
21
-149.018
0
LINE
8
BLACK
6
CONTINUOUS
10
136.982
20
-149.018
11
137.125
21
-149.161
0
LINE
8
BLACK
6
CONTINUOUS
10
137.125
20
-149.161
11
137.268
21
-149.446
0
LINE
8
BLACK
6
CONTINUOUS
10
137.268
20
-149.446
11
137.268
21
-150.161
0
LINE
8
BLACK
6
CONTINUOUS
10
137.268
20
-150.161
11
137.125
21
-150.446
0
LINE
8
BLACK
6
CONTINUOUS
10
137.125
20
-150.446
11
136.982
21
-150.589
0
LINE
8
BLACK
6
CONTINUOUS
10
136.982
20
-150.589
11
136.696
21
-150.732
0
LINE
8
BLACK
6
CONTINUOUS
10
136.696
20
-150.732
11
135.982
21
-150.732
0
LINE
8
BLACK
6
CONTINUOUS
10
135.982
20
-150.732
11
135.696
21
-150.589
0
LINE
8
BLACK
6
CONTINUOUS
10
135.696
20
-150.589
11
135.554
21
-150.446
0
LINE
8
BLACK
6
CONTINUOUS
10
138.268
20
-147.732
11
140.268
21
-147.732
0
LINE
8
BLACK
6
CONTINUOUS
10
140.268
20
-147.732
11
138.982
21
-150.732
0
LINE
8
BLACK
6
CONTINUOUS
10
141.268
20
-147.732
11
141.268
21
-148.304
0
LINE
8
BLACK
6
CONTINUOUS
10
142.411
20
-147.732
11
142.411
21
-148.304
0
LINE
8
BLACK
6
CONTINUOUS
10
146.839
20
-151.875
11
146.696
21
-151.732
0
LINE
8
BLACK
6
CONTINUOUS
10
146.696
20
-151.732
11
146.411
21
-151.304
0
LINE
8
BLACK
6
CONTINUOUS
10
146.411
20
-151.304
11
146.268
21
-151.018
0
LINE
8
BLACK
6
CONTINUOUS
10
146.268
20
-151.018
11
146.125
21
-150.589
0
LINE
8
BLACK
6
CONTINUOUS
10
146.125
20
-150.589
11
145.982
21
-149.875
0
LINE
8
BLACK
6
CONTINUOUS
10
145.982
20
-149.875
11
145.982
21
-149.304
0
LINE
8
BLACK
6
CONTINUOUS
10
145.982
20
-149.304
11
146.125
21
-148.589
0
LINE
8
BLACK
6
CONTINUOUS
10
146.125
20
-148.589
11
146.268
21
-148.161
0
LINE
8
BLACK
6
CONTINUOUS
10
146.268
20
-148.161
11
146.411
21
-147.875
0
LINE
8
BLACK
6
CONTINUOUS
10
146.411
20
-147.875
11
146.696
21
-147.446
0
LINE
8
BLACK
6
CONTINUOUS
10
146.696
20
-147.446
11
146.839
21
-147.304
0
LINE
8
BLACK
6
CONTINUOUS
10
149.554
20
-150.732
11
147.839
21
-150.732
0
LINE
8
BLACK
6
CONTINUOUS
10
148.696
20
-150.732
11
148.696
21
-147.732
0
LINE
8
BLACK
6
CONTINUOUS
10
148.696
20
-147.732
11
148.411
21
-148.161
0
LINE
8
BLACK
6
CONTINUOUS
10
148.411
20
-148.161
11
148.125
21
-148.446
0
LINE
8
BLACK
6
CONTINUOUS
10
148.125
20
-148.446
11
147.839
21
-148.589
0
LINE
8
BLACK
6
CONTINUOUS
10
153.125
20
-150.732
11
153.125
21
-147.732
0
LINE
8
BLACK
6
CONTINUOUS
10
154.411
20
-150.732
11
154.411
21
-149.161
0
LINE
8
BLACK
6
CONTINUOUS
10
154.411
20
-149.161
11
154.268
21
-148.875
0
LINE
8
BLACK
6
CONTINUOUS
10
154.268
20
-148.875
11
153.982
21
-148.732
0
LINE
8
BLACK
6
CONTINUOUS
10
153.982
20
-148.732
11
153.554
21
-148.732
0
LINE
8
BLACK
6
CONTINUOUS
10
153.554
20
-148.732
11
153.268
21
-148.875
0
LINE
8
BLACK
6
CONTINUOUS
10
153.268
20
-148.875
11
153.125
21
-149.018
0
LINE
8
BLACK
6
CONTINUOUS
10
156.268
20
-150.732
11
155.982
21
-150.589
0
LINE
8
BLACK
6
CONTINUOUS
10
155.982
20
-150.589
11
155.839
21
-150.446
0
LINE
8
BLACK
6
CONTINUOUS
10
155.839
20
-150.446
11
155.696
21
-150.161
0
LINE
8
BLACK
6
CONTINUOUS
10
155.696
20
-150.161
11
155.696
21
-149.304
0
LINE
8
BLACK
6
CONTINUOUS
10
155.696
20
-149.304
11
155.839
21
-149.018
0
LINE
8
BLACK
6
CONTINUOUS
10
155.839
20
-149.018
11
155.982
21
-148.875
0
LINE
8
BLACK
6
CONTINUOUS
10
155.982
20
-148.875
11
156.268
21
-148.732
0
LINE
8
BLACK
6
CONTINUOUS
10
156.268
20
-148.732
11
156.696
21
-148.732
0
LINE
8
BLACK
6
CONTINUOUS
10
156.696
20
-148.732
11
156.982
21
-148.875
0
LINE
8
BLACK
6
CONTINUOUS
10
156.982
20
-148.875
11
157.125
21
-149.018
0
LINE
8
BLACK
6
CONTINUOUS
10
157.125
20
-149.018
11
157.268
21
-149.304
0
LINE
8
BLACK
6
CONTINUOUS
10
157.268
20
-149.304
11
157.268
21
-150.161
0
LINE
8
BLACK
6
CONTINUOUS
10
157.268
20
-150.161
11
157.125
21
-150.446
0
LINE
8
BLACK
6
CONTINUOUS
10
157.125
20
-150.446
11
156.982
21
-150.589
0
LINE
8
BLACK
6
CONTINUOUS
10
156.982
20
-150.589
11
156.696
21
-150.732
0
LINE
8
BLACK
6
CONTINUOUS
10
156.696
20
-150.732
11
156.268
21
-150.732
0
LINE
8
BLACK
6
CONTINUOUS
10
158.982
20
-150.732
11
158.696
21
-150.589
0
LINE
8
BLACK
6
CONTINUOUS
10
158.696
20
-150.589
11
158.554
21
-150.304
0
LINE
8
BLACK
6
CONTINUOUS
10
158.554
20
-150.304
11
158.554
21
-147.732
0
LINE
8
BLACK
6
CONTINUOUS
10
161.268
20
-150.589
11
160.982
21
-150.732
0
LINE
8
BLACK
6
CONTINUOUS
10
160.982
20
-150.732
11
160.411
21
-150.732
0
LINE
8
BLACK
6
CONTINUOUS
10
160.411
20
-150.732
11
160.125
21
-150.589
0
LINE
8
BLACK
6
CONTINUOUS
10
160.125
20
-150.589
11
159.982
21
-150.304
0
LINE
8
BLACK
6
CONTINUOUS
10
159.982
20
-150.304
11
159.982
21
-149.161
0
LINE
8
BLACK
6
CONTINUOUS
10
159.982
20
-149.161
11
160.125
21
-148.875
0
LINE
8
BLACK
6
CONTINUOUS
10
160.125
20
-148.875
11
160.411
21
-148.732
0
LINE
8
BLACK
6
CONTINUOUS
10
160.411
20
-148.732
11
160.982
21
-148.732
0
LINE
8
BLACK
6
CONTINUOUS
10
160.982
20
-148.732
11
161.268
21
-148.875
0
LINE
8
BLACK
6
CONTINUOUS
10
161.268
20
-148.875
11
161.411
21
-149.161
0
LINE
8
BLACK
6
CONTINUOUS
10
161.411
20
-149.161
11
161.411
21
-149.446
0
LINE
8
BLACK
6
CONTINUOUS
10
161.411
20
-149.446
11
159.982
21
-149.732
0
LINE
8
BLACK
6
CONTINUOUS
10
162.411
20
-151.875
11
162.554
21
-151.732
0
LINE
8
BLACK
6
CONTINUOUS
10
162.554
20
-151.732
11
162.839
21
-151.304
0
LINE
8
BLACK
6
CONTINUOUS
10
162.839
20
-151.304
11
162.982
21
-151.018
0
LINE
8
BLACK
6
CONTINUOUS
10
162.982
20
-151.018
11
163.125
21
-150.589
0
LINE
8
BLACK
6
CONTINUOUS
10
163.125
20
-150.589
11
163.268
21
-149.875
0
LINE
8
BLACK
6
CONTINUOUS
10
163.268
20
-149.875
11
163.268
21
-149.304
0
LINE
8
BLACK
6
CONTINUOUS
10
163.268
20
-149.304
11
163.125
21
-148.589
0
LINE
8
BLACK
6
CONTINUOUS
10
163.125
20
-148.589
11
162.982
21
-148.161
0
LINE
8
BLACK
6
CONTINUOUS
10
162.982
20
-148.161
11
162.839
21
-147.875
0
LINE
8
BLACK
6
CONTINUOUS
10
162.839
20
-147.875
11
162.554
21
-147.446
0
LINE
8
BLACK
6
CONTINUOUS
10
162.554
20
-147.446
11
162.411
21
-147.304
0
LINE
8
BLACK
6
CONTINUOUS
10
167.839
20
-151.875
11
167.696
21
-151.732
0
LINE
8
BLACK
6
CONTINUOUS
10
167.696
20
-151.732
11
167.411
21
-151.304
0
LINE
8
BLACK
6
CONTINUOUS
10
167.411
20
-151.304
11
167.268
21
-151.018
0
LINE
8
BLACK
6
CONTINUOUS
10
167.268
20
-151.018
11
167.125
21
-150.589
0
LINE
8
BLACK
6
CONTINUOUS
10
167.125
20
-150.589
11
166.982
21
-149.875
0
LINE
8
BLACK
6
CONTINUOUS
10
166.982
20
-149.875
11
166.982
21
-149.304
0
LINE
8
BLACK
6
CONTINUOUS
10
166.982
20
-149.304
11
167.125
21
-148.589
0
LINE
8
BLACK
6
CONTINUOUS
10
167.125
20
-148.589
11
167.268
21
-148.161
0
LINE
8
BLACK
6
CONTINUOUS
10
167.268
20
-148.161
11
167.411
21
-147.875
0
LINE
8
BLACK
6
CONTINUOUS
10
167.411
20
-147.875
11
167.696
21
-147.446
0
LINE
8
BLACK
6
CONTINUOUS
10
167.696
20
-147.446
11
167.839
21
-147.304
0
LINE
8
BLACK
6
CONTINUOUS
10
168.982
20
-148.732
11
168.982
21
-150.732
0
LINE
8
BLACK
6
CONTINUOUS
10
168.982
20
-149.018
11
169.125
21
-148.875
0
LINE
8
BLACK
6
CONTINUOUS
10
169.125
20
-148.875
11
169.411
21
-148.732
0
LINE
8
BLACK
6
CONTINUOUS
10
169.411
20
-148.732
11
169.839
21
-148.732
0
LINE
8
BLACK
6
CONTINUOUS
10
169.839
20
-148.732
11
170.125
21
-148.875
0
LINE
8
BLACK
6
CONTINUOUS
10
170.125
20
-148.875
11
170.268
21
-149.161
0
LINE
8
BLACK
6
CONTINUOUS
10
170.268
20
-149.161
11
170.268
21
-150.732
0
LINE
8
BLACK
6
CONTINUOUS
10
172.125
20
-150.732
11
171.839
21
-150.589
0
LINE
8
BLACK
6
CONTINUOUS
10
171.839
20
-150.589
11
171.696
21
-150.446
0
LINE
8
BLACK
6
CONTINUOUS
10
171.696
20
-150.446
11
171.554
21
-150.161
0
LINE
8
BLACK
6
CONTINUOUS
10
171.554
20
-150.161
11
171.554
21
-149.304
0
LINE
8
BLACK
6
CONTINUOUS
10
171.554
20
-149.304
11
171.696
21
-149.018
0
LINE
8
BLACK
6
CONTINUOUS
10
171.696
20
-149.018
11
171.839
21
-148.875
0
LINE
8
BLACK
6
CONTINUOUS
10
171.839
20
-148.875
11
172.125
21
-148.732
0
LINE
8
BLACK
6
CONTINUOUS
10
172.125
20
-148.732
11
172.554
21
-148.732
0
LINE
8
BLACK
6
CONTINUOUS
10
172.554
20
-148.732
11
172.839
21
-148.875
0
LINE
8
BLACK
6
CONTINUOUS
10
172.839
20
-148.875
11
172.982
21
-149.018
0
LINE
8
BLACK
6
CONTINUOUS
10
172.982
20
-149.018
11
173.125
21
-149.304
0
LINE
8
BLACK
6
CONTINUOUS
10
173.125
20
-149.304
11
173.125
21
-150.161
0
LINE
8
BLACK
6
CONTINUOUS
10
173.125
20
-150.161
11
172.982
21
-150.446
0
LINE
8
BLACK
6
CONTINUOUS
10
172.982
20
-150.446
11
172.839
21
-150.589
0
LINE
8
BLACK
6
CONTINUOUS
10
172.839
20
-150.589
11
172.554
21
-150.732
0
LINE
8
BLACK
6
CONTINUOUS
10
172.554
20
-150.732
11
172.125
21
-150.732
0
LINE
8
BLACK
6
CONTINUOUS
10
173.982
20
-148.732
11
175.125
21
-148.732
0
LINE
8
BLACK
6
CONTINUOUS
10
174.411
20
-147.732
11
174.411
21
-150.304
0
LINE
8
BLACK
6
CONTINUOUS
10
174.411
20
-150.304
11
174.554
21
-150.589
0
LINE
8
BLACK
6
CONTINUOUS
10
174.554
20
-150.589
11
174.839
21
-150.732
0
LINE
8
BLACK
6
CONTINUOUS
10
174.839
20
-150.732
11
175.125
21
-150.732
0
LINE
8
BLACK
6
CONTINUOUS
10
178.411
20
-148.732
11
178.411
21
-151.732
0
LINE
8
BLACK
6
CONTINUOUS
10
178.411
20
-148.875
11
178.696
21
-148.732
0
LINE
8
BLACK
6
CONTINUOUS
10
178.696
20
-148.732
11
179.268
21
-148.732
0
LINE
8
BLACK
6
CONTINUOUS
10
179.268
20
-148.732
11
179.554
21
-148.875
0
LINE
8
BLACK
6
CONTINUOUS
10
179.554
20
-148.875
11
179.696
21
-149.018
0
LINE
8
BLACK
6
CONTINUOUS
10
179.696
20
-149.018
11
179.839
21
-149.304
0
LINE
8
BLACK
6
CONTINUOUS
10
179.839
20
-149.304
11
179.839
21
-150.161
0
LINE
8
BLACK
6
CONTINUOUS
10
179.839
20
-150.161
11
179.696
21
-150.446
0
LINE
8
BLACK
6
CONTINUOUS
10
179.696
20
-150.446
11
179.554
21
-150.589
0
LINE
8
BLACK
6
CONTINUOUS
10
179.554
20
-150.589
11
179.268
21
-150.732
0
LINE
8
BLACK
6
CONTINUOUS
10
179.268
20
-150.732
11
178.696
21
-150.732
0
LINE
8
BLACK
6
CONTINUOUS
10
178.696
20
-150.732
11
178.411
21
-150.589
0
LINE
8
BLACK
6
CONTINUOUS
10
181.554
20
-150.732
11
181.268
21
-150.589
0
LINE
8
BLACK
6
CONTINUOUS
10
181.268
20
-150.589
11
181.125
21
-150.304
0
LINE
8
BLACK
6
CONTINUOUS
10
181.125
20
-150.304
11
181.125
21
-147.732
0
LINE
8
BLACK
6
CONTINUOUS
10
183.982
20
-150.732
11
183.982
21
-149.161
0
LINE
8
BLACK
6
CONTINUOUS
10
183.982
20
-149.161
11
183.839
21
-148.875
0
LINE
8
BLACK
6
CONTINUOUS
10
183.839
20
-148.875
11
183.554
21
-148.732
0
LINE
8
BLACK
6
CONTINUOUS
10
183.554
20
-148.732
11
182.982
21
-148.732
0
LINE
8
BLACK
6
CONTINUOUS
10
182.982
20
-148.732
11
182.696
21
-148.875
0
LINE
8
BLACK
6
CONTINUOUS
10
183.982
20
-150.589
11
183.696
21
-150.732
0
LINE
8
BLACK
6
CONTINUOUS
10
183.696
20
-150.732
11
182.982
21
-150.732
0
LINE
8
BLACK
6
CONTINUOUS
10
182.982
20
-150.732
11
182.696
21
-150.589
0
LINE
8
BLACK
6
CONTINUOUS
10
182.696
20
-150.589
11
182.554
21
-150.304
0
LINE
8
BLACK
6
CONTINUOUS
10
182.554
20
-150.304
11
182.554
21
-150.018
0
LINE
8
BLACK
6
CONTINUOUS
10
182.554
20
-150.018
11
182.696
21
-149.732
0
LINE
8
BLACK
6
CONTINUOUS
10
182.696
20
-149.732
11
182.982
21
-149.589
0
LINE
8
BLACK
6
CONTINUOUS
10
182.982
20
-149.589
11
183.696
21
-149.589
0
LINE
8
BLACK
6
CONTINUOUS
10
183.696
20
-149.589
11
183.982
21
-149.446
0
LINE
8
BLACK
6
CONTINUOUS
10
184.982
20
-148.732
11
186.125
21
-148.732
0
LINE
8
BLACK
6
CONTINUOUS
10
185.411
20
-147.732
11
185.411
21
-150.304
0
LINE
8
BLACK
6
CONTINUOUS
10
185.411
20
-150.304
11
185.554
21
-150.589
0
LINE
8
BLACK
6
CONTINUOUS
10
185.554
20
-150.589
11
185.839
21
-150.732
0
LINE
8
BLACK
6
CONTINUOUS
10
185.839
20
-150.732
11
186.125
21
-150.732
0
LINE
8
BLACK
6
CONTINUOUS
10
188.268
20
-150.589
11
187.982
21
-150.732
0
LINE
8
BLACK
6
CONTINUOUS
10
187.982
20
-150.732
11
187.411
21
-150.732
0
LINE
8
BLACK
6
CONTINUOUS
10
187.411
20
-150.732
11
187.125
21
-150.589
0
LINE
8
BLACK
6
CONTINUOUS
10
187.125
20
-150.589
11
186.982
21
-150.304
0
LINE
8
BLACK
6
CONTINUOUS
10
186.982
20
-150.304
11
186.982
21
-149.161
0
LINE
8
BLACK
6
CONTINUOUS
10
186.982
20
-149.161
11
187.125
21
-148.875
0
LINE
8
BLACK
6
CONTINUOUS
10
187.125
20
-148.875
11
187.411
21
-148.732
0
LINE
8
BLACK
6
CONTINUOUS
10
187.411
20
-148.732
11
187.982
21
-148.732
0
LINE
8
BLACK
6
CONTINUOUS
10
187.982
20
-148.732
11
188.268
21
-148.875
0
LINE
8
BLACK
6
CONTINUOUS
10
188.268
20
-148.875
11
188.411
21
-149.161
0
LINE
8
BLACK
6
CONTINUOUS
10
188.411
20
-149.161
11
188.411
21
-149.446
0
LINE
8
BLACK
6
CONTINUOUS
10
188.411
20
-149.446
11
186.982
21
-149.732
0
LINE
8
BLACK
6
CONTINUOUS
10
190.982
20
-150.732
11
190.982
21
-147.732
0
LINE
8
BLACK
6
CONTINUOUS
10
190.982
20
-150.589
11
190.696
21
-150.732
0
LINE
8
BLACK
6
CONTINUOUS
10
190.696
20
-150.732
11
190.125
21
-150.732
0
LINE
8
BLACK
6
CONTINUOUS
10
190.125
20
-150.732
11
189.839
21
-150.589
0
LINE
8
BLACK
6
CONTINUOUS
10
189.839
20
-150.589
11
189.696
21
-150.446
0
LINE
8
BLACK
6
CONTINUOUS
10
189.696
20
-150.446
11
189.554
21
-150.161
0
LINE
8
BLACK
6
CONTINUOUS
10
189.554
20
-150.161
11
189.554
21
-149.304
0
LINE
8
BLACK
6
CONTINUOUS
10
189.554
20
-149.304
11
189.696
21
-149.018
0
LINE
8
BLACK
6
CONTINUOUS
10
189.696
20
-149.018
11
189.839
21
-148.875
0
LINE
8
BLACK
6
CONTINUOUS
10
189.839
20
-148.875
11
190.125
21
-148.732
0
LINE
8
BLACK
6
CONTINUOUS
10
190.125
20
-148.732
11
190.696
21
-148.732
0
LINE
8
BLACK
6
CONTINUOUS
10
190.696
20
-148.732
11
190.982
21
-148.875
0
LINE
8
BLACK
6
CONTINUOUS
10
192.125
20
-151.875
11
192.268
21
-151.732
0
LINE
8
BLACK
6
CONTINUOUS
10
192.268
20
-151.732
11
192.554
21
-151.304
0
LINE
8
BLACK
6
CONTINUOUS
10
192.554
20
-151.304
11
192.696
21
-151.018
0
LINE
8
BLACK
6
CONTINUOUS
10
192.696
20
-151.018
11
192.839
21
-150.589
0
LINE
8
BLACK
6
CONTINUOUS
10
192.839
20
-150.589
11
192.982
21
-149.875
0
LINE
8
BLACK
6
CONTINUOUS
10
192.982
20
-149.875
11
192.982
21
-149.304
0
LINE
8
BLACK
6
CONTINUOUS
10
192.982
20
-149.304
11
192.839
21
-148.589
0
LINE
8
BLACK
6
CONTINUOUS
10
192.839
20
-148.589
11
192.696
21
-148.161
0
LINE
8
BLACK
6
CONTINUOUS
10
192.696
20
-148.161
11
192.554
21
-147.875
0
LINE
8
BLACK
6
CONTINUOUS
10
192.554
20
-147.875
11
192.268
21
-147.446
0
LINE
8
BLACK
6
CONTINUOUS
10
192.268
20
-147.446
11
192.125
21
-147.304
  0
ENDSEC
  0
EOF
